<svg width="78" height="78" viewBox="0 0 78 78" fill="none" xmlns="http://www.w3.org/2000/svg">
<path d="M64.2303 15.7676C62.3103 18.305 60.4279 20.7912 58.5455 23.2773C48.8702 36.0453 39.1873 48.8133 29.5269 61.596C29.0902 62.1754 28.6385 62.4027 27.9081 62.388C25.589 62.344 23.2699 62.3734 20.8906 62.3734C20.8906 58.1492 20.8906 53.9983 20.8906 49.7447C22.5546 49.7447 24.2036 49.6127 25.8224 49.7814C27.6069 49.9647 28.646 49.29 29.7227 47.9259C39.2023 35.8693 48.7723 23.886 58.3121 11.8734C58.4702 11.6754 58.6359 11.492 58.8392 11.25C60.6463 12.7534 62.4157 14.2422 64.2303 15.7676Z" fill="#222222"/>
<path d="M38.5633 34.5714C36.9219 36.6322 35.3181 38.6563 33.6616 40.7318C27.6229 32.7087 21.6521 24.7589 15.6436 16.7652C17.3904 15.2471 19.0996 13.7657 20.8841 12.2183C26.7872 19.684 32.6602 27.1057 38.5633 34.5714Z" fill="#222222"/>
<path d="M58.0259 61.9996C57.4085 61.9996 56.8212 61.9996 56.2339 61.9996C54.3365 61.9996 52.4315 61.9849 50.5341 62.0069C49.9393 62.0143 49.5327 61.8456 49.1712 61.3689C46.3552 57.592 43.5166 53.8445 40.7006 50.0676C40.55 49.8623 40.4521 49.4076 40.5726 49.2389C42.0709 47.2001 43.622 45.1907 45.2107 43.1006C46.4456 44.67 47.7708 46.1221 48.8174 47.7428C49.7962 49.2536 50.9783 49.8036 52.7779 49.6349C54.4871 49.4736 56.2264 49.5983 58.0184 49.5983C58.0259 53.7272 58.0259 57.8194 58.0259 61.9996Z" fill="#222222"/>
<path d="M19.4078 62.213C17.2544 62.213 15.1235 62.4697 13.0906 62.1544C9.81526 61.6483 7.68441 58.5388 8.0383 55.312C8.37713 52.2612 11.1254 49.819 14.3405 49.7604C16.0045 49.731 17.676 49.753 19.4078 49.753C19.4078 53.9553 19.4078 58.1061 19.4078 62.213Z" fill="#222222"/>
<path d="M59.4873 61.9834C59.4873 57.8179 59.4873 53.7696 59.4873 49.5821C61.6407 49.7068 63.7942 49.2447 65.8798 49.9854C68.6582 50.9755 70.3524 53.799 69.9382 56.6445C69.5091 59.5633 67.077 61.7854 63.9899 61.9687C62.5217 62.0567 61.0459 61.9834 59.4873 61.9834Z" fill="#222222"/>
<path d="M34.4892 60.0638C37.6271 59.4212 40.8947 59.6461 44.0372 60.2656C44.2127 60.3002 44.3883 60.3356 44.5637 60.3718C45.1284 60.4892 45.6781 60.7898 46.1599 61.1125C47.4625 61.9926 47.5152 63.3566 46.1599 64.134C45.1359 64.7207 43.9538 65.1461 42.7792 65.3661C39.7147 65.9601 36.6352 65.9088 33.6234 64.9921C32.9306 64.7867 32.2455 64.4494 31.6732 64.0313C30.5438 63.21 30.5287 61.9706 31.7109 61.2152C32.5466 60.6872 33.5179 60.2765 34.4892 60.0638Z" fill="#222222"/>
<path d="M47.1152 65.3579C47.1152 66.1133 47.1905 66.9127 47.1001 67.6901C46.9721 68.7681 46.1665 69.4428 45.2177 69.7508C43.6742 70.2495 42.078 70.6822 40.4666 70.8876C38.2906 71.1662 36.1071 70.9169 34.0064 70.2569C33.3664 70.0588 32.7489 69.7508 32.1692 69.4208C31.243 68.8928 30.7687 68.0934 30.8365 67.008C30.8741 66.458 30.844 65.908 30.844 65.3433C36.2727 67.6754 41.6714 67.6827 47.1152 65.3579Z" fill="#222222"/>
<path d="M20.0554 11.1551C18.2935 12.6879 16.6069 14.1546 14.8074 15.7094C13.7759 14.272 12.6766 12.9372 11.8182 11.4705C11.0276 10.1211 11.6525 8.35365 12.9853 7.4516C14.3933 6.50555 16.238 6.64489 17.39 7.89162C18.3161 8.90368 19.1218 10.0037 20.0554 11.1551Z" fill="#222222"/>
<path d="M59.6523 10.1792C60.5258 9.09386 61.2862 8.0378 62.1747 7.07708C63.3945 5.75701 65.45 5.65434 66.8731 6.74707C68.266 7.81779 68.635 9.73189 67.6486 11.206C66.858 12.3794 65.962 13.4868 65.0585 14.7042C63.259 13.1934 61.5046 11.7267 59.6523 10.1792Z" fill="#222222"/>
</svg>
