<svg width="110" height="123" viewBox="0 0 110 123" fill="none" xmlns="http://www.w3.org/2000/svg">
<path fill-rule="evenodd" clip-rule="evenodd" d="M48.0166 1.87458C52.3327 -0.624859 57.6673 -0.624862 61.9834 1.87458L103.11 25.6903C107.376 28.161 110 32.6995 110 37.6079V85.3921C110 90.3005 107.376 94.839 103.11 97.3097L61.9834 121.125C57.6673 123.625 52.3327 123.625 48.0166 121.125L6.89047 97.3097C2.62409 94.839 0 90.3005 0 85.3921V37.6079C0 32.6995 2.62408 28.161 6.89047 25.6903L48.0166 1.87458ZM57.9929 8.68459C56.1431 7.6134 53.8569 7.6134 52.0071 8.68459L10.881 32.5004C9.05254 33.5592 7.92793 35.5043 7.92793 37.6079V85.3921C7.92793 87.4957 9.05254 89.4408 10.881 90.4996L52.0071 114.315C53.8569 115.387 56.1431 115.387 57.9929 114.315L99.119 90.4996C100.947 89.4408 102.072 87.4957 102.072 85.3921V37.6079C102.072 35.5043 100.947 33.5592 99.119 32.5004L57.9929 8.68459Z" fill="#E16428"/>
<path d="M42.9467 30C43.4272 30.1369 43.9152 30.2358 44.3809 30.4108C47.449 31.5442 49.2529 34.7162 48.7132 38.01C48.1809 41.2429 45.3642 43.6771 42.1482 43.6847C38.9249 43.6847 36.1821 41.2962 35.6202 37.9872C34.9918 34.2903 37.4315 30.7303 41.0023 30.1065C41.1132 30.0913 41.2167 30.0304 41.3202 30C41.8673 30 42.407 30 42.9467 30Z" fill="#222222"/>
<path d="M43.6477 67.091C42.4426 66.414 42.1469 65.2806 42.1099 63.9418C41.9916 59.758 41.8364 55.5666 41.659 51.3829C41.6146 50.2494 41.9547 49.3518 42.7088 48.5379C45.4959 45.5256 48.2609 42.4752 51.0333 39.4325C52.3936 37.9415 54.0348 37.9111 55.4321 39.3488C58.9956 43.0077 62.5812 46.6438 66.115 50.3407C67.5419 51.8393 68.2886 53.7029 68.3034 55.8177C68.3181 59.0962 68.3034 62.3672 68.3107 65.6457C68.3107 65.9576 68.3477 66.2847 68.4364 66.5814C68.88 68.0799 69.331 69.5708 69.8189 71.0542C69.9076 71.3356 70.1073 71.6171 70.3216 71.8149C74.6244 75.6792 78.9123 79.5663 83.2594 83.3773C84.7232 84.6553 85.5069 86.5341 84.0579 88.6717C84.2279 88.6945 84.3684 88.7173 84.5088 88.7249C85.3221 88.7325 86.1279 88.7097 86.9411 88.7401C87.5547 88.7629 87.9688 89.2041 87.9983 89.7899C88.0279 90.3756 87.6656 90.8396 87.0668 90.9613C86.9337 90.9918 86.8007 90.9918 86.6676 90.9918C83.8878 90.9918 81.108 91.0146 78.3357 90.9841C76.8127 90.9689 75.615 90.3147 74.9349 88.8466C74.6096 88.1392 74.7648 87.5154 75.3267 87.1959C75.896 86.8688 76.48 87.0894 76.8718 87.7664C77.3746 88.6488 77.8034 88.839 78.9789 88.6412C78.7719 88.4511 78.6092 88.2989 78.4466 88.1468C74.1512 84.3053 69.8707 80.4487 65.5532 76.63C64.6142 75.7933 63.9637 74.8576 63.6162 73.6177C63.0691 71.6399 62.4259 69.6849 61.7901 67.6235C59.8679 69.4187 57.9975 71.1683 56.0162 73.0168C56.201 73.1461 56.3636 73.2297 56.4893 73.3515C60.1045 76.843 63.6901 80.365 67.3423 83.8185C68.7765 85.1725 69.6193 86.6102 68.7026 88.7249C69.2792 88.7249 69.7746 88.7097 70.2625 88.7325C70.9353 88.7629 71.3862 89.2194 71.401 89.8355C71.4158 90.4136 70.9796 90.9765 70.3586 90.9765C67.1944 90.9765 64.0302 91.007 60.8734 90.87C59.5722 90.8168 58.6851 89.8659 58.2193 88.5956C58.0049 88.0175 58.2415 87.4546 58.7516 87.1883C59.2543 86.9221 59.8901 87.059 60.1489 87.6219C60.6442 88.7249 61.5018 88.839 62.6329 88.5652C62.4555 88.4282 62.2633 88.3141 62.1006 88.162C57.7831 83.9934 53.4656 79.8173 49.1407 75.6487C48.2239 74.7663 47.7434 73.7242 47.9208 72.4082C48.0465 71.4726 48.5492 70.7727 49.2072 70.1566C52.2383 67.3344 55.2695 64.5047 58.3598 61.6141C57.4061 60.6784 56.4671 59.7504 55.4987 58.7995C55.3582 58.9365 55.2325 59.0506 55.1142 59.1799C52.7928 61.6445 50.4714 64.1091 48.15 66.589C47.6029 67.1747 46.9967 67.6235 46.1761 67.7224C46.0134 67.7452 45.8064 67.9354 45.7325 68.0951C43.2928 73.2678 40.8679 78.4481 38.443 83.6207C38.3986 83.712 38.3617 83.8033 38.3321 83.8946C37.9772 85.2334 37.334 85.7582 35.9885 85.7658C34.813 85.7735 33.6375 85.7735 32.4547 85.7658C31.9002 85.7582 31.3457 85.6746 31.0943 85.0736C30.8504 84.4879 31.1165 83.9858 31.4714 83.5446C32.2033 82.6546 33.1496 82.1602 34.2733 82.0689C34.9461 82.0157 35.6263 82.0841 36.299 82.0537C36.4838 82.0461 36.75 81.9168 36.8239 81.7646C39.1084 76.9343 41.3706 72.0963 43.6403 67.2508C43.6477 67.2355 43.6477 67.2127 43.6477 67.091ZM47.4699 58.7159C48.3496 57.9019 49.3033 57.0424 50.2275 56.1447C50.4197 55.9546 50.5453 55.6047 50.5527 55.3232C50.5823 53.1857 50.5675 51.0406 50.5675 48.8954C50.5675 48.7509 50.5453 48.5987 50.5232 48.3325C49.4216 49.542 48.394 50.6602 47.3737 51.7936C47.2924 51.8849 47.2407 52.0447 47.2481 52.1664C47.3146 54.418 47.3959 56.6772 47.4699 58.7159Z" fill="#222222"/>
<path d="M34.636 90.4511C33.845 90.4511 33.0613 90.4663 32.2703 90.4435C31.5014 90.4283 31.0356 90.0023 31.0208 89.3405C31.0061 88.6635 31.4792 88.1842 32.2703 88.169C33.8672 88.1462 35.464 88.1462 37.0609 88.169C37.8446 88.1766 38.3325 88.6711 38.3177 89.3405C38.303 89.9947 37.8298 90.4207 37.0609 90.4435C36.2477 90.4663 35.4419 90.4511 34.636 90.4511Z" fill="#222222"/>
</svg>
