<svg viewBox="0 0 110 123" fill="none" xmlns="http://www.w3.org/2000/svg">
<path fill-rule="evenodd" clip-rule="evenodd" d="M48.0166 1.87458C52.3327 -0.624859 57.6673 -0.624862 61.9834 1.87458L103.11 25.6903C107.376 28.161 110 32.6995 110 37.6079V85.3921C110 90.3005 107.376 94.839 103.11 97.3097L61.9834 121.125C57.6673 123.625 52.3327 123.625 48.0166 121.125L6.89047 97.3097C2.62409 94.839 0 90.3005 0 85.3921V37.6079C0 32.6995 2.62408 28.161 6.89047 25.6903L48.0166 1.87458ZM57.9929 8.68459C56.1431 7.6134 53.8569 7.6134 52.0071 8.68459L10.881 32.5004C9.05254 33.5592 7.92793 35.5043 7.92793 37.6079V85.3921C7.92793 87.4957 9.05254 89.4408 10.881 90.4996L52.0071 114.315C53.8569 115.387 56.1431 115.387 57.9929 114.315L99.119 90.4996C100.947 89.4408 102.072 87.4957 102.072 85.3921V37.6079C102.072 35.5043 100.947 33.5592 99.119 32.5004L57.9929 8.68459Z" fill="#E16428"/>
<path d="M25 48.2346C25 46.8093 25.3106 45.2225 26.0466 43.9854C26.5058 43.2122 27.9981 41.928 28.3965 43.5686C28.4438 43.7568 28.437 43.9585 28.437 44.1535C28.437 51.0988 28.437 58.0442 28.437 64.9963C28.437 65.1173 28.4438 65.2316 28.4302 65.3526C28.3897 65.8098 28.1737 66.146 27.7347 66.2939C27.3026 66.4351 26.9177 66.3208 26.6138 65.9644C25.8441 65.0769 25.3444 64.0684 25.1148 62.9187C25.1148 62.9187 25.1148 62.9187 25.1148 62.912C25.0473 62.5758 25 62.2329 25 61.89C25 57.3382 25 52.7864 25 48.2346Z" fill="#222222"/>
<path d="M51.6993 59.4156C51.8613 59.5635 51.9829 59.6845 52.1179 59.7921C54.0154 61.4124 55.1093 63.4429 55.2308 65.9575C55.2646 66.6366 55.6022 67.0131 56.1626 67.0467C56.8109 67.0871 57.3173 66.6299 57.243 65.9306C57.1417 64.9893 56.9729 64.0615 56.7704 63.1336C56.6151 62.421 56.7298 62.2058 57.4456 62.2058C61.416 62.1991 65.3865 62.1991 69.3569 62.2058C70.255 62.2058 70.5454 62.5823 70.6332 63.4698C70.8155 65.3188 70.3563 66.9727 69.3569 68.5259C68.0875 70.4958 67.5946 72.6541 67.6621 75.0073C67.7566 78.1875 67.6891 81.3677 67.6823 84.5546C67.6823 85.7043 67.3852 86.0002 66.2508 86.0002C59.8765 86.0002 53.5089 86.0002 47.1346 86.0002C46.0272 86.0002 45.7166 85.6976 45.7166 84.6017C45.7166 81.482 45.6896 78.3556 45.7233 75.2359C45.7436 73.3197 45.1291 71.6792 43.8867 70.2404C43.0966 69.326 42.2998 68.4116 41.5841 67.4501C40.5374 66.0516 40.0107 64.4447 40.004 62.6966C39.9905 60.0274 39.9837 57.3582 40.004 54.6957C40.0175 52.645 41.5638 51.1255 43.6436 51.1121C46.6619 51.0986 49.6803 51.0986 52.6919 51.0986C54.8189 51.0986 56.0411 52.5173 55.6832 54.615C55.3186 56.8069 54.1099 58.3667 52.0504 59.2542C51.9491 59.2945 51.8478 59.3483 51.6993 59.4156Z" fill="#222222"/>
<path d="M30.4695 54.5209C30.4695 49.1421 30.4695 43.7701 30.4695 38.3913C30.4695 36.2331 31.6917 35.0161 33.8659 35.0161C34.3589 35.0161 34.8586 35.0027 35.3515 35.0228C37.0193 35.0766 38.3158 36.3675 38.3361 38.035C38.3563 40.2066 38.3428 42.385 38.3428 44.5567C38.3428 53.2569 38.3428 61.9503 38.3428 70.6505C38.3428 72.9163 37.1274 74.1198 34.8518 74.1265C34.4332 74.1265 34.0145 74.1333 33.6026 74.1265C31.7389 74.0728 30.4762 72.8087 30.4762 70.9531C30.4627 65.4667 30.4695 59.9938 30.4695 54.5209Z" fill="#222222"/>
<path d="M80.5186 54.541C80.5186 59.9399 80.5186 65.3322 80.5186 70.7311C80.5186 72.8826 79.2897 74.113 77.1221 74.113C76.5279 74.113 75.9269 74.1399 75.3395 74.066C73.7459 73.871 72.6587 72.6339 72.652 71.0337C72.6385 68.1493 72.6452 65.2649 72.6452 62.3738C72.6452 54.3863 72.6452 46.3989 72.6452 38.4181C72.6452 36.2262 73.8674 35.0093 76.0755 35.0093C76.69 35.0093 77.3112 34.969 77.9189 35.0564C79.4855 35.285 80.5119 36.5355 80.5186 38.1761C80.5186 43.6288 80.5186 49.0882 80.5186 54.541Z" fill="#222222"/>
<path d="M82.5508 54.5477C82.5508 51.0515 82.5508 47.5553 82.5508 44.0591C82.5508 43.5481 82.6521 43.0976 83.1585 42.8758C83.6582 42.6606 84.0768 42.8085 84.428 43.2187C85.3801 44.3415 85.9608 45.6391 85.9743 47.1048C86.008 52.06 86.008 57.022 85.9743 61.9839C85.9675 63.4294 85.4071 64.7069 84.4887 65.8364C84.1511 66.2466 83.7595 66.4617 83.2395 66.2802C82.7196 66.0986 82.5508 65.6818 82.5508 65.1574C82.5508 61.6208 82.5508 58.0843 82.5508 54.5477Z" fill="#222222"/>
<path d="M65.5212 50.6477C65.5212 49.0676 65.5212 47.4876 65.5212 45.9009C65.5212 45.047 65.7846 44.7377 66.6354 44.5696C67.6618 44.3679 68.6071 44.6033 69.4646 45.1748C70.2344 45.6857 70.6666 46.3312 70.6396 47.333C70.572 49.6459 70.6396 51.9587 70.5991 54.2716C70.5923 54.6817 70.4032 55.1726 70.1331 55.4818C69.1945 56.5778 67.9454 56.9274 66.5341 56.6853C65.8318 56.5643 65.528 56.1878 65.528 55.4415C65.5145 53.8548 65.5212 52.2478 65.5212 50.6477Z" fill="#222222"/>
<path d="M63.4887 48.8934C63.4887 50.5138 63.4955 52.1341 63.4887 53.7545C63.4887 54.5142 63.2456 54.9042 62.4961 54.9916C61.7871 55.0723 61.0443 55.0185 60.3286 54.9244C59.8221 54.8571 59.5588 54.4403 59.5588 53.936C59.552 50.5743 59.552 47.2193 59.5588 43.8575C59.5588 43.3196 59.8559 42.9095 60.3826 42.849C61.0781 42.7683 61.8006 42.7145 62.4961 42.8087C63.2591 42.9095 63.4819 43.2726 63.4887 44.0391C63.4887 45.6527 63.4887 47.273 63.4887 48.8934Z" fill="#222222"/>
<path d="M62.7593 60.1818C60.4365 60.1818 58.1137 60.1886 55.7908 60.1751C55.5747 60.1751 55.3587 60.0608 55.1426 59.9936C55.2439 59.7986 55.3181 59.5902 55.4397 59.4019C56.0407 58.4606 56.6956 57.5462 57.2493 56.5781C57.5937 55.9729 57.722 55.8721 58.3365 56.2352C59.5857 56.9815 60.9294 57.3109 62.3812 57.0689C62.8471 56.9882 63.1848 57.1159 63.5629 57.4185C65.3861 58.8842 67.4118 59.1733 69.5928 58.3262C70.3694 58.0236 70.6057 58.1715 70.6125 58.9985C70.6125 59.1397 70.6057 59.2742 70.6125 59.4154C70.653 59.9734 70.3964 60.1886 69.8359 60.1886C67.4793 60.1751 65.1227 60.1818 62.7593 60.1818Z" fill="#222222"/>
<path d="M51.4358 45.9617C51.4358 46.5937 51.4426 47.2257 51.4358 47.8577C51.4223 48.6578 51.0712 49.0344 50.2811 49.0478C49.0117 49.068 47.7422 49.068 46.4727 49.0478C45.703 49.0344 45.3383 48.678 45.3518 47.9048C45.3653 47.1383 45.3316 46.345 45.5206 45.6121C46.0743 43.4471 48.3567 42.21 50.504 42.8219C51.1995 43.0236 51.4291 43.3261 51.4358 44.0657C51.4358 44.6977 51.4358 45.3297 51.4358 45.9617Z" fill="#222222"/>
<path d="M57.5271 46.0223C57.5271 47.051 57.5676 48.0797 57.5068 49.1017C57.4866 49.4446 57.2705 49.9286 57.0004 50.0564C56.7033 50.2043 56.2171 50.1035 55.8525 49.9757C55.319 49.7874 54.8329 49.4513 54.3062 49.2496C53.7525 49.0411 53.4621 48.705 53.4689 48.1066C53.4756 46.3719 53.4756 44.6305 53.4689 42.8959C53.4689 42.2975 53.7457 41.847 54.3197 41.7865C55.1097 41.7058 55.9268 41.7126 56.7168 41.8C57.2637 41.8605 57.5338 42.3042 57.5271 42.8757C57.5203 43.9313 57.5203 44.9734 57.5271 46.0223Z" fill="#222222"/>
</svg>
