<svg viewBox="0 0 110 123" fill="none" xmlns="http://www.w3.org/2000/svg">
<path fill-rule="evenodd" clip-rule="evenodd" d="M48.0166 1.87458C52.3327 -0.624859 57.6673 -0.624862 61.9834 1.87458L103.11 25.6903C107.376 28.161 110 32.6995 110 37.6079V85.3921C110 90.3005 107.376 94.839 103.11 97.3097L61.9834 121.125C57.6673 123.625 52.3327 123.625 48.0166 121.125L6.89047 97.3097C2.62409 94.839 0 90.3005 0 85.3921V37.6079C0 32.6995 2.62408 28.161 6.89047 25.6903L48.0166 1.87458ZM57.9929 8.68459C56.1431 7.6134 53.8569 7.6134 52.0071 8.68459L10.881 32.5004C9.05254 33.5592 7.92793 35.5043 7.92793 37.6079V85.3921C7.92793 87.4957 9.05254 89.4408 10.881 90.4996L52.0071 114.315C53.8569 115.387 56.1431 115.387 57.9929 114.315L99.119 90.4996C100.947 89.4408 102.072 87.4957 102.072 85.3921V37.6079C102.072 35.5043 100.947 33.5592 99.119 32.5004L57.9929 8.68459Z" fill="#E16428"/>
<path d="M25 49.4193C25.3514 48.4426 25.9083 47.6555 26.9227 47.619C27.4531 47.5972 28.0564 47.7575 28.5205 48.049C30.0056 48.9892 31.4376 50.0388 32.9095 51.0154C33.1084 51.1466 33.4796 51.1685 33.6852 51.0591C35.3692 50.17 37.0399 49.237 38.7106 48.3041C38.8963 48.2021 39.0819 48.049 39.1946 47.8668C40.6797 45.4471 42.1515 43.0201 43.6234 40.593C43.6764 40.5129 43.7029 40.4108 43.7759 40.2432C42.2841 40.2432 40.8653 40.2359 39.4532 40.2578C39.2941 40.2578 39.1084 40.4327 38.9758 40.5712C38.1007 41.5187 37.2388 42.488 36.3636 43.4355C35.3625 44.5288 33.9835 44.5871 33.0818 43.5958C32.1537 42.5755 32.2001 41.1105 33.2078 39.9881C34.3614 38.7053 35.5283 37.4372 36.6819 36.1617C37.1791 35.6151 37.7559 35.3454 38.4653 35.3527C40.6134 35.3673 42.7615 35.3673 44.9096 35.3527C45.7317 35.3454 46.4212 35.6661 46.8588 36.4314C48.2577 38.8803 49.6301 41.351 50.9693 43.7416C49.8687 44.8932 48.8013 46.0156 47.6809 47.189C47.2566 46.4456 46.8389 45.7095 46.3682 44.8859C45.5195 46.2853 44.6974 47.6409 43.8355 49.0621C44.3129 49.3318 44.7571 49.5869 45.2809 49.8784C44.1074 51.0373 43.398 52.4439 43.3051 54.2442C42.4897 53.7996 41.7339 53.4133 41.0046 52.976C40.693 52.7938 40.4543 52.8083 40.1427 52.9833C38.2333 54.0547 36.304 55.0823 34.3946 56.1537C33.473 56.6712 32.6178 56.6275 31.7426 56.0079C30.0056 54.7835 28.2486 53.5736 26.4851 52.3929C25.8088 51.941 25.2718 51.4017 25.0066 50.5708C25 50.1918 25 49.8055 25 49.4193Z" fill="#222222"/>
<path d="M64.4682 58.4856C63.2947 60.417 62.161 62.2828 61.0007 64.1997C61.1665 64.3017 61.3057 64.4038 61.4582 64.4839C63.5532 65.6355 65.635 66.8016 67.7433 67.9313C68.5721 68.3759 69.1621 69.01 69.5732 69.9211C71.2174 73.5725 72.8948 77.2022 74.539 80.8536C75.4473 82.8725 74.5456 85.1028 72.6362 85.6712C71.2174 86.094 69.7986 85.3724 69.0826 83.82C67.6041 80.6058 66.1522 77.3771 64.6604 74.1702C64.5079 73.8422 64.2096 73.5215 63.9113 73.3539C61.6041 72.0493 59.277 70.7957 56.9698 69.4983C56.6582 69.3234 56.4195 69.3234 56.1079 69.4983C53.4095 70.9997 50.6979 72.4647 48.0061 73.9661C46.7995 74.6366 45.6724 74.6002 44.5188 73.7985C41.8669 71.9472 39.1884 70.1397 36.5298 68.2958C35.416 67.5232 34.9254 66.3716 35.1044 64.9431C35.2767 63.6239 35.9795 62.7201 37.1331 62.2756C38.0812 61.9111 38.9762 62.0788 39.8182 62.6618C41.9 64.0976 43.9951 65.5116 46.0702 66.962C46.415 67.2025 46.6735 67.2025 47.0249 67.0057C49.3586 65.7084 51.699 64.4329 54.0327 63.1429C54.2515 63.019 54.4769 62.8513 54.6095 62.6327C56.6913 59.229 58.7532 55.8181 60.8217 52.4144C60.8549 52.3634 60.8681 52.2978 60.9278 52.1666C60.7422 52.1447 60.5831 52.1156 60.4239 52.1156C58.667 52.1156 56.9101 52.101 55.1532 52.1374C54.9012 52.1447 54.5963 52.3051 54.4106 52.5018C53.0979 53.9085 51.8183 55.3589 50.499 56.7655C49.4183 57.9098 47.8271 58.0119 46.6271 57.0644C45.4404 56.1315 45.0094 54.3822 45.6525 52.9319C45.8315 52.5383 46.0901 52.1666 46.3752 51.8532C47.9664 50.0821 49.5774 48.3329 51.1752 46.5618C51.8714 45.7893 52.6868 45.403 53.688 45.4103C56.5985 45.4321 59.509 45.4321 62.4195 45.4103C63.7389 45.403 64.6936 46.0079 65.3765 47.2324C67.5643 51.1681 69.7787 55.0819 71.96 59.0249C72.1986 59.455 72.4373 59.5351 72.855 59.4404C75.4141 58.8646 77.9733 58.2888 80.5457 57.7495C82.1567 57.4069 83.675 58.5731 84.033 60.3733C84.3711 62.0569 83.423 63.8498 81.8584 64.2434C79.4053 64.8556 76.9324 65.3658 74.466 65.9052C73.4517 66.1311 72.4373 66.3498 71.4229 66.5538C69.9909 66.8454 68.8969 66.2696 68.1345 64.9358C67.0339 63.0117 65.9599 61.0657 64.8726 59.1343C64.7466 58.9375 64.6273 58.748 64.4682 58.4856Z" fill="#222222"/>
<path d="M67.1916 88.9952C61.7816 88.9952 56.3716 88.9952 50.9616 88.9952C50.7694 88.9952 50.5705 89.0025 50.3782 88.9879C49.8213 88.9369 49.4169 88.4777 49.4102 87.9019C49.4036 87.3334 49.808 86.8451 50.3517 86.7868C50.5042 86.7722 50.6633 86.7795 50.8224 86.7795C61.7418 86.7795 72.6547 86.7795 83.5741 86.7795C83.7531 86.7795 83.9255 86.7649 84.0979 86.7941C84.615 86.867 84.9929 87.3334 84.9995 87.8801C85.0061 88.4631 84.615 88.9369 84.0647 88.9879C83.8724 89.0098 83.6735 88.9952 83.4813 88.9952C78.0448 88.9952 72.6149 88.9952 67.1916 88.9952Z" fill="#222222"/>
<path d="M66.709 44.8425C66.709 42.051 68.7576 39.8062 71.2902 39.8135C73.8162 39.8208 75.8715 42.0948 75.8516 44.8716C75.8383 47.6193 73.7963 49.8496 71.2902 49.8715C68.7709 49.886 66.709 47.6266 66.709 44.8425Z" fill="#222222"/>
<path d="M51.44 32C53.1307 32 54.4964 33.4868 54.5031 35.3308C54.5097 37.1602 53.1174 38.6907 51.4533 38.698C49.7826 38.7053 48.4102 37.1893 48.4102 35.3454C48.4035 33.4723 49.7362 32.0073 51.44 32Z" fill="#222222"/>
<path d="M49.5965 63.0921C49.1126 62.028 48.6683 61.0368 48.1777 59.9654C49.8087 59.9289 51.1546 59.324 52.2551 57.9902C52.6264 58.7992 53.0109 59.5208 53.2695 60.3006C53.3491 60.5339 53.1701 61.0732 52.9712 61.1898C51.8772 61.8676 50.7369 62.458 49.5965 63.0921Z" fill="#222222"/>
<path d="M45.3408 88.9882C44.9895 88.9882 44.6381 89.0028 44.2867 88.9809C43.7298 88.9445 43.3254 88.4926 43.3055 87.9168C43.2856 87.3483 43.69 86.8162 44.227 86.7871C44.9696 86.7506 45.7121 86.7506 46.448 86.7871C46.9917 86.8162 47.3829 87.341 47.3696 87.9168C47.3497 88.4999 46.9519 88.9445 46.3884 88.9809C46.0436 89.0028 45.6922 88.9882 45.3408 88.9882Z" fill="#222222"/>
</svg>
