<svg viewBox="0 0 110 123" fill="none" xmlns="http://www.w3.org/2000/svg">
<path fill-rule="evenodd" clip-rule="evenodd" d="M48.0166 1.87458C52.3327 -0.624859 57.6673 -0.624862 61.9834 1.87458L103.11 25.6903C107.376 28.161 110 32.6995 110 37.6079V85.3921C110 90.3005 107.376 94.839 103.11 97.3097L61.9834 121.125C57.6673 123.625 52.3327 123.625 48.0166 121.125L6.89047 97.3097C2.62409 94.839 0 90.3005 0 85.3921V37.6079C0 32.6995 2.62408 28.161 6.89047 25.6903L48.0166 1.87458ZM57.9929 8.68459C56.1431 7.6134 53.8569 7.6134 52.0071 8.68459L10.881 32.5004C9.05254 33.5592 7.92793 35.5043 7.92793 37.6079V85.3921C7.92793 87.4957 9.05254 89.4408 10.881 90.4996L52.0071 114.315C53.8569 115.387 56.1431 115.387 57.9929 114.315L99.119 90.4996C100.947 89.4408 102.072 87.4957 102.072 85.3921V37.6079C102.072 35.5043 100.947 33.5592 99.119 32.5004L57.9929 8.68459Z" fill="#E16428"/>
<path d="M80.2303 38.7676C78.3103 41.305 76.4279 43.7912 74.5455 46.2773C64.8701 59.0453 55.1872 71.8133 45.5269 84.596C45.0902 85.1754 44.6385 85.4027 43.9081 85.388C41.589 85.344 39.2699 85.3734 36.8906 85.3734C36.8906 81.1492 36.8906 76.9983 36.8906 72.7447C38.5546 72.7447 40.2036 72.6127 41.8224 72.7814C43.6069 72.9647 44.646 72.29 45.7227 70.9259C55.2023 58.8693 64.7723 46.886 74.3121 34.8734C74.4702 34.6754 74.6359 34.492 74.8392 34.25C76.6463 35.7534 78.4157 37.2422 80.2303 38.7676Z" fill="#222222"/>
<path d="M54.5632 57.5714C52.9218 59.6322 51.318 61.6563 49.6615 63.7318C43.6229 55.7087 37.652 47.7589 31.6435 39.7652C33.3903 38.2471 35.0995 36.7657 36.884 35.2183C42.7871 42.684 48.6601 50.1057 54.5632 57.5714Z" fill="#222222"/>
<path d="M74.0259 84.9996C73.4085 84.9996 72.8212 84.9996 72.2339 84.9996C70.3365 84.9996 68.4315 84.9849 66.5341 85.0069C65.9393 85.0143 65.5327 84.8456 65.1712 84.3689C62.3552 80.592 59.5166 76.8445 56.7006 73.0676C56.55 72.8623 56.4521 72.4076 56.5726 72.2389C58.0709 70.2001 59.622 68.1907 61.2107 66.1006C62.4456 67.67 63.7708 69.1221 64.8174 70.7428C65.7962 72.2536 66.9783 72.8036 68.7779 72.6349C70.4871 72.4736 72.2264 72.5983 74.0184 72.5983C74.0259 76.7272 74.0259 80.8194 74.0259 84.9996Z" fill="#222222"/>
<path d="M35.4078 85.213C33.2544 85.213 31.1235 85.4697 29.0906 85.1544C25.8153 84.6483 23.6844 81.5388 24.0383 78.312C24.3771 75.2612 27.1254 72.819 30.3405 72.7604C32.0045 72.731 33.676 72.753 35.4078 72.753C35.4078 76.9553 35.4078 81.1061 35.4078 85.213Z" fill="#222222"/>
<path d="M75.4873 84.9834C75.4873 80.8179 75.4873 76.7696 75.4873 72.5821C77.6407 72.7068 79.7942 72.2447 81.8798 72.9854C84.6582 73.9755 86.3524 76.799 85.9382 79.6445C85.509 82.5633 83.077 84.7854 79.9899 84.9687C78.5217 85.0567 77.0459 84.9834 75.4873 84.9834Z" fill="#222222"/>
<path d="M50.4893 83.0638C53.6271 82.4212 56.8947 82.6461 60.0372 83.2656C60.2127 83.3002 60.3883 83.3356 60.5637 83.3718C61.1284 83.4892 61.6781 83.7898 62.1599 84.1125C63.4625 84.9926 63.5152 86.3567 62.1599 87.134C61.1359 87.7207 59.9538 88.1461 58.7792 88.3661C55.7147 88.9601 52.6352 88.9088 49.6234 87.9921C48.9306 87.7867 48.2455 87.4494 47.6732 87.0313C46.5438 86.21 46.5287 84.9706 47.7109 84.2152C48.5466 83.6872 49.5179 83.2765 50.4893 83.0638Z" fill="#222222"/>
<path d="M63.1152 88.3579C63.1152 89.1133 63.1905 89.9127 63.1001 90.6901C62.9721 91.7681 62.1665 92.4428 61.2177 92.7508C59.6742 93.2495 58.078 93.6822 56.4666 93.8876C54.2906 94.1662 52.1071 93.9169 50.0064 93.2569C49.3664 93.0588 48.7489 92.7508 48.1692 92.4208C47.243 91.8928 46.7687 91.0934 46.8365 90.008C46.8741 89.458 46.844 88.908 46.844 88.3433C52.2727 90.6754 57.6714 90.6827 63.1152 88.3579Z" fill="#222222"/>
<path d="M36.0554 34.1551C34.2935 35.6879 32.6069 37.1546 30.8074 38.7094C29.7759 37.272 28.6766 35.9372 27.8182 34.4705C27.0276 33.1211 27.6525 31.3536 28.9853 30.4516C30.3933 29.5055 32.238 29.6449 33.39 30.8916C34.3161 31.9037 35.1218 33.0037 36.0554 34.1551Z" fill="#222222"/>
<path d="M75.6523 33.1792C76.5258 32.0939 77.2862 31.0378 78.1747 30.0771C79.3945 28.757 81.45 28.6543 82.8731 29.7471C84.2661 30.8178 84.635 32.7319 83.6486 34.206C82.858 35.3794 81.962 36.4868 81.0585 37.7042C79.259 36.1934 77.5046 34.7267 75.6523 33.1792Z" fill="#222222"/>
</svg>
