<svg width="110" height="123" viewBox="0 0 110 123" fill="none" xmlns="http://www.w3.org/2000/svg">
<path fill-rule="evenodd" clip-rule="evenodd" d="M48.0166 1.87458C52.3327 -0.624859 57.6673 -0.624862 61.9834 1.87458L103.11 25.6903C107.376 28.161 110 32.6995 110 37.6079V85.3921C110 90.3005 107.376 94.839 103.11 97.3097L61.9834 121.125C57.6673 123.625 52.3327 123.625 48.0166 121.125L6.89047 97.3097C2.62409 94.839 0 90.3005 0 85.3921V37.6079C0 32.6995 2.62408 28.161 6.89047 25.6903L48.0166 1.87458ZM57.9929 8.68459C56.1431 7.6134 53.8569 7.6134 52.0071 8.68459L10.881 32.5004C9.05254 33.5592 7.92793 35.5043 7.92793 37.6079V85.3921C7.92793 87.4957 9.05254 89.4408 10.881 90.4996L52.0071 114.315C53.8569 115.387 56.1431 115.387 57.9929 114.315L99.119 90.4996C100.947 89.4408 102.072 87.4957 102.072 85.3921V37.6079C102.072 35.5043 100.947 33.5592 99.119 32.5004L57.9929 8.68459Z" fill="#E16428"/>
<path d="M79.3057 51.1691C77.7116 55.2026 74.997 58.1259 71.5004 60.4342C73.1246 61.3607 74.6511 62.2313 76.1701 63.1019C74.2676 66.4086 67.7406 70.0028 63.8905 69.835C64.0184 69.1002 64.1763 68.3734 64.259 67.6386C64.6049 64.7073 64.0409 62.1115 61.943 59.9869C59.9503 57.9662 58.0102 55.8815 56.0852 53.7809C54.1752 51.6883 51.8291 51.0972 49.2048 51.4247C48.3475 51.5285 47.4978 51.7602 46.6481 51.9359C46.0014 49.0046 49.0318 42.543 52.5585 39.4121C53.506 40.8737 54.4534 42.3274 55.4535 43.8689C57.9576 39.1485 61.5144 35.9137 66.5299 34.5958C66.6277 35.9936 66.7254 37.3913 66.8307 38.845C66.936 38.797 67.0112 38.7811 67.0488 38.7411C68.9136 36.8322 71.2297 36.0335 73.7112 35.5942C74.621 35.4345 75.5159 35.1789 76.4107 34.9393C77.7417 34.5878 78.7719 33.6613 79.8622 32.8466C80.2081 32.591 80.554 32.3275 80.9901 32C81.0277 35.2108 81.0052 38.3018 80.0351 41.297C79.0576 44.3082 77.4334 46.8561 75.1925 49.0445C76.6062 49.7714 77.9522 50.4662 79.3057 51.1691Z" fill="#222222"/>
<path d="M28 78.5412C28.0526 76.5205 28.7219 74.5636 29.6242 72.6867C31.9553 67.8225 35.3015 63.8449 39.2569 60.4184C41.6556 58.3418 44.2348 56.5846 47.175 55.4983C48.3932 55.0511 49.6339 54.7715 50.9348 54.8594C53.0102 54.9952 54.3186 56.329 54.4766 58.5414C54.6194 60.4584 54.0931 62.2395 53.3862 63.9647C51.7244 68.0302 49.1903 71.4407 46.2651 74.5397C43.731 77.2234 40.9337 79.5396 37.7229 81.2489C35.9633 82.1834 34.1435 82.9342 32.1433 82.9821C30.7898 83.022 29.5641 82.6866 28.7068 81.4486C28.1429 80.6259 28 79.6594 28 78.5412Z" fill="#222222"/>
<path d="M33.4141 86.5521C34.8653 86.0569 36.3166 85.6656 37.6927 85.0825C40.6254 83.8445 43.2121 81.9755 45.6334 79.843C49.8219 76.1529 53.3485 71.8718 55.83 66.6802C56.6873 64.891 57.3415 63.0221 57.6272 61.0173C57.6498 60.8655 57.6949 60.7218 57.755 60.4502C58.9131 61.9598 60.6501 62.8783 60.996 64.9549C61.2667 66.5843 60.9283 68.1498 60.432 69.6753C59.3718 72.9581 57.5896 75.7855 55.5142 78.4212C52.4913 82.271 49.0699 85.6177 44.8514 87.9499C43.1294 88.9004 41.3472 89.7071 39.3922 89.9467C37.8281 90.1384 36.4294 89.8428 35.309 88.5409C34.6924 87.8461 34.0232 87.1991 33.4141 86.5521Z" fill="#222222"/>
</svg>
