<svg width="111" height="123" viewBox="0 0 111 123" fill="none" xmlns="http://www.w3.org/2000/svg">
<path fill-rule="evenodd" clip-rule="evenodd" d="M48.8947 1.87458C53.2032 -0.624859 58.5281 -0.624862 62.8366 1.87458L103.889 25.6903C108.148 28.161 110.767 32.6995 110.767 37.6079V85.3921C110.767 90.3005 108.148 94.839 103.889 97.3097L62.8366 121.125C58.5281 123.625 53.2032 123.625 48.8947 121.125L7.84203 97.3097C3.58327 94.839 0.963867 90.3005 0.963867 85.3921V37.6079C0.963867 32.6995 3.58326 28.161 7.84203 25.6903L48.8947 1.87458ZM58.8532 8.68459C57.0067 7.6134 54.7246 7.6134 52.8781 8.68459L11.8254 32.5004C10.0002 33.5592 8.87764 35.5043 8.87764 37.6079V85.3921C8.87764 87.4957 10.0002 89.4408 11.8254 90.4996L52.8781 114.315C54.7246 115.387 57.0067 115.387 58.8532 114.315L99.9059 90.4996C101.731 89.4408 102.854 87.4957 102.854 85.3921V37.6079C102.854 35.5043 101.731 33.5592 99.9059 32.5004L58.8532 8.68459Z" fill="#E16428"/>
<path d="M82.8174 69.0251C82.5403 70.0742 82.2967 71.1325 81.9691 72.1635C81.6332 73.2218 81.0117 73.6649 79.9786 73.6649C72.9992 73.6649 66.0114 73.665 59.032 73.6559C58.7548 73.6559 58.4441 73.5383 58.2005 73.3936C56.0756 72.1274 54.2111 70.4812 52.6405 68.5095C49.2054 64.2043 44.7708 61.8075 39.7819 60.4056C36.4392 59.4649 33.0377 59.0398 29.5858 58.9584C29.3926 58.9584 29.2078 58.9584 28.9475 58.9584C28.9475 58.6961 28.9475 58.4971 28.9475 58.2891C28.9391 53.3598 28.9223 48.4305 28.9139 43.4921C28.9139 41.9817 29.6194 41.2129 31.0052 41.2129C37.3043 41.2129 43.6034 41.2129 49.9025 41.2129C51.2295 41.2129 51.7922 41.8008 52.0946 43.2117C52.4473 44.8579 52.9093 46.4769 53.3124 48.0868C52.7329 48.738 52.0946 49.4706 51.4479 50.1851C50.7508 50.972 50.7004 52.0212 51.3471 52.7086C52.0022 53.405 52.9597 53.3508 53.6904 52.5729C54.1691 52.0664 54.6394 51.5599 55.1098 51.0534C55.135 51.0263 55.1685 51.0263 55.2105 50.9992C55.2525 51.0263 55.2945 51.0534 55.3365 51.0896C55.8153 51.6323 56.3024 52.184 56.8903 52.8533C56.4788 53.2513 56.0084 53.6764 55.5717 54.1376C54.8494 54.9064 54.8074 55.9646 55.4457 56.652C56.0924 57.3485 57.0583 57.3123 57.789 56.5345C58.3013 55.9918 58.8136 55.4401 59.3176 54.8974C59.326 54.8883 59.3512 54.8793 59.4015 54.8431C60.0315 55.2592 60.6866 55.6843 61.4425 56.1727C61.0477 56.5526 60.6866 56.8782 60.359 57.2399C59.6787 57.9906 59.6703 59.0489 60.3002 59.7182C60.9385 60.3965 61.9044 60.3513 62.6099 59.6096C63.139 59.0579 63.6597 58.4971 64.1721 57.9183C64.3652 57.7012 64.5248 57.6469 64.802 57.7555C69.1778 59.4287 73.5535 61.0839 77.9293 62.7391C78.3745 62.9109 78.8112 63.0918 79.2479 63.2908C80.9949 64.0867 82.4311 65.2082 82.809 67.388C82.8174 67.9668 82.8174 68.5005 82.8174 69.0251Z" fill="#222222"/>
<path d="M38.4887 89.9998C37.3464 89.7375 36.1622 89.6109 35.0704 89.1858C32.3323 88.1366 30.3754 86.1016 29.1576 83.2525C29.0148 82.9269 29.0652 82.7279 29.2752 82.4656C30.6778 80.7743 32.0552 79.0648 33.4662 77.3735C33.609 77.2017 33.8693 77.066 34.0793 77.066C38.6231 77.0479 43.1668 77.0569 47.7106 77.0569C47.9121 77.0569 48.1221 77.0569 48.3405 77.0569C48.3741 77.5725 48.3657 78.0247 48.4413 78.4679C48.836 80.8466 50.5158 82.6013 52.8422 82.7641C55.0259 82.9088 57.2348 82.9269 59.4101 82.7641C62.0389 82.5742 63.7691 80.4939 63.9203 77.6539C63.9287 77.482 63.9371 77.3192 63.9455 77.0569C64.1219 77.0569 64.2898 77.0569 64.4494 77.0569C68.7496 77.0569 73.0414 77.0479 77.3416 77.066C77.5851 77.066 77.8959 77.1926 78.0639 77.3735C79.5337 79.0468 80.9699 80.7562 82.4397 82.4294C82.6748 82.7008 82.7336 82.9179 82.5824 83.2615C80.8271 87.1688 77.9463 89.3486 73.9569 89.8732C73.7469 89.9003 73.5453 89.9455 73.3437 89.9817C61.7282 89.9998 50.1042 89.9998 38.4887 89.9998ZM70.085 81.3803C70.0934 80.4306 69.4215 79.6799 68.548 79.6708C67.6662 79.6618 66.969 80.3854 66.9439 81.326C66.9271 82.2305 67.6494 83.0354 68.4976 83.0535C69.3459 83.0807 70.0766 82.3119 70.085 81.3803ZM41.4283 81.3893C41.4367 82.3209 42.1674 83.0897 43.0156 83.0626C43.8639 83.0354 44.5862 82.2305 44.5694 81.326C44.5526 80.3944 43.8387 79.6618 42.9652 79.6708C42.0834 79.6889 41.4115 80.4306 41.4283 81.3893Z" fill="#222222"/>
<path d="M29.0989 62.3232C30.4259 62.4046 31.7025 62.4499 32.9707 62.5765C36.2379 62.9202 39.4462 63.5985 42.5202 64.91C45.401 66.1401 47.9374 67.8857 49.9867 70.4182C50.8938 71.5397 51.8765 72.5798 52.8339 73.6561C52.7499 73.6561 52.6072 73.6561 52.456 73.6561C46.4928 73.6561 40.5297 73.6471 34.5665 73.6652C33.8358 73.6652 33.2983 73.3938 32.8616 72.7607C30.7535 69.785 29.46 66.4476 29.0989 62.7122C29.0905 62.6308 29.0989 62.5403 29.0989 62.3232Z" fill="#222222"/>
<path d="M45.2421 37.8215C46.0148 34.6106 51.1464 31.6078 55.1359 32.042C54.3212 34.1946 53.5233 36.3291 52.6918 38.527C51.348 37.6406 49.8782 37.8305 48.442 37.8215C47.3838 37.8215 46.3171 37.8215 45.2421 37.8215Z" fill="#222222"/>
<path d="M35.3129 37.7852C33.1796 37.9932 31.0463 37.532 28.9382 38.1289C28.9382 36.112 28.9382 34.086 28.9382 32.069C31.7518 31.7434 35.145 34.7734 35.3129 37.7852Z" fill="#222222"/>
</svg>
