<svg width="78" height="78" viewBox="0 0 78 78" fill="none" xmlns="http://www.w3.org/2000/svg">
<path d="M63.3058 29.1691C61.7116 33.2026 58.9971 36.1259 55.5004 38.4342C57.1247 39.3607 58.6512 40.2313 60.1701 41.1019C58.2677 44.4086 51.7406 48.0028 47.8906 47.835C48.0184 47.1002 48.1764 46.3734 48.2591 45.6386C48.605 42.7073 48.041 40.1115 45.943 37.9869C43.9503 35.9662 42.0103 33.8815 40.0853 31.7809C38.1753 29.6883 35.8292 29.0972 33.2048 29.4247C32.3476 29.5285 31.4979 29.7602 30.6481 29.9359C30.0015 27.0046 33.0319 20.543 36.5586 17.4121C37.506 18.8737 38.4535 20.3274 39.4536 21.8689C41.9576 17.1485 45.5144 13.9137 50.53 12.5958C50.6277 13.9936 50.7255 15.3913 50.8308 16.845C50.936 16.797 51.0112 16.7811 51.0488 16.7411C52.9137 14.8322 55.2297 14.0335 57.7112 13.5942C58.6211 13.4345 59.5159 13.1789 60.4108 12.9393C61.7417 12.5878 62.7719 11.6613 63.8623 10.8466C64.2082 10.591 64.5541 10.3275 64.9902 10C65.0278 13.2108 65.0052 16.3018 64.0352 19.297C63.0577 22.3082 61.4334 24.8561 59.1926 27.0445C60.6063 27.7714 61.9523 28.4662 63.3058 29.1691Z" fill="#222222"/>
<path d="M12 56.5412C12.0526 54.5205 12.7219 52.5636 13.6242 50.6867C15.9553 45.8225 19.3015 41.8449 23.2569 38.4184C25.6556 36.3418 28.2348 34.5846 31.175 33.4983C32.3932 33.0511 33.6339 32.7715 34.9348 32.8594C37.0102 32.9952 38.3186 34.329 38.4766 36.5414C38.6194 38.4584 38.0931 40.2395 37.3862 41.9647C35.7244 46.0302 33.1903 49.4407 30.2651 52.5397C27.731 55.2234 24.9337 57.5396 21.7229 59.2489C19.9633 60.1834 18.1435 60.9342 16.1433 60.9821C14.7898 61.022 13.5641 60.6866 12.7068 59.4486C12.1429 58.6259 12 57.6594 12 56.5412Z" fill="#222222"/>
<path d="M17.4141 64.5521C18.8653 64.0569 20.3166 63.6656 21.6927 63.0825C24.6254 61.8445 27.2121 59.9755 29.6334 57.843C33.8219 54.1529 37.3485 49.8718 39.83 44.6802C40.6873 42.891 41.3415 41.0221 41.6272 39.0173C41.6498 38.8655 41.6949 38.7218 41.755 38.4502C42.9131 39.9598 44.6501 40.8783 44.996 42.9549C45.2667 44.5843 44.9283 46.1498 44.432 47.6753C43.3718 50.958 41.5896 53.7855 39.5142 56.4212C36.4913 60.271 33.0699 63.6177 28.8514 65.9499C27.1294 66.9004 25.3473 67.7071 23.3922 67.9467C21.8281 68.1384 20.4294 67.8428 19.309 66.5409C18.6924 65.8461 18.0232 65.1991 17.4141 64.5521Z" fill="#222222"/>
</svg>
