<svg width="78" height="78" viewBox="0 0 78 78" fill="none" xmlns="http://www.w3.org/2000/svg">
<path d="M9 26.2346C9 24.8093 9.31061 23.2225 10.0466 21.9854C10.5058 21.2122 11.9981 19.928 12.3965 21.5686C12.4438 21.7568 12.437 21.9585 12.437 22.1535C12.437 29.0988 12.437 36.0442 12.437 42.9963C12.437 43.1173 12.4438 43.2316 12.4302 43.3526C12.3897 43.8098 12.1737 44.146 11.7347 44.2939C11.3026 44.4351 10.9177 44.3208 10.6138 43.9644C9.84406 43.0769 9.34438 42.0684 9.11479 40.9187C9.11479 40.9187 9.11479 40.9187 9.11479 40.912C9.04727 40.5758 9 40.2329 9 39.89C9 35.3382 9 30.7864 9 26.2346Z" fill="#222222"/>
<path d="M35.6993 37.4156C35.8613 37.5635 35.9829 37.6845 36.1179 37.7921C38.0154 39.4124 39.1093 41.4429 39.2308 43.9575C39.2646 44.6366 39.6022 45.0131 40.1626 45.0467C40.8109 45.0871 41.3173 44.6299 41.243 43.9306C41.1417 42.9893 40.9729 42.0615 40.7704 41.1336C40.6151 40.421 40.7298 40.2058 41.4456 40.2058C45.4161 40.1991 49.3865 40.1991 53.3569 40.2058C54.255 40.2058 54.5454 40.5823 54.6332 41.4698C54.8155 43.3188 54.3563 44.9728 53.3569 46.5259C52.0875 48.4959 51.5946 50.6541 51.6621 53.0073C51.7566 56.1875 51.6891 59.3677 51.6823 62.5546C51.6823 63.7043 51.3852 64.0002 50.2508 64.0002C43.8765 64.0002 37.5089 64.0002 31.1346 64.0002C30.0272 64.0002 29.7166 63.6976 29.7166 62.6017C29.7166 59.482 29.6896 56.3556 29.7233 53.2359C29.7436 51.3197 29.1291 49.6792 27.8867 48.2404C27.0966 47.326 26.2998 46.4116 25.5841 45.4501C24.5374 44.0516 24.0107 42.4447 24.004 40.6966C23.9905 38.0274 23.9837 35.3582 24.004 32.6957C24.0175 30.645 25.5638 29.1255 27.6436 29.1121C30.6619 29.0986 33.6803 29.0986 36.6919 29.0986C38.8189 29.0986 40.0411 30.5173 39.6832 32.615C39.3186 34.8069 38.1099 36.3667 36.0504 37.2542C35.9491 37.2945 35.8478 37.3483 35.6993 37.4156Z" fill="#222222"/>
<path d="M14.4695 32.5209C14.4695 27.1421 14.4695 21.7701 14.4695 16.3913C14.4695 14.2331 15.6917 13.0161 17.8659 13.0161C18.3589 13.0161 18.8586 13.0027 19.3515 13.0228C21.0193 13.0766 22.3158 14.3675 22.3361 16.0349C22.3563 18.2066 22.3428 20.385 22.3428 22.5567C22.3428 31.2569 22.3428 39.9503 22.3428 48.6505C22.3428 50.9163 21.1274 52.1198 18.8518 52.1265C18.4332 52.1265 18.0145 52.1333 17.6026 52.1265C15.7389 52.0728 14.4762 50.8088 14.4762 48.9531C14.4627 43.4667 14.4695 37.9938 14.4695 32.5209Z" fill="#222222"/>
<path d="M64.5186 32.541C64.5186 37.9399 64.5186 43.3322 64.5186 48.7311C64.5186 50.8826 63.2897 52.113 61.1221 52.113C60.5279 52.113 59.9269 52.1399 59.3395 52.066C57.7459 51.871 56.6587 50.6339 56.652 49.0337C56.6385 46.1493 56.6452 43.2649 56.6452 40.3738C56.6452 32.3863 56.6452 24.3989 56.6452 16.4181C56.6452 14.2262 57.8674 13.0093 60.0755 13.0093C60.69 13.0093 61.3112 12.969 61.9189 13.0564C63.4855 13.285 64.5119 14.5355 64.5186 16.1761C64.5186 21.6288 64.5186 27.0883 64.5186 32.541Z" fill="#222222"/>
<path d="M66.5508 32.5477C66.5508 29.0515 66.5508 25.5553 66.5508 22.0591C66.5508 21.5481 66.6521 21.0976 67.1585 20.8758C67.6582 20.6606 68.0768 20.8085 68.428 21.2187C69.3801 22.3415 69.9608 23.6391 69.9743 25.1048C70.0081 30.06 70.0081 35.022 69.9743 39.9839C69.9675 41.4294 69.4071 42.7069 68.4887 43.8364C68.1511 44.2466 67.7595 44.4617 67.2395 44.2802C66.7196 44.0986 66.5508 43.6818 66.5508 43.1574C66.5508 39.6208 66.5508 36.0843 66.5508 32.5477Z" fill="#222222"/>
<path d="M49.5212 28.6477C49.5212 27.0676 49.5212 25.4876 49.5212 23.9009C49.5212 23.047 49.7846 22.7377 50.6354 22.5696C51.6617 22.3679 52.6071 22.6033 53.4646 23.1748C54.2344 23.6857 54.6666 24.3312 54.6396 25.333C54.572 27.6459 54.6396 29.9587 54.5991 32.2716C54.5923 32.6817 54.4032 33.1726 54.1331 33.4818C53.1945 34.5778 51.9453 34.9274 50.5341 34.6853C49.8318 34.5643 49.528 34.1878 49.528 33.4415C49.5145 31.8548 49.5212 30.2479 49.5212 28.6477Z" fill="#222222"/>
<path d="M47.4887 26.8934C47.4887 28.5138 47.4955 30.1341 47.4887 31.7545C47.4887 32.5142 47.2456 32.9042 46.4961 32.9916C45.7871 33.0723 45.0443 33.0185 44.3286 32.9244C43.8221 32.8571 43.5588 32.4403 43.5588 31.936C43.552 28.5743 43.552 25.2193 43.5588 21.8575C43.5588 21.3196 43.8559 20.9095 44.3826 20.849C45.0781 20.7683 45.8006 20.7145 46.4961 20.8087C47.2591 20.9095 47.4819 21.2726 47.4887 22.0391C47.4887 23.6527 47.4887 25.273 47.4887 26.8934Z" fill="#222222"/>
<path d="M46.7593 38.1818C44.4365 38.1818 42.1137 38.1886 39.7908 38.1751C39.5747 38.1751 39.3587 38.0608 39.1426 37.9936C39.2439 37.7986 39.3181 37.5902 39.4397 37.4019C40.0407 36.4606 40.6956 35.5462 41.2493 34.5781C41.5937 33.9729 41.722 33.8721 42.3365 34.2352C43.5857 34.9815 44.9294 35.3109 46.3812 35.0689C46.8471 34.9882 47.1848 35.1159 47.5629 35.4185C49.3861 36.8842 51.4118 37.1733 53.5928 36.3262C54.3694 36.0236 54.6057 36.1715 54.6125 36.9985C54.6125 37.1397 54.6057 37.2742 54.6125 37.4154C54.653 37.9734 54.3964 38.1886 53.8359 38.1886C51.4793 38.1751 49.1227 38.1818 46.7593 38.1818Z" fill="#222222"/>
<path d="M35.4359 23.9617C35.4359 24.5937 35.4427 25.2257 35.4359 25.8577C35.4224 26.6578 35.0713 27.0343 34.2812 27.0478C33.0118 27.0679 31.7423 27.0679 30.4728 27.0478C29.7031 27.0343 29.3384 26.678 29.3519 25.9048C29.3654 25.1383 29.3317 24.3449 29.5207 23.6121C30.0744 21.4471 32.3568 20.21 34.5041 20.8218C35.1996 21.0235 35.4291 21.3261 35.4359 22.0657C35.4359 22.6977 35.4359 23.3297 35.4359 23.9617Z" fill="#222222"/>
<path d="M41.5271 24.0223C41.5271 25.051 41.5676 26.0797 41.5068 27.1017C41.4866 27.4446 41.2705 27.9286 41.0004 28.0564C40.7033 28.2043 40.2171 28.1035 39.8525 27.9757C39.319 27.7875 38.8329 27.4513 38.3062 27.2496C37.7525 27.0411 37.4621 26.705 37.4689 26.1066C37.4756 24.3719 37.4756 22.6305 37.4689 20.8959C37.4689 20.2975 37.7457 19.847 38.3197 19.7865C39.1097 19.7058 39.9268 19.7126 40.7168 19.8C41.2637 19.8605 41.5338 20.3042 41.5271 20.8757C41.5203 21.9313 41.5203 22.9734 41.5271 24.0223Z" fill="#222222"/>
</svg>
