<svg width="78" height="78" viewBox="0 0 78 78" fill="none" xmlns="http://www.w3.org/2000/svg">
<path d="M66 47.0251C65.7223 48.0742 65.4783 49.1325 65.1502 50.1636C64.8136 51.2218 64.191 51.665 63.1561 51.665C56.1642 51.665 49.1639 51.665 42.172 51.6559C41.8944 51.6559 41.583 51.5383 41.339 51.3936C39.2103 50.1274 37.3425 48.4813 35.7691 46.5095C32.3278 42.2043 27.8853 39.8075 22.8875 38.4056C19.5388 37.4649 16.1312 37.0398 12.6731 36.9584C12.4796 36.9584 12.2945 36.9584 12.0337 36.9584C12.0337 36.6961 12.0337 36.4971 12.0337 36.2891C12.0252 31.3598 12.0084 26.4305 12 21.4921C12 19.9817 12.7068 19.2129 14.095 19.2129C20.4054 19.2129 26.7158 19.2129 33.0262 19.2129C34.3556 19.2129 34.9193 19.8008 35.2222 21.2117C35.5756 22.8579 36.0383 24.4769 36.4422 26.0868C35.8616 26.738 35.2222 27.4706 34.5743 28.1851C33.876 28.972 33.8255 30.0212 34.4734 30.7086C35.1296 31.405 36.0888 31.3508 36.8208 30.5729C37.3004 30.0664 37.7716 29.5599 38.2428 29.0534C38.268 29.0263 38.3017 29.0263 38.3437 28.9992C38.3858 29.0263 38.4279 29.0534 38.4699 29.0896C38.9495 29.6323 39.4375 30.184 40.0265 30.8533C39.6142 31.2513 39.143 31.6764 38.7055 32.1376C37.9819 32.9064 37.9399 33.9647 38.5793 34.652C39.2272 35.3485 40.1948 35.3123 40.9268 34.5345C41.44 33.9918 41.9533 33.4401 42.4581 32.8974C42.4665 32.8883 42.4917 32.8793 42.5422 32.8431C43.1733 33.2592 43.8295 33.6843 44.5868 34.1727C44.1913 34.5526 43.8295 34.8782 43.5014 35.2399C42.8199 35.9906 42.8115 37.0489 43.4425 37.7182C44.082 38.3965 45.0495 38.3513 45.7563 37.6096C46.2864 37.0579 46.808 36.4971 47.3213 35.9183C47.5148 35.7012 47.6747 35.6469 47.9523 35.7555C52.3359 37.4287 56.7195 39.0839 61.1031 40.7391C61.5491 40.9109 61.9866 41.0918 62.4241 41.2908C64.1742 42.0867 65.613 43.2082 65.9916 45.388C66 45.9669 66 46.5005 66 47.0251Z" fill="#222222"/>
<path d="M21.5919 67.9998C20.4477 67.7375 19.2613 67.6109 18.1675 67.1858C15.4246 66.1366 13.4642 64.1016 12.2442 61.2525C12.1011 60.9269 12.1516 60.7279 12.362 60.4656C13.7671 58.7743 15.1469 57.0649 16.5605 55.3735C16.7035 55.2017 16.9643 55.066 17.1747 55.066C21.7266 55.0479 26.2784 55.0569 30.8303 55.0569C31.0323 55.0569 31.2426 55.0569 31.4614 55.0569C31.495 55.5725 31.4866 56.0247 31.5623 56.4679C31.9578 58.8466 33.6406 60.6013 35.9712 60.7641C38.1588 60.9088 40.3716 60.9269 42.5508 60.7641C45.1843 60.5742 46.9176 58.4939 47.069 55.6539C47.0775 55.482 47.0859 55.3192 47.0943 55.0569C47.271 55.0569 47.4392 55.0569 47.5991 55.0569C51.907 55.0569 56.2065 55.0479 60.5144 55.066C60.7584 55.066 61.0697 55.1926 61.2379 55.3735C62.7104 57.0468 64.1491 58.7562 65.6216 60.4295C65.8571 60.7008 65.916 60.9179 65.7646 61.2615C64.0061 65.1688 61.1202 67.3486 57.1236 67.8732C56.9132 67.9003 56.7113 67.9455 56.5094 67.9817C44.873 67.9998 33.2283 67.9998 21.5919 67.9998ZM53.2448 59.3803C53.2532 58.4306 52.5801 57.6799 51.7051 57.6708C50.8216 57.6618 50.1233 58.3854 50.098 59.326C50.0812 60.2305 50.8048 61.0354 51.6546 61.0535C52.5044 61.0807 53.2364 60.3119 53.2448 59.3803ZM24.5368 59.3893C24.5452 60.3209 25.2772 61.0897 26.127 61.0626C26.9768 61.0354 27.7004 60.2305 27.6836 59.326C27.6667 58.3944 26.9516 57.6618 26.0765 57.6708C25.1931 57.6889 24.52 58.4306 24.5368 59.3893Z" fill="#222222"/>
<path d="M12.1854 40.3232C13.5148 40.4046 14.7937 40.4499 16.0642 40.5765C19.3371 40.9202 22.5512 41.5985 25.6307 42.91C28.5166 44.1401 31.0576 45.8857 33.1106 48.4182C34.0193 49.5397 35.0037 50.5798 35.9629 51.6561C35.8787 51.6561 35.7357 51.6561 35.5843 51.6561C29.6104 51.6561 23.6366 51.6471 17.6628 51.6652C16.9308 51.6652 16.3923 51.3938 15.9548 50.7607C13.8429 47.785 12.5472 44.4476 12.1854 40.7122C12.177 40.6308 12.1854 40.5403 12.1854 40.3232Z" fill="#222222"/>
<path d="M28.3574 15.8215C29.1315 12.6106 34.2723 9.60784 38.2689 10.042C37.4528 12.1946 36.6535 14.3291 35.8205 16.527C34.4743 15.6406 33.0019 15.8305 31.5631 15.8215C30.503 15.8215 29.4344 15.8215 28.3574 15.8215Z" fill="#222222"/>
<path d="M18.4105 15.7852C16.2734 15.9932 14.1363 15.532 12.0244 16.1289C12.0244 14.112 12.0244 12.086 12.0244 10.069C14.843 9.74341 18.2422 12.7734 18.4105 15.7852Z" fill="#222222"/>
</svg>
