<svg width="78" height="78" viewBox="0 0 78 78" fill="none" xmlns="http://www.w3.org/2000/svg">
<path d="M26.9467 8C27.4272 8.13692 27.9152 8.23581 28.3809 8.41077C31.449 9.54419 33.2529 12.7162 32.7132 16.01C32.1809 19.2429 29.3642 21.6771 26.1482 21.6847C22.9249 21.6847 20.1821 19.2962 19.6202 15.9872C18.9918 12.2903 21.4315 8.73026 25.0023 8.1065C25.1132 8.09128 25.2167 8.03043 25.3202 8C25.8673 8 26.407 8 26.9467 8Z" fill="#222222"/>
<path d="M27.6477 45.091C26.4426 44.414 26.1469 43.2806 26.1099 41.9418C25.9916 37.758 25.8364 33.5666 25.659 29.3829C25.6146 28.2494 25.9547 27.3518 26.7088 26.5379C29.4959 23.5256 32.2609 20.4752 35.0333 17.4325C36.3936 15.9415 38.0348 15.9111 39.4321 17.3488C42.9956 21.0077 46.5812 24.6438 50.115 28.3407C51.5419 29.8393 52.2886 31.7029 52.3033 33.8177C52.3181 37.0962 52.3034 40.3672 52.3107 43.6457C52.3107 43.9576 52.3477 44.2847 52.4364 44.5814C52.88 46.0799 53.331 47.5709 53.8189 49.0542C53.9076 49.3356 54.1073 49.6171 54.3216 49.8149C58.6244 53.6792 62.9123 57.5663 67.2594 61.3773C68.7232 62.6552 69.5069 64.5341 68.0579 66.6717C68.2279 66.6945 68.3684 66.7173 68.5088 66.7249C69.3221 66.7325 70.1279 66.7097 70.9411 66.7401C71.5547 66.7629 71.9688 67.2041 71.9983 67.7899C72.0279 68.3756 71.6656 68.8396 71.0668 68.9613C70.9337 68.9918 70.8007 68.9918 70.6676 68.9918C67.8878 68.9918 65.108 69.0146 62.3357 68.9841C60.8127 68.9689 59.615 68.3147 58.9349 66.8466C58.6096 66.1392 58.7648 65.5154 59.3267 65.1959C59.896 64.8688 60.48 65.0894 60.8718 65.7664C61.3746 66.6488 61.8034 66.839 62.9789 66.6412C62.7719 66.4511 62.6092 66.2989 62.4466 66.1468C58.1512 62.3053 53.8707 58.4487 49.5532 54.63C48.6142 53.7933 47.9637 52.8576 47.6162 51.6177C47.0691 49.6399 46.4259 47.6849 45.7901 45.6235C43.8679 47.4187 41.9975 49.1683 40.0162 51.0168C40.201 51.1461 40.3636 51.2297 40.4893 51.3515C44.1045 54.843 47.6901 58.365 51.3423 61.8185C52.7765 63.1725 53.6193 64.6102 52.7026 66.7249C53.2792 66.7249 53.7746 66.7097 54.2625 66.7325C54.9353 66.7629 55.3862 67.2194 55.401 67.8355C55.4158 68.4136 54.9796 68.9765 54.3586 68.9765C51.1944 68.9765 48.0302 69.007 44.8734 68.87C43.5722 68.8168 42.685 67.8659 42.2193 66.5956C42.0049 66.0175 42.2415 65.4546 42.7516 65.1883C43.2543 64.9221 43.8901 65.059 44.1489 65.6219C44.6442 66.7249 45.5018 66.839 46.6329 66.5652C46.4555 66.4282 46.2633 66.3141 46.1006 66.162C41.7831 61.9934 37.4656 57.8173 33.1407 53.6487C32.2239 52.7663 31.7434 51.7242 31.9208 50.4082C32.0465 49.4726 32.5492 48.7727 33.2072 48.1566C36.2383 45.3344 39.2695 42.5047 42.3598 39.6141C41.4061 38.6784 40.4671 37.7504 39.4987 36.7995C39.3582 36.9365 39.2325 37.0506 39.1142 37.1799C36.7928 39.6445 34.4714 42.1091 32.15 44.589C31.6029 45.1747 30.9967 45.6235 30.1761 45.7224C30.0134 45.7452 29.8064 45.9354 29.7325 46.0951C27.2928 51.2678 24.8679 56.4481 22.443 61.6207C22.3986 61.712 22.3617 61.8033 22.3321 61.8946C21.9772 63.2334 21.334 63.7582 19.9885 63.7658C18.813 63.7734 17.6375 63.7734 16.4547 63.7658C15.9002 63.7582 15.3457 63.6746 15.0943 63.0736C14.8504 62.4879 15.1165 61.9858 15.4714 61.5446C16.2033 60.6546 17.1496 60.1602 18.2733 60.0689C18.9461 60.0157 19.6263 60.0841 20.299 60.0537C20.4838 60.0461 20.75 59.9168 20.8239 59.7646C23.1084 54.9343 25.3706 50.0963 27.6403 45.2508C27.6477 45.2355 27.6477 45.2127 27.6477 45.091ZM31.4699 36.7159C32.3496 35.9019 33.3033 35.0424 34.2274 34.1448C34.4197 33.9546 34.5453 33.6047 34.5527 33.3232C34.5823 31.1857 34.5675 29.0405 34.5675 26.8954C34.5675 26.7509 34.5453 26.5987 34.5232 26.3325C33.4216 27.542 32.394 28.6602 31.3737 29.7936C31.2924 29.8849 31.2407 30.0447 31.2481 30.1664C31.3146 32.418 31.3959 34.6772 31.4699 36.7159Z" fill="#222222"/>
<path d="M18.636 68.451C17.845 68.451 17.0613 68.4662 16.2703 68.4434C15.5014 68.4282 15.0356 68.0022 15.0208 67.3404C15.0061 66.6634 15.4792 66.1842 16.2703 66.169C17.8672 66.1462 19.464 66.1462 21.0609 66.169C21.8446 66.1766 22.3325 66.671 22.3177 67.3404C22.303 67.9946 21.8298 68.4206 21.0609 68.4434C20.2477 68.4662 19.4419 68.451 18.636 68.451Z" fill="#222222"/>
</svg>
