<svg width="78" height="78" viewBox="0 0 78 78" fill="none" xmlns="http://www.w3.org/2000/svg">
<path d="M9 27.4193C9.35138 26.4426 9.9083 25.6555 10.9227 25.619C11.4531 25.5972 12.0564 25.7575 12.5205 26.049C14.0056 26.9892 15.4376 28.0388 16.9095 29.0154C17.1084 29.1466 17.4796 29.1685 17.6852 29.0591C19.3692 28.17 21.0399 27.237 22.7106 26.3041C22.8963 26.2021 23.0819 26.049 23.1946 25.8668C24.6797 23.4471 26.1515 21.0201 27.6234 18.593C27.6764 18.5129 27.7029 18.4108 27.7759 18.2432C26.2841 18.2432 24.8653 18.2359 23.4532 18.2578C23.2941 18.2578 23.1084 18.4327 22.9758 18.5712C22.1007 19.5187 21.2388 20.488 20.3636 21.4355C19.3625 22.5287 17.9835 22.5871 17.0818 21.5958C16.1537 20.5755 16.2001 19.1105 17.2078 17.9881C18.3614 16.7053 19.5283 15.4372 20.6819 14.1617C21.1791 13.6151 21.7559 13.3454 22.4653 13.3527C24.6134 13.3673 26.7615 13.3673 28.9096 13.3527C29.7317 13.3454 30.4212 13.6661 30.8588 14.4314C32.2577 16.8803 33.6301 19.351 34.9693 21.7416C33.8687 22.8932 32.8013 24.0156 31.6809 25.189C31.2566 24.4456 30.8389 23.7095 30.3682 22.8859C29.5195 24.2852 28.6974 25.6409 27.8355 27.0621C28.3129 27.3318 28.7571 27.5869 29.2809 27.8784C28.1074 29.0373 27.398 30.4439 27.3051 32.2442C26.4897 31.7996 25.7339 31.4133 25.0046 30.976C24.693 30.7938 24.4543 30.8083 24.1427 30.9833C22.2333 32.0547 20.304 33.0823 18.3946 34.1537C17.473 34.6712 16.6178 34.6275 15.7426 34.0079C14.0056 32.7835 12.2486 31.5736 10.4851 30.3929C9.80885 29.941 9.27183 29.4017 9.00663 28.5708C9 28.1918 9 27.8055 9 27.4193Z" fill="#222222"/>
<path d="M48.4682 36.4856C47.2947 38.417 46.161 40.2828 45.0007 42.1997C45.1665 42.3017 45.3057 42.4038 45.4582 42.4839C47.5532 43.6355 49.635 44.8016 51.7433 45.9313C52.5721 46.3759 53.1621 47.01 53.5732 47.9211C55.2174 51.5725 56.8948 55.2022 58.539 58.8536C59.4473 60.8725 58.5456 63.1028 56.6362 63.6712C55.2174 64.094 53.7986 63.3724 53.0826 61.82C51.6041 58.6058 50.1522 55.3771 48.6604 52.1702C48.508 51.8422 48.2096 51.5215 47.9113 51.3539C45.6041 50.0493 43.277 48.7957 40.9698 47.4983C40.6582 47.3234 40.4195 47.3234 40.1079 47.4983C37.4095 48.9997 34.6979 50.4647 32.0061 51.9661C30.7995 52.6366 29.6724 52.6002 28.5188 51.7985C25.8669 49.9472 23.1884 48.1397 20.5298 46.2958C19.416 45.5232 18.9254 44.3716 19.1044 42.9431C19.2767 41.6239 19.9795 40.7202 21.1331 40.2756C22.0812 39.9111 22.9762 40.0788 23.8182 40.6618C25.9 42.0977 27.9951 43.5116 30.0702 44.962C30.415 45.2025 30.6735 45.2025 31.0249 45.0057C33.3586 43.7084 35.699 42.4329 38.0327 41.1429C38.2515 41.019 38.4769 40.8513 38.6095 40.6327C40.6913 37.229 42.7532 33.8181 44.8217 30.4144C44.8549 30.3634 44.8681 30.2978 44.9278 30.1666C44.7422 30.1447 44.5831 30.1156 44.4239 30.1156C42.667 30.1156 40.9101 30.101 39.1532 30.1374C38.9012 30.1447 38.5963 30.3051 38.4106 30.5018C37.0979 31.9085 35.8183 33.3589 34.499 34.7655C33.4183 35.9098 31.8271 36.0119 30.6271 35.0644C29.4404 34.1315 29.0094 32.3822 29.6525 30.9319C29.8315 30.5383 30.0901 30.1666 30.3752 29.8532C31.9664 28.0821 33.5774 26.3329 35.1752 24.5618C35.8714 23.7893 36.6868 23.403 37.688 23.4103C40.5985 23.4321 43.509 23.4321 46.4195 23.4103C47.7389 23.403 48.6936 24.0079 49.3765 25.2324C51.5643 29.1681 53.7787 33.0819 55.96 37.0249C56.1986 37.455 56.4373 37.5351 56.855 37.4404C59.4141 36.8646 61.9733 36.2888 64.5457 35.7495C66.1567 35.4069 67.675 36.5731 68.033 38.3733C68.3711 40.0569 67.423 41.8498 65.8584 42.2434C63.4053 42.8556 60.9324 43.3658 58.4661 43.9052C57.4517 44.1311 56.4373 44.3498 55.4229 44.5538C53.9909 44.8454 52.8969 44.2696 52.1345 42.9358C51.0339 41.0117 49.9599 39.0657 48.8726 37.1343C48.7466 36.9375 48.6273 36.748 48.4682 36.4856Z" fill="#222222"/>
<path d="M51.1916 66.9952C45.7816 66.9952 40.3716 66.9952 34.9616 66.9952C34.7694 66.9952 34.5705 67.0025 34.3782 66.9879C33.8213 66.9369 33.4169 66.4777 33.4102 65.9019C33.4036 65.3334 33.808 64.8451 34.3517 64.7868C34.5042 64.7722 34.6633 64.7795 34.8224 64.7795C45.7418 64.7795 56.6547 64.7795 67.5741 64.7795C67.7531 64.7795 67.9255 64.7649 68.0979 64.7941C68.615 64.867 68.9929 65.3334 68.9995 65.8801C69.0062 66.4631 68.615 66.9369 68.0647 66.9879C67.8724 67.0098 67.6735 66.9952 67.4813 66.9952C62.0448 66.9952 56.6149 66.9952 51.1916 66.9952Z" fill="#222222"/>
<path d="M50.709 22.8425C50.709 20.051 52.7576 17.8062 55.2902 17.8135C57.8162 17.8208 59.8715 20.0948 59.8516 22.8716C59.8383 25.6193 57.7963 27.8496 55.2902 27.8715C52.7709 27.886 50.709 25.6266 50.709 22.8425Z" fill="#222222"/>
<path d="M35.44 10C37.1307 10 38.4964 11.4868 38.5031 13.3308C38.5097 15.1602 37.1174 16.6907 35.4533 16.698C33.7826 16.7053 32.4102 15.1893 32.4102 13.3454C32.4036 11.4723 33.7362 10.0073 35.44 10Z" fill="#222222"/>
<path d="M33.5965 41.0921C33.1126 40.028 32.6683 39.0368 32.1777 37.9654C33.8087 37.9289 35.1546 37.324 36.2551 35.9902C36.6264 36.7992 37.0109 37.5208 37.2695 38.3006C37.3491 38.5339 37.17 39.0732 36.9712 39.1898C35.8772 39.8676 34.7369 40.458 33.5965 41.0921Z" fill="#222222"/>
<path d="M29.3408 66.9882C28.9894 66.9882 28.638 67.0028 28.2866 66.9809C27.7297 66.9445 27.3253 66.4926 27.3054 65.9168C27.2855 65.3483 27.6899 64.8163 28.2269 64.7871C28.9695 64.7507 29.712 64.7507 30.448 64.7871C30.9916 64.8163 31.3828 65.341 31.3695 65.9168C31.3496 66.4999 30.9518 66.9445 30.3883 66.9809C30.0435 67.0028 29.6922 66.9882 29.3408 66.9882Z" fill="#222222"/>
</svg>
