<svg width="22" height="22" viewBox="0 0 22 22" fill="none" xmlns="http://www.w3.org/2000/svg">
<path d="M11.9407 14.9621C14.1329 14.4444 15.4904 12.2476 14.9728 10.0554C14.4551 7.86314 12.2583 6.50562 10.0661 7.02327C7.87384 7.54092 6.51632 9.73772 7.03397 11.93C7.55162 14.1222 9.74841 15.4797 11.9407 14.9621Z" fill="white"/>
<path d="M15.966 0.825897H6.03669C3.16037 0.825897 0.828125 3.15814 0.828125 6.03445V15.9637C0.828125 18.84 3.16037 21.1723 6.03669 21.1723H15.966C18.8423 21.1723 21.1745 18.84 21.1745 15.9637V6.03445C21.1745 3.15814 18.8423 0.825897 15.966 0.825897ZM11.0004 16.5967C7.9101 16.5967 5.40375 14.0903 5.40375 11C5.40375 7.90968 7.9101 5.40334 11.0004 5.40334C14.0907 5.40334 16.5971 7.90968 16.5971 11C16.5971 14.0903 14.0925 16.5967 11.0004 16.5967ZM16.909 6.45157C16.3305 6.45157 15.8608 5.98186 15.8608 5.40334C15.8608 4.82481 16.3305 4.35509 16.909 4.35509C17.4875 4.35509 17.9573 4.82481 17.9573 5.40334C17.9573 5.98186 17.4875 6.45157 16.909 6.45157Z" fill="white"/>
</svg>
