<svg width="22" height="18" viewBox="0 0 22 18" fill="none" xmlns="http://www.w3.org/2000/svg">
<path d="M18.0294 17.9572C17.5434 18.0207 10.4686 13.4033 10.1404 13.1422C9.74684 12.8266 9.52377 12.4276 9.67792 11.9162C9.73414 11.7294 9.86109 11.5426 10.0044 11.4066C10.8295 10.6195 16.3265 5.18606 16.4697 4.92853C16.6565 4.457 16.185 4.55494 15.9438 4.71635C15.2583 5.12621 7.70114 10.1462 7.36926 10.3892C6.7599 10.8371 6.08706 11.1164 5.32537 11.0402C4.89736 10.9967 0.450494 9.6438 0.28546 9.2285C0.185714 8.97823 0.209297 8.76422 0.417857 8.54478C0.708028 8.2401 1.06893 8.05331 1.45884 7.90278C1.86145 7.74681 20.1241 0.186056 20.5938 0.0663611C21 -0.0370121 21.3827 0.111709 21.642 0.438151C21.7635 0.592304 21.8433 0.833508 21.8324 1.02756C21.7962 1.68951 19.6253 15.9441 19.5147 16.6224C19.4313 17.1284 19.2354 17.5691 18.7766 17.8194C18.5571 17.9409 18.033 17.979 18.0294 17.9572Z" fill="white"/>
</svg>
