<svg width="22" height="22" viewBox="0 0 22 22" fill="none" xmlns="http://www.w3.org/2000/svg">
<path d="M18.8992 3.99419C16.8662 1.40079 13.5891 -0.171572 9.97467 0.187514C5.19592 0.664482 1.36749 4.58723 0.993891 9.37504C0.788958 12.012 1.61232 14.4567 3.10125 16.3555C3.308 16.6184 3.36785 16.9666 3.28079 17.2894L2.40303 20.5158C2.31235 20.8458 2.36676 21.2122 2.58439 21.477C2.79476 21.7327 3.09037 21.8614 3.38961 21.8614C3.56915 21.8614 3.7487 21.8143 3.91192 21.72L7.11649 19.8466C7.38671 19.6888 7.71134 19.6616 8.01058 19.7559C9.30909 20.1621 10.7182 20.3108 12.1818 20.1422C16.8082 19.609 20.5151 15.844 20.9812 11.2104C21.2587 8.48277 20.4317 5.94921 18.8992 3.99419ZM14.6065 14.8774C14.2783 15.0207 13.9446 15.1222 13.6272 15.0914C13.1103 15.1168 12.6696 14.9826 12.2362 14.823C11.3892 14.5111 10.5623 14.161 9.83139 13.617C8.93186 12.9478 8.18649 12.1335 7.55719 11.2122C7.16727 10.6409 6.78098 10.066 6.5035 9.42582C6.26049 8.86361 6.10452 8.28146 6.16074 7.65941C6.23328 6.86506 6.59055 6.22125 7.19628 5.71164C7.3722 5.56293 7.57713 5.48675 7.80927 5.49401C7.95435 5.49945 8.09944 5.5067 8.24271 5.51396C8.52744 5.52846 8.71605 5.67356 8.81036 5.94015C8.98809 6.44251 9.16582 6.94486 9.34173 7.44903C9.39977 7.61587 9.45599 7.78272 9.51039 7.94957C9.55392 8.07834 9.52309 8.19622 9.46505 8.31592C9.30909 8.62604 9.05882 8.85817 8.82124 9.09756C8.60543 9.31519 8.59091 9.40225 8.73237 9.66884C9.29639 10.728 10.049 11.6148 11.0773 12.2495C11.3421 12.4128 11.6196 12.5578 11.8989 12.6993C12.1074 12.8045 12.209 12.7845 12.3704 12.6123C12.6279 12.3384 12.8836 12.0627 13.1285 11.7798C13.3425 11.5314 13.4585 11.4806 13.7505 11.6347C14.398 11.9775 15.0345 12.3384 15.6765 12.6939C15.8017 12.7628 15.8579 12.868 15.8561 13.0167C15.8415 13.9089 15.419 14.5201 14.6065 14.8774Z" fill="white"/>
</svg>
