<?xml version="1.0" standalone="no"?>
<!DOCTYPE svg PUBLIC "-//W3C//DTD SVG 20010904//EN"
 "http://www.w3.org/TR/2001/REC-SVG-20010904/DTD/svg10.dtd">
<svg version="1.0" xmlns="http://www.w3.org/2000/svg"
 width="512.000000pt" height="512.000000pt" viewBox="0 0 512.000000 512.000000"
 preserveAspectRatio="xMidYMid meet">
<metadata>
Created by potrace 1.14, written by Peter Selinger 2001-2017
</metadata>
<g transform="translate(0.000000,512.000000) scale(0.100000,-0.100000)"
fill="#000000" stroke="none">
<path d="M591 4945 c-155 -34 -302 -148 -369 -285 -65 -132 -62 -16 -62 -2100
0 -2077 -3 -1964 60 -2098 40 -86 151 -197 240 -240 132 -65 16 -62 2100 -62
2077 0 1964 -3 2098 60 86 40 197 151 240 240 65 132 62 16 62 2100 0 2077 3
1964 -60 2098 -40 86 -151 197 -240 240 -133 65 -15 62 -2105 61 -1578 0
-1911 -3 -1964 -14z m2677 -1712 l2 -463 220 0 220 0 0 465 0 465 303 -2 302
-3 3 -1132 2 -1133 -305 0 -305 0 0 445 0 445 -220 0 -220 0 0 -445 0 -445
-305 0 -305 0 0 1135 0 1135 303 -2 302 -3 3 -462z m-1271 441 c148 -30 241
-98 297 -214 l31 -65 3 -237 4 -238 -306 0 -306 0 0 160 c0 157 -1 161 -25
185 -22 23 -31 25 -128 25 -88 0 -109 -3 -128 -19 l-24 -19 -3 -674 c-2 -478
1 -681 9 -700 14 -35 54 -48 151 -48 82 0 130 15 142 45 3 9 6 106 6 216 l0
199 -90 0 -90 0 0 195 0 195 395 0 396 0 -3 -472 c-3 -467 -3 -474 -26 -530
-45 -112 -138 -186 -282 -225 -57 -16 -112 -18 -455 -18 -339 0 -398 2 -452
17 -177 49 -275 149 -303 308 -8 45 -10 302 -8 845 l3 780 23 57 c47 117 156
201 302 232 100 22 763 22 867 0z"/>
</g>
</svg>
