<svg width="150" height="58" viewBox="0 0 150 58" fill="none" xmlns="http://www.w3.org/2000/svg">
<path d="M14.2448 7.18776H8.5273V4.47602C8.5273 3.99683 8.25504 3.75724 7.71051 3.75724H6.53433C5.9898 3.75724 5.71754 3.99683 5.71754 4.47602V16.4992C5.71754 16.9784 5.9898 17.218 6.53433 17.218H7.71051C8.25504 17.218 8.5273 16.9784 8.5273 16.4992V13.0033H6.89372V9.37676H14.2448V16.9239C14.2448 19.6248 12.6439 20.9752 9.44211 20.9752H4.80273C1.60091 20.9752 0 19.6248 0 16.9239V4.05128C0 1.35043 1.60091 0 4.80273 0H9.44211C12.6439 0 14.2448 1.35043 14.2448 4.05128V7.18776Z" fill="#E16428"/>
<path d="M22.2486 13.5261V20.9752H16.5311V0H26.2346C29.4364 0 31.0373 1.35043 31.0373 4.05128V9.47478C31.0373 11.544 30.1007 12.8182 28.2275 13.2974L32.0828 20.9752H25.9405L22.608 13.5261H22.2486ZM24.503 4.08396H22.2486V9.63814H24.503C25.0475 9.63814 25.3198 9.39854 25.3198 8.91936V4.80273C25.3198 4.32355 25.0475 4.08396 24.503 4.08396Z" fill="#E16428"/>
<path d="M33.3136 0H39.0311V20.9752H33.3136V0Z" fill="#E16428"/>
<path d="M49.6783 16.1725V13.1993C49.6783 12.7202 49.406 12.4806 48.8615 12.4806H45.725C44.1132 12.4806 42.9697 12.1321 42.2945 11.4351C41.641 10.7163 41.3143 9.69259 41.3143 8.36394V4.05128C41.3143 1.35043 42.9043 0 46.0844 0H50.5604C53.7404 0 55.3305 1.35043 55.3305 4.05128V6.567H49.6129V4.80273C49.6129 4.32355 49.3407 4.08396 48.7961 4.08396H47.8486C47.3041 4.08396 47.0319 4.32355 47.0319 4.80273V7.90654C47.0319 8.38572 47.3041 8.62531 47.8486 8.62531H50.9198C52.5316 8.62531 53.6751 8.96292 54.3503 9.63814C55.0473 10.3133 55.3958 11.3044 55.3958 12.6113V16.9239C55.3958 19.6248 53.8058 20.9752 50.6257 20.9752H46.1824C42.9806 20.9752 41.3797 19.6248 41.3797 16.9239V14.4082H47.0972V16.1725C47.0972 16.6516 47.3695 16.8912 47.914 16.8912H48.8615C49.406 16.8912 49.6783 16.6516 49.6783 16.1725Z" fill="#E16428"/>
<path d="M67.4258 0H73.0454V20.9752H67.4258V12.6766H63.3092V20.9752H57.6897V0H63.3092V8.59264H67.4258V0Z" fill="#E16428"/>
<path d="M86.3364 20.9752L85.6829 17.8387H80.6515L79.9654 20.9752H74.3459L79.7367 0H86.6957L92.0866 20.9752H86.3364ZM81.5336 13.7874H84.8008L83.1999 6.24028L81.5336 13.7874Z" fill="#E16428"/>
<path d="M106.036 0V4.08396H101.985V20.9752H96.2675V4.08396H92.2489V0H106.036Z" fill="#E16428"/>
<path d="M112.2 0H117.035C120.237 0 121.838 1.35043 121.838 4.05128V16.9239C121.838 19.6248 120.237 20.9752 117.035 20.9752H112.2C108.998 20.9752 107.397 19.6248 107.397 16.9239V4.05128C107.397 1.35043 108.998 0 112.2 0ZM116.12 16.1725V4.80273C116.12 4.32355 115.848 4.08396 115.303 4.08396H113.931C113.387 4.08396 113.114 4.32355 113.114 4.80273V16.1725C113.114 16.6516 113.387 16.8912 113.931 16.8912H115.303C115.848 16.8912 116.12 16.6516 116.12 16.1725Z" fill="#E16428"/>
<path d="M134.273 0H140.22L135.057 20.9752H128.425L123.263 0H129.209L131.725 14.0161L134.273 0Z" fill="#E16428"/>
<path d="M9.89951 36.4414H15.519V57.4166H9.89951V49.118H5.78288V57.4166H0.163358V36.4414H5.78288V45.0341H9.89951V36.4414Z" fill="white"/>
<path d="M22.8311 36.4414H27.6665C30.8683 36.4414 32.4692 37.7919 32.4692 40.4927V53.3654C32.4692 56.0662 30.8683 57.4166 27.6665 57.4166H22.8311C19.6293 57.4166 18.0284 56.0662 18.0284 53.3654V40.4927C18.0284 37.7919 19.6293 36.4414 22.8311 36.4414ZM26.7517 52.6139V41.2442C26.7517 40.765 26.4794 40.5254 25.9349 40.5254H24.5627C24.0182 40.5254 23.7459 40.765 23.7459 41.2442V52.6139C23.7459 53.0931 24.0182 53.3327 24.5627 53.3327H25.9349C26.4794 53.3327 26.7517 53.0931 26.7517 52.6139Z" fill="white"/>
<path d="M49.0215 44.2826H43.304V40.9175C43.304 40.4383 43.0317 40.1987 42.4872 40.1987H41.3437C40.7991 40.1987 40.5269 40.4383 40.5269 40.9175V52.9406C40.5269 53.4198 40.7991 53.6594 41.3437 53.6594H42.4872C43.0317 53.6594 43.304 53.4198 43.304 52.9406V49.7061H49.0215V53.3654C49.0215 56.0662 47.4206 57.4166 44.2188 57.4166H39.6121C36.4103 57.4166 34.8093 56.0662 34.8093 53.3654V40.4927C34.8093 37.7919 36.4103 36.4414 39.6121 36.4414H44.2188C47.4206 36.4414 49.0215 37.7919 49.0215 40.4927V44.2826Z" fill="white"/>
<path d="M62.8454 46.7003L66.9621 57.4166H60.8198L56.8992 46.7003L60.7871 36.4414H66.9294L62.8454 46.7003ZM51.149 57.4166V36.4414H56.8665V57.4166H51.149Z" fill="white"/>
<path d="M74.1914 53.3327H81.3465V57.4166H68.4739V36.4414H81.0525V40.5254H74.1914V44.8054H80.105V48.8893H74.1914V53.3327Z" fill="white"/>
<path d="M93.3442 57.4166H87.6266V50.6209L81.8437 36.4414H87.692L90.4364 45.2955L92.9848 36.4414H98.8003L93.3442 50.5556V57.4166Z" fill="white"/>
<path d="M143.368 57.1659H100.643C99.9519 57.1659 99.3865 56.6004 99.3865 55.9093C99.3865 55.2181 99.9519 54.6527 100.643 54.6527H143.368C144.059 54.6527 144.624 55.2181 144.624 55.9093C144.624 56.6004 144.059 57.1659 143.368 57.1659ZM133.503 53.7102H113.523C112.832 53.7102 112.267 53.1447 112.267 52.4536C112.267 51.7625 112.832 51.197 113.523 51.197H133.503C134.194 51.197 134.76 51.7625 134.76 52.4536C134.76 53.1447 134.194 53.7102 133.503 53.7102ZM109.628 53.7102H106.549C105.858 53.7102 105.293 53.1447 105.293 52.4536C105.293 51.7625 105.858 51.197 106.549 51.197H109.628C110.319 51.197 110.884 51.7625 110.884 52.4536C110.884 53.1447 110.319 53.7102 109.628 53.7102ZM127.974 50.5059H117.544C116.853 50.5059 116.288 49.9404 116.288 49.2493C116.288 48.5581 116.853 47.9927 117.544 47.9927H127.974C128.665 47.9927 129.231 48.5581 129.231 49.2493C129.231 49.9404 128.665 50.5059 127.974 50.5059Z" fill="white"/>
<path d="M134.696 49.3125C141.921 52.0142 148.518 52.2027 149.398 49.8152L147.262 55.4699C146.382 57.9202 139.785 57.6061 132.559 54.9044C125.334 52.2027 120.245 48.0559 121.124 45.6684L123.26 40.0137C122.318 42.3384 127.407 46.548 134.696 49.3125Z" fill="white"/>
<path d="M138.466 39.1336C145.692 41.8353 150.781 45.9821 149.901 48.3696C149.838 48.5581 149.65 48.8094 149.461 48.9979C147.639 50.6943 141.671 50.2545 135.199 47.8042C128.728 45.3538 123.89 41.7725 123.638 39.3221C123.575 39.0708 123.638 38.7566 123.701 38.5681C124.644 36.1178 131.241 36.3691 138.466 39.1336Z" fill="white"/>
</svg>
