<svg viewBox="0 0 167 76" fill="none" xmlns="http://www.w3.org/2000/svg">
<g clip-path="url(#clip0_649_1886)" filter="url(#filter0_d_649_1886)">
<path d="M66.3631 71C65.9372 70.9999 65.5143 70.9298 65.1109 70.7924C64.7076 70.9298 64.2846 70.9999 63.8588 71H61.5883C60.8998 70.9999 60.2235 70.8167 59.6284 70.4688C59.0333 70.1209 58.5405 69.6208 58.2002 69.0194L54.7419 62.9035C54.1819 62.9688 53.6131 63.0177 53.0356 63.0503C52.8154 63.0631 52.5776 63.0797 52.3272 63.0973C52.1575 63.3417 52.0202 63.6073 51.9189 63.8874C51.8731 64.0636 51.801 64.5022 51.7523 64.7969C51.6646 65.3324 51.573 65.8866 51.4346 66.4182C51 68.0757 50.1006 69.1888 48.7607 69.7273L48.6905 69.7557C48.1585 69.9681 47.0525 70.4106 45.8364 70.4106C45.7068 70.4106 45.5811 70.4106 45.4593 70.3969C45.2506 70.485 45.0348 70.5548 44.8142 70.6054C44.4984 70.676 44.1759 70.7111 43.8524 70.7102C42.5106 70.7102 41.237 70.1443 40.2606 69.1154C39.0572 67.8622 38.5514 66.0491 37.8245 60.4275C37.825 60.422 37.825 60.4164 37.8245 60.4109C37.7894 60.1319 37.7582 59.8812 37.727 59.6541C37.6959 59.4094 37.6676 59.1842 37.6413 58.9688H23.3121C22.6426 58.9687 21.9844 58.7954 21.401 58.4655C20.8176 58.1356 20.3286 57.6603 19.9811 57.0854C19.6336 56.5105 19.4393 55.8554 19.417 55.1832C19.3947 54.5109 19.5451 53.8443 19.8537 53.2474L20.5066 51.9845L8.5755 47.6768C7.93198 47.443 7.36104 47.0432 6.92009 46.5175C6.47914 45.9917 6.18372 45.3586 6.06353 44.6818C5.94334 44.005 6.00261 43.3083 6.23538 42.6618C6.46816 42.0153 6.86624 41.4418 7.3896 40.9989L9.26833 39.4148L7.38278 35.6867C7.08129 35.0898 6.93714 34.4251 6.96409 33.7563C6.99104 33.0874 7.18819 32.4367 7.53671 31.8662C7.88524 31.2957 8.3735 30.8244 8.95489 30.4975C9.53628 30.1705 10.1914 29.9988 10.8577 29.9986C10.9278 29.9986 10.998 30.0006 11.0681 30.0045L15.9725 30.2688L15.9452 28.442C15.9349 27.7624 16.1008 27.0918 16.4266 26.4962C16.7523 25.9006 17.2268 25.4004 17.8033 25.0448C18.3798 24.6892 19.0385 24.4905 19.7146 24.4682C20.3907 24.4458 21.0609 24.6007 21.6594 24.9175L22.8122 25.5274L16.3643 14.2364C16.0244 13.6409 15.8462 12.9662 15.8477 12.2799C15.8491 11.5935 16.0301 10.9195 16.3725 10.3255C16.7148 9.73157 17.2066 9.23845 17.7984 8.89559C18.3903 8.55273 19.0614 8.37217 19.7446 8.37203C19.8921 8.37175 20.0395 8.38025 20.186 8.39748L24.3011 8.86741L25.2025 4.67622C25.369 3.90155 25.7655 3.19585 26.3396 2.6524C26.9138 2.10894 27.6386 1.75329 28.4182 1.63245C28.538 1.61385 28.6569 1.60112 28.7768 1.59427C29.3958 1.20597 30.1109 1.00007 30.8406 1H34.0271C34.5051 1.00007 34.9791 1.08834 35.4254 1.26042C35.8717 1.08819 36.3457 0.999917 36.8237 1H100.352C100.558 1.00001 100.765 1.01638 100.969 1.04895C101.293 1.01762 101.62 1.00098 101.943 1.00098C105.66 1.00098 109.216 3.07552 110.793 6.16238C112.23 8.96238 111.831 12.0629 111.395 13.8448H118.269C118.427 13.6862 118.597 13.539 118.776 13.4042C118.81 13.3778 118.845 13.3484 118.882 13.318C119.354 12.9333 120.336 12.1344 121.786 11.9406C122.13 11.8946 122.476 11.8721 122.824 11.873C123.053 11.873 123.258 11.8818 123.423 11.8887L123.535 11.8936C124.468 11.509 125.466 11.3114 126.475 11.312C128.635 11.312 130.809 12.2333 132.571 13.8448H151.89C152.377 13.5922 152.736 13.3141 152.979 13.0018L152.985 12.994C154.116 11.545 155.044 10.335 155.825 9.03678C155.825 9.03386 155.825 9.0309 155.825 9.02797C155.842 9.00056 155.862 8.96531 155.885 8.92517C156.155 8.43352 156.467 7.96668 156.819 7.53007C158.183 5.88727 159.754 5.64154 160.571 5.64154C161.111 5.64245 161.647 5.74197 162.152 5.93524H162.164C164.557 6.85455 165.715 9.42546 166.407 10.9615C166.451 11.0594 166.492 11.1573 166.531 11.2366C167.341 12.9989 167.071 14.9364 165.811 16.4255C165.181 17.1705 164.463 17.6179 163.987 17.9136L163.89 17.9743C162.936 18.6527 161.986 19.4095 160.982 20.2094L160.3 20.7508C158.893 21.8678 157.142 23.258 154.238 23.258H154.206C153.548 23.2574 152.891 23.2182 152.238 23.1406H133.002L132.816 23.2923L132.642 23.495C131.784 24.4945 130.186 26.3537 127.743 26.3537C127.62 26.3537 127.495 26.3488 127.372 26.339H127.341C127.204 26.3273 127.049 26.3214 126.846 26.3214C126.643 26.3214 126.456 26.3263 126.234 26.3322C125.975 26.338 125.707 26.3449 125.415 26.3449C124.747 26.3338 124.083 26.2351 123.44 26.0512L123.245 26.0022C122.908 25.9948 122.572 25.9601 122.24 25.8985C121.827 26.226 121.46 26.6091 121.151 27.0371C120.363 28.1708 119.265 29.2301 118.293 30.1161C116.488 31.7618 114.83 32.0027 113.742 32.0408C113.06 32.0653 112.322 32.1456 111.544 32.2298C110.448 32.3492 109.315 32.4726 108.092 32.4726C106.973 32.4814 105.856 32.3575 104.766 32.1035C103.53 31.8098 102.536 31.6678 101.57 31.6522C101.585 31.6708 101.602 31.6894 101.617 31.708C102.622 32.8887 103.041 33.385 103.286 33.7257L103.365 33.8236C103.509 33.9979 103.722 34.2583 103.98 34.5745C104.632 34.4874 105.29 34.4439 105.948 34.4443H105.977C108.874 34.4443 110.933 35.2677 112.361 36.2526C114.363 35.0327 116.634 34.415 119.123 34.415H119.152C120.96 34.415 122.557 34.6979 123.927 35.2608C124.747 34.8166 125.664 34.5832 126.597 34.5814L129.605 34.5716C130.264 34.5723 130.919 34.6886 131.539 34.9152C132.167 34.6819 132.831 34.5623 133.501 34.5618L137.235 34.552C137.564 34.5521 137.893 34.581 138.218 34.6382C138.543 34.581 138.873 34.5521 139.203 34.552L147.857 34.5324C148.073 34.5322 148.288 34.5443 148.502 34.5687C148.713 34.5448 148.925 34.5327 149.137 34.5324L152.426 34.5227C153.361 34.5218 154.282 34.7528 155.107 35.1952C155.919 34.7554 156.824 34.5183 157.747 34.5041H157.803L161.099 34.4943C162.175 34.4983 163.229 34.8071 164.139 35.385C165.049 35.963 165.778 36.7869 166.244 37.7622C166.252 37.7769 166.258 37.7926 166.265 37.8073C166.716 38.7889 166.881 39.8781 166.743 40.95C166.605 42.0219 166.17 43.0331 165.486 43.8674L159.306 51.3422C159.306 51.3422 158.301 54.8412 158.301 54.8442C158.165 55.3153 157.968 55.7668 157.716 56.1874H158.828C159.517 56.1874 160.192 56.3705 160.787 56.718C161.382 57.0656 161.875 57.5651 162.215 58.166L166.172 65.1464C166.509 65.7421 166.685 66.4163 166.682 67.1016C166.679 67.787 166.497 68.4596 166.154 69.0521C165.811 69.6447 165.32 70.1364 164.728 70.4782C164.137 70.8201 163.467 71 162.785 71H66.3631Z" fill="white"/>
<path d="M154.564 53.7496L155.792 49.4712L162.486 41.365C162.704 41.1012 162.843 40.7805 162.886 40.4405C162.929 40.1004 162.874 39.7551 162.729 39.4449C162.584 39.1347 162.354 38.8725 162.066 38.6889C161.778 38.5053 161.444 38.408 161.102 38.4083L157.818 38.4181C157.543 38.4212 157.272 38.4872 157.025 38.611C156.779 38.7348 156.564 38.9132 156.396 39.1328L154.505 41.6293L154.194 39.916C154.119 39.5006 153.902 39.1248 153.579 38.8545C153.257 38.5841 152.85 38.4366 152.43 38.4377L149.146 38.4475C148.735 38.6055 148.28 38.6055 147.869 38.4475L139.207 38.4671C138.857 38.466 138.514 38.5681 138.221 38.7608C137.929 38.5687 137.587 38.4666 137.238 38.4671L133.506 38.4769C133.257 38.4772 133.01 38.5296 132.782 38.6307C132.554 38.7318 132.349 38.8795 132.181 39.0643L131.372 39.965C131.325 39.687 131.212 39.4248 131.041 39.2013C130.873 38.9791 130.657 38.7988 130.408 38.6748C130.16 38.5508 129.886 38.4864 129.608 38.4866L126.607 38.4964C126.218 38.4963 125.839 38.6232 125.528 38.8581C125.217 39.0929 124.99 39.423 124.882 39.7985L124.63 40.6796C124.452 40.3812 124.235 40.1077 123.986 39.8661C122.914 38.8283 121.335 38.329 119.152 38.329H119.123C117.145 38.329 115.391 38.8675 113.9 39.915C113.15 40.4387 112.498 41.0909 111.974 41.8417C111.771 41.2474 111.448 40.7014 111.026 40.2381C109.895 38.9948 108.2 38.3584 105.978 38.3584H105.949C104.753 38.3484 103.565 38.5527 102.441 38.9615C101.353 37.4861 100.174 36.1086 100.146 36.0577C99.9704 35.7444 96.7645 32.1122 96.8035 31.9948C97.3297 30.4773 98.158 29.4689 99.2396 28.3332C99.3934 28.1704 99.5595 28.0198 99.7366 27.8829C100.285 27.796 100.838 27.7469 101.393 27.736C102.865 27.736 104.229 27.9514 105.661 28.2941C108.331 28.9304 110.943 28.2255 113.603 28.1276C114.451 28.0983 115.035 27.7948 115.669 27.2171C116.409 26.5416 117.364 25.6409 117.949 24.799C118.845 23.5067 120.044 22.5962 121.291 21.7346C121.471 21.7372 121.65 21.7536 121.827 21.7836C122.324 21.8717 122.87 22.0969 123.367 22.0871C124.059 22.0773 124.721 22.4297 125.413 22.4297C126.183 22.4297 126.914 22.371 127.684 22.4395C128.531 22.508 129.555 21.0395 130.071 20.5108C130.354 20.2171 131.075 19.7668 131.338 19.2283H152.483C153.055 19.3054 153.631 19.3447 154.208 19.3458C155.845 19.3556 156.712 18.6115 158.047 17.5542C159.256 16.5948 160.474 15.606 161.721 14.7248C162.354 14.3137 163.417 13.7948 162.998 12.8843C162.569 11.9542 161.77 9.97659 160.776 9.59477C160.055 9.32064 159.431 10.613 159.158 11.0633C158.233 12.6004 157.151 14.0004 156.05 15.4102C155.183 16.5262 153.994 17.2507 152.717 17.7598H130.875C129.491 15.9095 127.133 14.5682 124.902 15.5668C123.927 16.0074 123.226 15.6941 122.31 15.8213C121.852 15.8801 121.472 16.2717 121.121 16.536C120.77 16.8004 120.517 17.4074 120.244 17.7598H108.297C108.073 17.5738 107.839 17.3878 107.615 17.2115C107.172 16.889 106.699 16.6103 106.202 16.3794C106.631 15.8801 107.128 15.3808 107.42 14.8325C107.537 14.6171 107.381 14.2745 107.342 14.0689C107.331 13.9974 107.324 13.922 107.315 13.8447L107.332 13.8535C107.332 13.8535 108.638 10.4955 107.332 7.95002C106.293 5.91561 103.357 4.37757 100.487 5.09519L100.355 4.91603H36.8312L40.651 10.9272H76.2495C76.2495 11.2464 76.2641 11.4794 76.267 11.5048C76.4229 12.6699 77.3194 12.758 77.8066 13.7664C78.0015 14.1776 79.6971 13.7468 79.9212 13.7174L80.5838 13.6587C80.769 14.2461 81.0126 14.8433 81.4023 15.0097C82.0357 15.2643 82.6009 15.2153 83.2538 15.3132C83.1427 15.7548 83.0969 16.1992 82.9615 16.5957H43.6133L47.4331 22.6069H75.2429C74.3542 23.5497 73.447 24.4504 72.1646 24.8097C72.1313 24.8206 72.1014 24.8398 72.0775 24.8655C72.0537 24.8912 72.0367 24.9225 72.0282 24.9566C71.8917 25.6517 73.2949 26.6111 73.7335 27.0223L74.055 27.316C73.7056 27.6421 73.3827 27.9957 73.0893 28.3734H50.4149L54.2348 34.3845H69.5063C68.49 36.1194 67.2553 38.2164 66.1766 40.0531H57.1971L61.0169 46.0643H65.1457C65.6465 46.4128 66.0743 46.6713 66.0743 46.6713C66.0743 46.6713 65.1876 48.5216 64.6614 49.5887C63.7649 49.3831 62.8684 49.2069 61.9621 49.0796C61.1933 48.9719 60.4245 48.8153 59.6459 48.8838L34.0345 4.91603H30.8481L56.8443 50.418C56.2451 50.7851 55.6399 51.1356 55.0387 51.4949L29.0161 5.50344L27.3693 13.1594L19.7491 12.2881L32.8749 35.2755L19.8466 28.3832L19.9343 34.4041L10.8622 33.9146L14.146 40.4153L9.89746 43.9985L26.0246 49.8237L23.3156 55.0615H41.6527C41.5426 55.2122 41.4461 55.4883 41.4111 55.9915C41.3234 57.2545 41.4111 57.6656 41.6936 59.9272C41.9762 62.1887 42.4732 65.7915 43.0774 66.4083C43.5256 66.888 43.9544 66.7901 43.9544 66.7901L45.1169 66.0588C45.1905 66.1755 45.2816 66.2802 45.3868 66.3691C45.8156 66.7216 46.8972 66.2614 47.3162 66.095C47.8034 65.8992 47.8911 63.5789 48.2419 62.5999C48.7779 61.1216 49.5964 60.1328 50.6001 59.2908C51.3797 59.2517 52.1397 59.1831 52.8218 59.144C54.1549 59.0766 55.479 58.8855 56.7771 58.5732L61.5919 67.0838H63.8623L58.7075 57.9789L58.7757 57.9535C59.4257 57.7038 60.0893 57.4816 60.7577 57.2682L66.3666 67.0838H162.788L158.832 60.1034H152.41V60.0643C152.449 59.9664 152.488 59.8684 152.517 59.7705C153.005 58.1845 152.683 56.667 151.631 55.6097C151.427 55.4031 151.2 55.2201 150.955 55.0644L152.839 55.0517C153.228 55.0518 153.607 54.9249 153.918 54.69C154.229 54.4552 154.456 54.1251 154.564 53.7496ZM112.029 19.8363C112.756 19.8183 113.476 19.6957 114.167 19.4721C113.467 19.6885 112.723 19.8441 112.029 19.8363ZM110.119 19.2489C110.17 19.2998 110.225 19.3457 110.285 19.386C110.492 19.5311 110.707 19.6651 110.928 19.7874C110.703 19.6723 110.487 19.538 110.285 19.386C110.224 19.3433 110.166 19.2976 110.11 19.2489H110.119ZM44.4338 55.0615C44.4007 55.0967 44.3666 55.1319 44.3363 55.1691C44.2623 55.2552 44.1997 55.3507 44.1502 55.4531C43.7556 55.3395 43.207 55.1819 42.7714 55.0615H44.4338ZM43.5938 62.8349C43.5465 62.7961 43.5124 62.7434 43.4964 62.6841C43.6133 62.6224 43.7449 62.5696 43.8764 62.5157V62.5216C43.9202 62.501 43.9659 62.4846 44.0128 62.4726C44.0031 62.4335 44.0031 62.3943 43.9933 62.3552C43.9407 61.8167 44.084 61.2293 44.2389 60.6438C44.2389 61.1931 44.2389 61.8069 44.2759 62.456C43.9466 62.6978 43.6708 62.8691 43.5938 62.8349ZM84.9006 36.7734C85.1277 37.0152 85.7718 37.7396 86.5425 38.6051C86.188 38.6429 85.8527 38.7859 85.5794 39.0158C85.306 39.2458 85.107 39.5524 85.0078 39.8964L83.5296 45.0578H83.4779L78.0892 45.0676C77.9831 45.0681 77.8771 45.0776 77.7725 45.096C79.9329 41.1173 83.1807 36.0694 84.9006 36.7734ZM148.844 46.4265V46.358L148.862 46.4314L148.844 46.4265ZM87.7363 53.916L87.9117 53.3061V53.5381L87.5755 54.5817C87.4917 54.5994 87.4088 54.6189 87.326 54.6395C87.5167 54.4336 87.6572 54.1859 87.7363 53.916ZM66.1815 60.1034L63.951 56.2745C64.0806 56.2324 64.2112 56.1912 64.3408 56.1482C64.5064 56.0894 64.6721 56.0405 64.8377 55.9915C65.6644 56.2958 66.5397 56.4451 67.42 56.4321C68.2483 56.4321 69.8561 56.4223 70.3823 55.551C70.4476 55.4436 70.522 55.3421 70.6045 55.2475L73.676 55.2377C74.0651 55.2378 74.4437 55.1109 74.7548 54.876C75.0659 54.6412 75.2926 54.3111 75.4007 53.9356L75.9659 51.9678C76.0434 51.6988 76.0573 51.4153 76.0065 51.14C75.9558 50.8647 75.8418 50.605 75.6736 50.3817C75.5879 50.2703 75.4898 50.1692 75.3812 50.0802C75.4962 49.9588 75.5576 49.7757 75.6404 49.5006C75.6629 49.4243 75.7028 49.3156 75.7574 49.1795C75.8345 49.5926 76.0531 49.9656 76.3752 50.2339C76.6974 50.5021 77.1027 50.6486 77.5211 50.648L81.9286 50.6402L81.2757 52.9272C81.1984 53.1956 81.1843 53.4785 81.2347 53.7533C81.285 54.0282 81.3984 54.2874 81.5657 54.5107C81.733 54.7339 81.9498 54.9149 82.1988 55.0394C82.4478 55.1639 82.7223 55.2284 83.0004 55.2279L85.8838 55.2181C85.7032 55.32 85.5279 55.4311 85.3586 55.551C84.2714 56.3251 83.4832 57.4524 83.1271 58.7426L82.7373 60.1034H66.1815Z" fill="white"/>
<path d="M30.8486 4.91603H34.0351L66.1821 60.1034H158.832L162.789 67.0838H66.3672L30.8486 4.91603Z" fill="#E16428"/>
<path d="M29.0161 5.50323L63.8623 67.0837H61.5919L54.7902 55.0613H23.3156L26.0246 49.8235L9.89746 43.9984L14.146 40.4151L10.8622 33.9144L19.9343 34.4039L19.8466 28.383L32.8749 35.2753L19.7491 12.2878L27.3693 13.1592L29.0161 5.50323Z" fill="#E16428"/>
<path d="M57.1973 40.0531L61.0171 46.0643H75.0783L70.6933 40.0531H57.1973Z" fill="#E16428"/>
<path d="M50.415 28.374L54.2349 34.3852H94.2553L89.8606 28.374H50.415Z" fill="#E16428"/>
<path d="M43.6133 16.5958L47.4331 22.6069H87.4536L83.0686 16.5958H43.6133Z" fill="#E16428"/>
<path d="M36.8311 4.91603L40.6509 10.9272H104.74L100.355 4.91603H36.8311Z" fill="#E16428"/>
<path d="M107.333 13.8546C107.333 13.8546 108.639 10.4966 107.333 7.95114C106.027 5.40569 101.73 3.62387 98.3291 6.12037C99.8882 6.77632 103.62 11.926 103.62 11.926L107.333 13.8546Z" fill="#222222"/>
<path d="M163.003 12.8848C162.574 11.9547 161.775 9.97709 160.781 9.59527C160.06 9.32115 159.436 10.6135 159.163 11.0638C158.238 12.6009 157.156 14.0009 156.055 15.4107C155.188 16.5267 153.999 17.2512 152.722 17.7603H130.875C129.492 15.91 127.133 14.5687 124.902 15.5673C123.927 16.0079 123.226 15.6946 122.31 15.8218C121.852 15.8806 121.472 16.2722 121.121 16.5365C120.77 16.8009 120.517 17.4079 120.244 17.7603H108.297C108.073 17.5743 107.839 17.3883 107.615 17.2121C107.172 16.8895 106.699 16.6108 106.202 16.3799C106.631 15.8806 107.128 15.3813 107.42 14.833C107.537 14.6177 107.381 14.275 107.342 14.0694C107.216 13.1883 107.264 11.8079 107.284 10.8974C107.292 10.8789 107.295 10.8587 107.294 10.8386V10.6232C107.296 10.5937 107.287 10.5644 107.269 10.5409C107.251 10.5174 107.225 10.5014 107.196 10.496C107.157 10.4427 107.121 10.3871 107.089 10.3295C106.797 9.90856 106.407 9.53653 106.037 9.18408C105.707 8.87806 105.355 8.59666 104.984 8.34213C104.614 7.93094 104.136 7.55891 103.786 7.24562C103.464 6.96171 103.094 6.75611 102.743 6.51136C102.626 6.42324 102.412 6.33513 102.266 6.23723C102.254 6.20642 102.234 6.17932 102.208 6.15868C102.183 6.13805 102.152 6.12461 102.119 6.11975C100.833 5.8652 99.6443 5.99248 98.319 6.10017C98.2801 6.10148 98.2423 6.11368 98.2099 6.13538C98.1775 6.15708 98.1517 6.18743 98.1355 6.22302C98.1193 6.25862 98.1133 6.29804 98.1182 6.33687C98.1231 6.37569 98.1386 6.41239 98.1631 6.44283C97.9195 6.83443 97.5979 7.18688 97.3543 7.57849C97.0035 8.13653 96.6527 8.70437 96.3117 9.2722C95.8243 9.10227 95.357 8.87902 94.9182 8.60646C93.6807 7.78408 92.5211 6.69737 91.1081 6.21765C90.0655 5.85541 88.6818 6.4624 87.6586 6.62884C86.9765 6.73653 86.3139 7.07919 85.6805 7.33373C85.5364 7.38911 85.3857 7.42531 85.2322 7.44143C85.2053 7.43036 85.1792 7.41727 85.1543 7.40227C84.6573 7.14772 84.2188 6.74632 83.7218 6.48199C83.4685 6.34492 83.1566 6.13933 82.8643 6.0708C82.8596 6.02829 82.8388 5.98925 82.8061 5.96187C82.7734 5.93449 82.7314 5.9209 82.6889 5.92394C81.9288 5.92394 81.1006 5.93373 80.3502 5.81625C79.9799 5.75751 79.5317 6.2666 79.2589 6.45261C78.5475 6.95192 78.0408 7.61765 77.2807 8.068C77.0201 8.20896 76.786 8.39449 76.5889 8.61625C76.5791 8.60646 76.5694 8.60646 76.5499 8.60646H76.5109C76.4932 8.60792 76.4767 8.6157 76.4642 8.62841C76.4517 8.64111 76.4442 8.65788 76.4431 8.67567C76.4419 8.69346 76.4471 8.71108 76.4578 8.72533C76.4684 8.73959 76.4838 8.74951 76.5012 8.75331C76.5012 8.75591 76.5001 8.7584 76.4983 8.76024C76.4965 8.76207 76.494 8.76311 76.4914 8.76311C76.1601 8.81206 76.2576 11.4163 76.2673 11.5044C76.4232 12.6694 77.3197 12.7575 77.8069 13.7659C78.0018 14.1771 79.6974 13.7463 79.9215 13.717L80.5841 13.6582C80.7692 14.2456 81.0129 14.8428 81.4026 15.0093C82.036 15.2638 82.6012 15.2149 83.2541 15.3128C83.0202 16.2428 83.0787 17.1827 81.9386 17.6722C80.7108 18.2107 79.6681 19.3463 78.4111 19.8456C77.4659 20.2177 76.2771 21.51 75.556 22.2736C74.562 23.3309 73.5973 24.4079 72.1649 24.8093C72.1316 24.8201 72.1017 24.8393 72.0778 24.865C72.054 24.8907 72.037 24.922 72.0285 24.9561C71.892 25.6512 73.2952 26.6107 73.7337 27.0219L74.0553 27.3156C73.0516 28.2456 72.2818 29.4302 71.5412 30.8596C70.9858 31.9365 63.5898 44.3897 63.5898 44.517C63.5898 45.1729 66.0746 46.6708 66.0746 46.6708C66.0746 46.6708 65.1879 48.5212 64.6616 49.5883C63.7652 49.3827 62.8687 49.2065 61.9624 49.0792C61.1926 48.9715 60.4228 48.8149 59.6433 48.8834C58.9027 48.9519 57.9964 49.6862 57.3728 50.0876C55.7162 51.1449 54.0012 52.0065 52.4129 53.1911C51.6625 53.7491 50.9122 54.2191 50.1814 54.8065C48.2617 54.2974 45.8451 53.4163 44.3347 55.1687C43.7695 55.8247 43.9644 56.8526 44.247 58.3016C44.3542 58.8596 44.0813 61.2289 44.3932 63.8331C44.6075 64.4009 44.7245 65.8303 45.3871 66.3687C45.8159 66.7212 46.8975 66.261 47.3165 66.0946C47.8037 65.8988 47.8914 63.5785 48.2422 62.5995C48.7782 61.1212 49.5967 60.1324 50.6004 59.2904C51.3799 59.2512 52.14 59.1827 52.8221 59.1435C54.8197 59.0359 56.9051 58.6736 58.776 57.9491C60.5885 57.254 62.4984 56.7645 64.3401 56.1477C64.5057 56.089 64.6714 56.04 64.837 55.9911C65.6637 56.2954 66.539 56.4447 67.4193 56.4317C68.2476 56.4317 69.8555 56.4219 70.3817 55.5505C70.6058 55.1687 71.054 54.8065 71.3366 54.4638C71.9213 53.7589 72.3988 52.9561 72.9152 52.2023C73.2855 51.6442 73.6948 51.1156 74.0846 50.5575C74.8154 50.8806 74.1917 50.3421 74.8933 50.2736C75.4098 50.2149 75.4878 50.0191 75.6437 49.5002C76.0627 48.0806 82.2699 35.696 84.9009 36.7729C85.5343 37.4484 89.4029 41.8638 90.2604 42.6862C90.4845 42.9016 91.0886 43.6848 91.4882 43.2736C91.6831 43.0778 92.716 43.0386 92.9109 42.8428C93.3104 43.5184 93.6904 43.303 94.3043 43.7435C95.6003 44.6638 96.8866 45.3589 98.0754 46.4652C99.6248 47.9142 100.94 49.6568 102.373 51.233C102.357 51.2391 102.344 51.25 102.335 51.2641C102.327 51.2782 102.323 51.2948 102.324 51.3114C102.266 52.2219 101.944 53.0932 102.197 53.9939C102.402 54.7379 103.756 55.5407 104.312 56.0596C105.657 57.2932 107.011 58.5365 108.658 59.1044L109.24 59.6364L109.695 60.0909H111.514H112.424C111.859 60.0909 111.464 59.9072 111.172 59.3296C111.153 59.3002 111.143 59.2708 111.123 59.2414C112.098 58.5855 110.617 56.1869 110.246 55.6289C109.515 54.536 108.721 53.4866 107.869 52.4862C107.372 51.8988 106.748 51.4582 106.183 50.9491C104.361 48.3939 105.179 44.84 104.185 41.8247C103.63 40.1309 100.2 36.1463 100.151 36.0582C99.9756 35.7449 96.7697 32.1128 96.8086 31.9953C97.3348 30.4778 98.1631 29.4694 99.2448 28.3337C99.3985 28.1709 99.5647 28.0203 99.7417 27.8834C100.29 27.7965 100.843 27.7474 101.398 27.7365C102.87 27.7365 104.234 27.9519 105.666 28.2946C108.336 28.9309 110.948 28.226 113.608 28.1281C114.456 28.0988 115.041 27.7953 115.674 27.2177C116.415 26.5421 117.369 25.6414 117.954 24.7995C118.851 23.5072 120.049 22.5967 121.296 21.7351C121.476 21.7377 121.655 21.7541 121.832 21.7841C122.329 21.8722 122.875 22.0974 123.372 22.0876C124.064 22.0778 124.727 22.4302 125.418 22.4302C126.188 22.4302 126.919 22.3715 127.689 22.44C128.537 22.5086 129.56 21.04 130.076 20.5114C130.359 20.2177 131.08 19.7673 131.343 19.2288H152.489C153.06 19.306 153.636 19.3452 154.213 19.3463C155.85 19.3561 156.718 18.6121 158.053 17.5547C159.261 16.5953 160.479 15.6065 161.726 14.7253C162.36 14.3142 163.422 13.7953 163.003 12.8848ZM112.03 19.8358C111.669 19.8358 111.299 19.8163 110.928 19.7869C110.703 19.6719 110.488 19.5376 110.285 19.3855C110.224 19.3429 110.166 19.2971 110.11 19.2484H114.826C113.949 19.5715 112.945 19.8456 112.03 19.8358Z" fill="#222222"/>
<path d="M43.9548 66.7892L45.1534 66.0353L45.4944 61.4829C44.9585 61.9332 43.7697 62.9123 43.5943 62.8339C43.3799 62.7262 43.2142 61.1892 43.1558 60.7193C43.0973 60.2493 43.2045 58.4871 43.4189 58.3598C43.5943 58.2619 44.8318 59.1724 45.358 59.5542L44.6564 55.599C44.6564 55.599 42.1716 54.8745 42.0741 54.8843C41.9767 54.8941 41.4992 54.7276 41.4115 55.9906C41.3238 57.2535 41.4115 57.6647 41.6941 59.9262C41.9767 62.1878 42.4736 65.7906 43.0778 66.4074C43.5261 66.8871 43.9548 66.7892 43.9548 66.7892Z" fill="#222222"/>
<path d="M150.208 46.427H148.133V50.4116H150.208V46.427Z" fill="#222222"/>
<path d="M92.716 42.4423H88.75V45.5066H92.716V42.4423Z" fill="#222222"/>
<path d="M68.6079 51.4874L74.2402 51.4776L73.675 53.4454L64.7588 53.465L65.1193 52.1923L73.4216 42.4021L67.8868 42.4119L68.4519 40.4342L77.2902 40.4147L76.9394 41.6384L68.6079 51.4874Z" fill="#222222"/>
<path d="M64.769 55.2677C64.4908 55.2683 64.2164 55.2037 63.9674 55.0792C63.7183 54.9547 63.5016 54.7737 63.3342 54.5505C63.1669 54.3273 63.0536 54.068 63.0032 53.7932C62.9529 53.5183 62.9669 53.2355 63.0442 52.967L63.4048 51.6943C63.4757 51.4489 63.5987 51.2217 63.7653 51.0286L69.5438 44.2146H67.9067C67.6286 44.2151 67.3541 44.1506 67.1051 44.0261C66.8561 43.9016 66.6393 43.7206 66.472 43.4973C66.3046 43.2741 66.1913 43.0148 66.1409 42.74C66.0906 42.4652 66.1046 42.1823 66.1819 41.9139L66.7471 39.9363C66.8553 39.5607 67.082 39.2307 67.3931 38.9958C67.7041 38.761 68.0828 38.634 68.4719 38.6342L77.3101 38.6146C77.5883 38.6141 77.8627 38.6786 78.1117 38.8031C78.3608 38.9276 78.5775 39.1086 78.7449 39.3318C78.9122 39.555 79.0255 39.8143 79.0759 40.0892C79.1262 40.364 79.1122 40.6468 79.0349 40.9153L78.6841 42.1391C78.6131 42.3845 78.4901 42.6116 78.3235 42.8048L72.5061 49.6677H74.2406C74.5188 49.6672 74.7932 49.7317 75.0422 49.8562C75.2913 49.9807 75.508 50.1617 75.6754 50.385C75.8427 50.6082 75.956 50.8675 76.0064 51.1423C76.0567 51.4171 76.0427 51.7 75.9654 51.9684L75.4002 53.9363C75.292 54.3118 75.0653 54.6419 74.7543 54.8767C74.4432 55.1116 74.0646 55.2385 73.6754 55.2384L64.769 55.2677Z" fill="#222222"/>
<path d="M82.9131 48.8248L77.5244 48.8346L78.0896 46.857L83.4783 46.8472L82.9131 48.8248Z" fill="#222222"/>
<path d="M77.5248 50.646C77.2467 50.6465 76.9722 50.582 76.7232 50.4575C76.4742 50.333 76.2574 50.152 76.0901 49.9288C75.9227 49.7056 75.8094 49.4463 75.7591 49.1714C75.7087 48.8966 75.7228 48.6138 75.8001 48.3453L76.3652 46.3677C76.4734 45.9922 76.7001 45.6621 77.0112 45.4273C77.3223 45.1924 77.7009 45.0655 78.09 45.0656L83.4787 45.0558C83.7569 45.0553 84.0313 45.1198 84.2803 45.2443C84.5294 45.3688 84.7461 45.5498 84.9135 45.773C85.0808 45.9963 85.1941 46.2556 85.2445 46.5304C85.2948 46.8052 85.2808 47.0881 85.2035 47.3565L84.6383 49.3341C84.5302 49.7097 84.3035 50.0397 83.9924 50.2746C83.6813 50.5094 83.3027 50.6364 82.9135 50.6362L77.5248 50.646Z" fill="#222222"/>
<path d="M94.0025 53.3974L91.0012 53.4072L92.5603 47.9736L87.5614 47.9834L86.0023 53.417L83.001 53.4268L86.7331 40.396L89.7344 40.3862L88.1168 46.0156L93.1158 46.0058L94.7334 40.3764L97.7249 40.3666L94.0025 53.3974Z" fill="#222222"/>
<path d="M83.0004 55.2291C82.7223 55.2296 82.4478 55.1651 82.1988 55.0406C81.9498 54.9161 81.733 54.7351 81.5657 54.5119C81.3983 54.2886 81.285 54.0293 81.2347 53.7545C81.1843 53.4797 81.1984 53.1968 81.2756 52.9284L85.0078 39.8976C85.116 39.5221 85.3427 39.192 85.6537 38.9572C85.9648 38.7223 86.3434 38.5954 86.7326 38.5955L89.7339 38.5857C90.012 38.5852 90.2865 38.6497 90.5355 38.7742C90.7845 38.8987 91.0013 39.0797 91.1686 39.303C91.336 39.5262 91.4493 39.7855 91.4996 40.0603C91.55 40.3351 91.5359 40.618 91.4586 40.8864L90.5037 44.2053H91.7607L92.9983 39.878C93.1064 39.5025 93.3331 39.1724 93.6442 38.9376C93.9553 38.7027 94.3339 38.5758 94.7231 38.5759L97.7146 38.5661C97.9928 38.5656 98.2672 38.6302 98.5162 38.7547C98.7653 38.8791 98.982 39.0602 99.1494 39.2834C99.3167 39.5066 99.43 39.7659 99.4804 40.0407C99.5307 40.3156 99.5167 40.5984 99.4394 40.8668L95.7267 53.8976C95.6186 54.2732 95.3919 54.6032 95.0808 54.8381C94.7697 55.0729 94.3911 55.1998 94.002 55.1997L91.0104 55.2095C90.7323 55.21 90.4578 55.1455 90.2088 55.021C89.9598 54.8965 89.743 54.7155 89.5757 54.4923C89.4083 54.2691 89.295 54.0098 89.2446 53.7349C89.1943 53.4601 89.2083 53.1773 89.2856 52.9088L90.1821 49.7857H88.9251L87.7363 53.9172C87.6281 54.2927 87.4014 54.6228 87.0903 54.8576C86.7792 55.0925 86.4006 55.2194 86.0115 55.2193L83.0004 55.2291Z" fill="#222222"/>
<path d="M109.184 48.6785C108.746 50.2155 107.888 51.4132 106.612 52.2715C105.335 53.133 103.844 53.5638 102.129 53.5736C100.414 53.5834 99.1769 53.1526 98.3973 52.2911C97.6177 51.4295 97.4521 50.2351 97.8906 48.7078L98.9332 45.0757C99.3717 43.5484 100.22 42.354 101.496 41.4827C102.773 40.6114 104.254 40.1708 105.969 40.1708C107.684 40.1708 108.931 40.6016 109.711 41.4631C110.49 42.3246 110.666 43.5288 110.227 45.0561L109.184 48.6785ZM107.236 45.0267C107.508 44.0771 107.479 43.3624 107.167 42.8827C106.855 42.403 106.251 42.1582 105.384 42.1582C104.517 42.1582 103.786 42.403 103.211 42.8827C102.636 43.3624 102.207 44.0869 101.935 45.0365L100.882 48.6981C100.609 49.6673 100.619 50.3918 100.921 50.8715C101.223 51.3512 101.818 51.596 102.685 51.596C103.552 51.596 104.293 51.3512 104.877 50.8617C105.462 50.3722 105.901 49.6477 106.173 48.6883L107.236 45.0267Z" fill="#222222"/>
<path d="M102.099 55.3748C99.8777 55.3748 98.1919 54.7482 97.0616 53.5049C96.2236 52.5748 95.3855 50.9105 96.1554 48.2084L97.198 44.5762C97.7534 42.6377 98.8546 41.1006 100.472 39.9846C102.041 38.9076 103.883 38.3594 105.949 38.3594H105.978C108.2 38.3594 109.895 38.9957 111.025 40.2391C111.873 41.1692 112.711 42.8531 111.941 45.5454L110.899 49.1776C110.343 51.1258 109.232 52.6629 107.605 53.7692C106.036 54.8265 104.195 55.365 102.129 55.3748H102.099ZM102.489 49.7748C102.548 49.7748 102.616 49.7846 102.694 49.7846C103.298 49.7846 103.59 49.5986 103.756 49.4615C104.058 49.2167 104.292 48.786 104.467 48.179L105.52 44.5174C105.568 44.3369 105.607 44.1539 105.637 43.9692C105.559 43.9601 105.481 43.9569 105.403 43.9594C104.808 43.9594 104.526 44.1356 104.37 44.2727C104.078 44.5174 103.844 44.9384 103.668 45.5356L102.616 49.1972C102.55 49.3837 102.508 49.5777 102.489 49.7748Z" fill="#222222"/>
<path d="M121.696 49.2858L121.706 49.3348C121.336 50.7348 120.605 51.7823 119.533 52.4774C118.461 53.1725 117.107 53.525 115.479 53.525C113.813 53.525 112.605 53.1236 111.864 52.2914C111.124 51.4592 110.968 50.2942 111.406 48.7767L112.517 44.9096C112.956 43.3921 113.768 42.214 114.953 41.3754C116.142 40.5334 117.545 40.1124 119.153 40.1124C120.849 40.1124 122.057 40.4551 122.768 41.1404C123.48 41.8257 123.616 42.8733 123.187 44.283L123.148 44.332L120.225 44.3418C120.469 43.5096 120.459 42.9222 120.196 42.5893C119.933 42.2565 119.397 42.09 118.578 42.09C117.885 42.0719 117.21 42.3166 116.688 42.7754C116.181 43.2355 115.791 43.9306 115.518 44.8802L114.407 48.7669C114.135 49.7166 114.135 50.4215 114.407 50.8718C114.68 51.3222 115.226 51.5572 116.045 51.5474C116.795 51.5474 117.37 51.3809 117.799 51.0481C118.227 50.7152 118.549 50.1278 118.792 49.276L121.696 49.2858Z" fill="#222222"/>
<path d="M115.45 55.3354C113.267 55.3354 111.61 54.7186 110.519 53.5144C109.7 52.6137 108.892 50.9689 109.661 48.2864L110.772 44.4193C111.318 42.5004 112.37 40.9927 113.9 39.9158C115.391 38.8682 117.145 38.3298 119.123 38.3298H119.153C121.335 38.3298 122.914 38.8291 123.986 39.8668C124.834 40.6892 125.672 42.2165 124.872 44.8305C124.821 45.0049 124.742 45.1701 124.639 45.32L124.6 45.3689C124.436 45.6097 124.217 45.8069 123.96 45.9433C123.704 46.0798 123.418 46.1515 123.128 46.1521L120.205 46.1619C119.932 46.162 119.662 46.0996 119.417 45.9795C119.172 45.8593 118.957 45.6845 118.788 45.4684C118.62 45.2523 118.503 45.0005 118.447 44.7322C118.39 44.4639 118.395 44.1861 118.461 43.92C118.242 43.9219 118.032 44.0017 117.866 44.1451C117.623 44.3605 117.399 44.8109 117.223 45.3983L116.112 49.285C116.067 49.4427 116.031 49.6028 116.005 49.7647H116.025C116.522 49.7647 116.668 49.657 116.668 49.6472C116.668 49.6472 116.853 49.471 117.048 48.7955C117.156 48.42 117.383 48.0899 117.694 47.8551C118.005 47.6202 118.383 47.4933 118.772 47.4934L121.676 47.4836C122.118 47.4836 122.545 47.6475 122.874 47.9437C123.203 48.24 123.411 48.6479 123.46 49.0892L123.469 49.1382C123.497 49.3611 123.481 49.5874 123.421 49.8039C122.933 51.6445 121.939 53.0542 120.487 53.9941C119.123 54.8752 117.437 55.3256 115.469 55.3354H115.45Z" fill="#222222"/>
<path d="M128.264 47.8552H127.445L125.876 53.3279L122.875 53.3377L126.607 40.3069L129.608 40.2971L128.079 45.6328H128.692L133.516 40.2873L137.248 40.2776L131.07 46.2398L133.847 53.3083L130.008 53.3181L128.264 47.8552Z" fill="#222222"/>
<path d="M122.875 55.1288C122.597 55.1293 122.323 55.0648 122.074 54.9403C121.825 54.8158 121.608 54.6348 121.441 54.4115C121.273 54.1883 121.16 53.929 121.11 53.6542C121.059 53.3794 121.073 53.0965 121.151 52.8281L124.883 39.7973C124.991 39.4218 125.218 39.0917 125.529 38.8568C125.84 38.622 126.218 38.4951 126.608 38.4952L129.609 38.4854C129.886 38.4852 130.16 38.5496 130.409 38.6736C130.657 38.7976 130.874 38.9778 131.041 39.2001C131.212 39.4236 131.326 39.6858 131.373 39.9637L132.181 39.063C132.35 38.8782 132.554 38.7306 132.783 38.6295C133.011 38.5283 133.257 38.476 133.507 38.4756L137.239 38.4658C137.597 38.4651 137.947 38.5722 138.245 38.7733C138.542 38.9743 138.772 39.2602 138.907 39.594C139.041 39.9278 139.072 40.2943 138.997 40.6464C138.922 40.9984 138.744 41.3198 138.486 41.5693L133.175 46.6896L135.504 52.6323C135.611 52.9056 135.65 53.201 135.618 53.4929C135.586 53.7848 135.483 54.0643 135.319 54.3074C135.155 54.5504 134.934 54.7495 134.676 54.8875C134.418 55.0256 134.13 55.0983 133.838 55.0994L129.999 55.1092C129.619 55.1091 129.249 54.9876 128.942 54.7623C128.636 54.5371 128.408 54.2197 128.293 53.856L127.923 52.6812L127.601 53.8071C127.493 54.1826 127.267 54.5127 126.956 54.7475C126.644 54.9824 126.266 55.1093 125.877 55.1092L122.875 55.1288Z" fill="#222222"/>
<path d="M144.868 47.5221L140.132 47.5319L139.051 51.3207L144.732 51.3109L144.167 53.2787L135.484 53.2983L139.217 40.2676L147.879 40.248L147.314 42.2256L141.662 42.2354L140.707 45.5641L145.443 45.5543L144.868 47.5221Z" fill="#222222"/>
<path d="M135.474 55.1001C135.196 55.1006 134.921 55.0361 134.672 54.9116C134.423 54.7871 134.207 54.6061 134.039 54.3829C133.872 54.1597 133.759 53.9004 133.708 53.6255C133.658 53.3507 133.672 53.0679 133.749 52.7994L137.481 39.7686C137.59 39.3931 137.816 39.0631 138.127 38.8282C138.438 38.5933 138.817 38.4664 139.206 38.4666L147.869 38.447C148.147 38.4465 148.422 38.511 148.671 38.6355C148.92 38.76 149.136 38.941 149.304 39.1642C149.471 39.3874 149.584 39.6467 149.635 39.9215C149.685 40.1964 149.671 40.4792 149.594 40.7477L149.029 42.7253C148.92 43.1008 148.694 43.4309 148.383 43.6657C148.072 43.9006 147.693 44.0275 147.304 44.0274H146.388C146.571 44.145 146.733 44.2941 146.865 44.4679C147.034 44.6912 147.148 44.9509 147.198 45.2262C147.249 45.5015 147.235 45.785 147.158 46.054L146.592 48.0218C146.484 48.3973 146.258 48.7274 145.947 48.9622C145.635 49.1971 145.257 49.324 144.868 49.3239L141.477 49.3337L141.428 49.5099L144.712 49.5001C144.99 49.4996 145.264 49.5641 145.513 49.6886C145.762 49.8131 145.979 49.9941 146.147 50.2173C146.314 50.4406 146.427 50.6998 146.478 50.9747C146.528 51.2495 146.514 51.5324 146.437 51.8008L145.871 53.7686C145.763 54.1442 145.537 54.4742 145.225 54.7091C144.914 54.9439 144.536 55.0709 144.147 55.0707L135.474 55.1001Z" fill="#222222"/>
<path d="M153.463 45.897H153.531L157.829 40.2284L161.113 40.2186L154.184 48.6186L152.849 53.2592L149.858 53.269L151.232 48.462L149.146 40.248L152.43 40.2382L153.463 45.897Z" fill="#222222"/>
<path d="M149.848 55.0722C149.569 55.0727 149.295 55.0082 149.046 54.8837C148.797 54.7592 148.58 54.5782 148.413 54.355C148.245 54.1318 148.132 53.8725 148.082 53.5976C148.031 53.3228 148.045 53.04 148.123 52.7715L149.37 48.4344L147.411 40.6904C147.344 40.4249 147.339 40.1476 147.394 39.8796C147.45 39.6115 147.566 39.3598 147.733 39.1436C147.901 38.9273 148.115 38.7523 148.36 38.6319C148.604 38.5114 148.873 38.4487 149.146 38.4484L152.43 38.4386C152.85 38.4375 153.257 38.5851 153.579 38.8554C153.902 39.1258 154.119 39.5016 154.194 39.917L154.505 41.6303L156.396 39.1338C156.564 38.9142 156.779 38.7357 157.025 38.6119C157.272 38.4881 157.543 38.4222 157.819 38.4191L161.102 38.4093C161.444 38.4089 161.778 38.5063 162.066 38.6898C162.354 38.8734 162.584 39.1357 162.729 39.4459C162.875 39.7561 162.929 40.1014 162.886 40.4414C162.843 40.7815 162.704 41.1021 162.486 41.3659L155.792 49.4722L154.564 53.7505C154.456 54.1261 154.229 54.4561 153.918 54.691C153.607 54.9258 153.228 55.0527 152.839 55.0526L149.848 55.0722Z" fill="#222222"/>
<path d="M68.6479 51.0471L74.2802 51.0373L73.715 53.0052L64.7988 53.0247L65.1594 51.752L73.4617 41.9618L67.9268 41.9716L68.492 39.994L77.3302 39.9744L76.9794 41.1982L68.6479 51.0471Z" fill="#222222"/>
<path d="M64.7983 53.7106C64.691 53.7106 64.5852 53.6859 64.4889 53.6384C64.3926 53.5908 64.3084 53.5218 64.2429 53.4364C64.1793 53.3506 64.1357 53.2514 64.1155 53.1464C64.0952 53.0413 64.0988 52.933 64.1259 52.8295L64.4865 51.5567C64.514 51.4633 64.5604 51.3767 64.6229 51.3022L71.9507 42.6574L67.9068 42.6672C67.7995 42.6672 67.6936 42.6425 67.5973 42.595C67.5011 42.5475 67.4169 42.4784 67.3513 42.3931C67.2877 42.3072 67.2442 42.2081 67.224 42.103C67.2037 41.9979 67.2073 41.8896 67.2344 41.7861L67.7996 39.8085C67.8414 39.6644 67.9285 39.5378 68.048 39.4478C68.1675 39.3578 68.3128 39.3091 68.4622 39.3092L77.3004 39.2896C77.4077 39.2896 77.5136 39.3143 77.6099 39.3618C77.7062 39.4093 77.7903 39.4784 77.8559 39.5637C77.9195 39.6496 77.963 39.7487 77.9833 39.8538C78.0035 39.9589 77.9999 40.0672 77.9728 40.1707L77.622 41.3945C77.5945 41.4879 77.548 41.5745 77.4856 41.649L70.148 50.3427L74.2797 50.3329C74.3869 50.3329 74.4928 50.3576 74.5891 50.4052C74.6854 50.4527 74.7695 50.5218 74.8351 50.6071C74.8987 50.6929 74.9422 50.7921 74.9625 50.8972C74.9827 51.0023 74.9791 51.1106 74.952 51.2141L74.3868 53.1819C74.3451 53.326 74.2579 53.4525 74.1384 53.5426C74.0189 53.6326 73.8736 53.6813 73.7242 53.6812L64.7983 53.7106ZM65.7922 52.0854L65.724 52.3204L73.198 52.3008L73.3637 51.7232L68.6473 51.733C68.5158 51.7342 68.3867 51.6969 68.276 51.6257C68.1652 51.5544 68.0775 51.4522 68.0237 51.3316C67.9662 51.2114 67.9447 51.0771 67.962 50.9449C67.9794 50.8128 68.0346 50.6886 68.1212 50.5875L76.365 40.856L76.4234 40.6602L69.0176 40.6798L68.852 41.2672L73.4709 41.2574C73.6024 41.2561 73.7315 41.2934 73.8422 41.3647C73.953 41.436 74.0407 41.5382 74.0945 41.6588C74.1521 41.7789 74.1735 41.9133 74.1562 42.0454C74.1389 42.1776 74.0836 42.3018 73.9971 42.4029L65.7922 52.0854Z" fill="#222222"/>
<path d="M82.9522 48.3752L77.5635 48.385L78.1287 46.4073L83.5173 46.3975L82.9522 48.3752Z" fill="#222222"/>
<path d="M77.5629 49.0885C77.4557 49.0886 77.3498 49.0639 77.2535 49.0163C77.1572 48.9688 77.0731 48.8997 77.0075 48.8144C76.9439 48.7285 76.9004 48.6294 76.8801 48.5243C76.8599 48.4192 76.8634 48.3109 76.8906 48.2074L77.4557 46.2298C77.4975 46.0857 77.5847 45.9591 77.7042 45.8691C77.8237 45.7791 77.969 45.7304 78.1184 45.7305L83.5071 45.7207C83.6143 45.7207 83.7202 45.7454 83.8165 45.7929C83.9128 45.8404 83.9969 45.9095 84.0625 45.9948C84.1261 46.0807 84.1696 46.1798 84.1899 46.2849C84.2101 46.39 84.2065 46.4983 84.1794 46.6018L83.6142 48.5794C83.5725 48.7235 83.4853 48.8501 83.3658 48.9401C83.2463 49.0302 83.101 49.0788 82.9516 49.0787L77.5629 49.0885ZM78.6446 47.1109L78.4789 47.6983L82.4352 47.6885L82.6008 47.1011L78.6446 47.1109Z" fill="#222222"/>
<path d="M94.0318 52.9468L91.0402 52.9566L92.5994 47.523L87.6004 47.5328L86.0413 52.9664L83.04 52.9762L86.7722 39.9454L89.7735 39.9356L88.1559 45.565L93.1548 45.5552L94.7724 39.9258L97.7639 39.916L94.0318 52.9468Z" fill="#222222"/>
<path d="M83.0395 53.6699C82.9322 53.6699 82.8264 53.6452 82.7301 53.5977C82.6338 53.5501 82.5496 53.4811 82.4841 53.3958C82.4205 53.3099 82.3769 53.2107 82.3567 53.1057C82.3364 53.0006 82.34 52.8923 82.3671 52.7888L86.0992 39.758C86.141 39.6139 86.2282 39.4874 86.3477 39.3973C86.4672 39.3073 86.6125 39.2586 86.7619 39.2587L89.7632 39.2489C89.8704 39.2489 89.9763 39.2736 90.0726 39.3211C90.1689 39.3686 90.253 39.4377 90.3186 39.523C90.3822 39.6089 90.4257 39.708 90.446 39.8131C90.4662 39.9182 90.4626 40.0265 90.4355 40.13L89.0713 44.8685L92.628 44.8587L94.0994 39.7286C94.1412 39.5845 94.2284 39.458 94.3479 39.368C94.4673 39.2779 94.6127 39.2293 94.762 39.2293L97.7536 39.2195C97.8609 39.2195 97.9667 39.2442 98.063 39.2917C98.1593 39.3393 98.2435 39.4083 98.309 39.4937C98.3726 39.5795 98.4162 39.6787 98.4364 39.7837C98.4566 39.8888 98.4531 39.9971 98.4259 40.1006L94.6938 53.1314C94.6521 53.2755 94.5649 53.4021 94.4454 53.4921C94.3259 53.5821 94.1806 53.6308 94.0312 53.6307L91.0397 53.6405C90.9324 53.6405 90.8265 53.6158 90.7302 53.5683C90.634 53.5208 90.5498 53.4517 90.4842 53.3664C90.4206 53.2805 90.3771 53.1814 90.3568 53.0763C90.3366 52.9712 90.3402 52.8629 90.3673 52.7594L91.6828 48.2167L88.1261 48.2265L86.7131 53.1608C86.6714 53.3049 86.5842 53.4314 86.4647 53.5215C86.3452 53.6115 86.1999 53.6601 86.0505 53.6601L83.0395 53.6699ZM87.2978 40.6391L83.9555 52.2797H85.5243L86.9373 47.3454C86.979 47.2013 87.0662 47.0748 87.1857 46.9847C87.3052 46.8947 87.4505 46.8461 87.5999 46.8461L92.5988 46.8363C92.7061 46.8363 92.8119 46.861 92.9082 46.9085C93.0045 46.9561 93.0887 47.0251 93.1542 47.1104C93.2178 47.1963 93.2614 47.2955 93.2816 47.4005C93.3018 47.5056 93.2983 47.6139 93.2712 47.7174L91.9654 52.2601H93.5245L96.8668 40.6195H95.3077L93.8363 45.7496C93.7946 45.8937 93.7074 46.0202 93.5879 46.1103C93.4684 46.2003 93.3231 46.249 93.1737 46.2489L88.1748 46.2587C88.0675 46.2587 87.9617 46.234 87.8654 46.1865C87.7691 46.139 87.6849 46.0699 87.6194 45.9846C87.5558 45.8987 87.5122 45.7996 87.492 45.6945C87.4717 45.5894 87.4753 45.4811 87.5024 45.3776L88.8667 40.6391H87.2978Z" fill="#222222"/>
<path d="M109.214 48.2287C108.775 49.7657 107.918 50.9634 106.641 51.8217C105.365 52.6832 103.874 53.114 102.159 53.1238C100.444 53.1335 99.2061 52.7028 98.4266 51.8412C97.647 50.9797 97.4814 49.7853 97.9199 48.258L98.9625 44.6259C99.401 43.0986 100.249 41.9042 101.525 41.0328C102.802 40.1615 104.283 39.721 105.998 39.721C107.713 39.721 108.96 40.1517 109.74 41.0133C110.52 41.8748 110.695 43.079 110.256 44.6063L109.214 48.2287ZM107.275 44.5769C107.547 43.6273 107.518 42.9126 107.206 42.4329C106.895 41.9531 106.29 41.7084 105.423 41.7084C104.556 41.7084 103.825 41.9531 103.25 42.4329C102.675 42.9126 102.246 43.637 101.974 44.5867L100.921 48.2482C100.648 49.2175 100.658 49.9419 100.96 50.4217C101.262 50.9014 101.857 51.1461 102.724 51.1461C103.591 51.1461 104.332 50.9014 104.916 50.4119C105.501 49.9224 105.94 49.1979 106.212 48.2384L107.275 44.5769Z" fill="#222222"/>
<path d="M102.139 53.8089C100.248 53.8089 98.8255 53.2998 97.9192 52.3012C96.974 51.2537 96.7531 49.8373 97.2566 48.0523L98.2993 44.4201C98.7371 42.7953 99.744 41.3838 101.135 40.4453C102.509 39.4956 104.146 39.0159 105.988 39.0159H106.017C107.907 39.0159 109.33 39.525 110.246 40.5334C111.201 41.5809 111.425 43.0103 110.918 44.7823L109.876 48.4145C109.388 50.0984 108.433 51.4397 107.021 52.3893C105.637 53.3292 104 53.7991 102.158 53.8089H102.139ZM106.017 40.4061H105.997C104.438 40.4061 103.064 40.8075 101.914 41.6005C100.765 42.3935 100.024 43.4411 99.6245 44.8215L98.5818 48.4537C98.2116 49.746 98.3285 50.7054 98.9326 51.3809C99.566 52.076 100.638 52.4285 102.129 52.4285H102.148C103.717 52.4285 105.091 52.0271 106.251 51.2439C107.41 50.4607 108.151 49.4229 108.55 48.0327L109.593 44.4005C109.963 43.1082 109.846 42.1488 109.223 41.4732C108.589 40.7683 107.508 40.4061 106.017 40.4061ZM102.713 51.8313C101.593 51.8313 100.813 51.4788 100.375 50.7935C99.9558 50.1278 99.9168 49.2369 100.248 48.0523L101.301 44.3907C101.612 43.304 102.119 42.4621 102.801 41.8942C103.503 41.3068 104.38 41.0131 105.413 41.0131C106.524 41.0131 107.313 41.3558 107.771 42.0411C108.209 42.697 108.258 43.6173 107.927 44.7628L106.874 48.4243C106.563 49.5208 106.046 50.3725 105.344 50.9502C104.643 51.5278 103.746 51.8313 102.713 51.8411C102.723 51.8313 102.723 51.8313 102.713 51.8313ZM105.432 42.4033H105.422C104.711 42.4033 104.136 42.5893 103.688 42.9711C103.22 43.3628 102.869 43.9697 102.636 44.7823L101.583 48.4439C101.369 49.1879 101.359 49.7558 101.544 50.0495C101.71 50.3138 102.109 50.4509 102.723 50.4509H102.733C103.454 50.4509 104.029 50.2649 104.497 49.8732C104.964 49.4816 105.335 48.8649 105.569 48.0425L106.621 44.3809C106.826 43.6565 106.835 43.1082 106.64 42.8145C106.446 42.5404 106.046 42.4033 105.432 42.4033Z" fill="#222222"/>
<path d="M121.726 48.8441L121.735 48.8931C121.365 50.2931 120.634 51.3406 119.562 52.0357C118.49 52.7308 117.136 53.0833 115.509 53.0833C113.842 53.0833 112.634 52.6819 111.893 51.8497C111.153 51.0176 110.997 49.8525 111.435 48.335L112.546 44.4679C112.985 42.9504 113.797 41.7723 114.982 40.9336C116.171 40.0917 117.575 39.6707 119.182 39.6707C120.878 39.6707 122.086 40.0134 122.798 40.6987C123.509 41.384 123.645 42.4315 123.217 43.8413L123.178 43.8903L120.254 43.9001C120.498 43.0679 120.488 42.4805 120.235 42.1476C119.981 41.8148 119.436 41.6483 118.617 41.6483C117.924 41.6302 117.249 41.8748 116.727 42.3336C116.22 42.7938 115.83 43.4889 115.557 44.4287L114.447 48.3155C114.174 49.2651 114.174 49.97 114.447 50.4204C114.719 50.8707 115.265 51.1057 116.084 51.0959C116.834 51.0959 117.409 50.9294 117.838 50.5966C118.266 50.2637 118.588 49.6763 118.832 48.8246L121.726 48.8441Z" fill="#222222"/>
<path d="M115.479 53.7789C113.627 53.7789 112.244 53.2894 111.376 52.3202C110.47 51.3118 110.256 49.902 110.762 48.1398L111.873 44.2727C112.351 42.6083 113.257 41.2964 114.573 40.3664C115.869 39.4461 117.418 38.9859 119.172 38.9762H119.201C121.082 38.9762 122.417 39.3775 123.265 40.1999C124.171 41.081 124.375 42.3734 123.869 44.0377C123.85 44.104 123.82 44.1668 123.781 44.2237L123.742 44.2727C123.679 44.3652 123.595 44.4411 123.496 44.4939C123.398 44.5467 123.288 44.5749 123.177 44.5761L120.254 44.5859C120.146 44.586 120.04 44.5613 119.944 44.5137C119.848 44.4662 119.764 44.3971 119.698 44.3118C119.635 44.226 119.591 44.1268 119.571 44.0217C119.551 43.9166 119.554 43.8083 119.581 43.7048C119.786 42.9803 119.737 42.6475 119.669 42.5692C119.649 42.5496 119.474 42.344 118.607 42.344H118.597C118.012 42.344 117.545 42.5104 117.165 42.8531C116.755 43.2153 116.434 43.8125 116.2 44.6251L115.089 48.5118C114.806 49.5006 114.923 49.9118 115.021 50.0685C115.196 50.3524 115.683 50.4111 116.063 50.4111C116.648 50.4111 117.096 50.2936 117.389 50.0587C117.681 49.8237 117.954 49.3342 118.149 48.6391C118.191 48.495 118.278 48.3685 118.397 48.2784C118.517 48.1884 118.662 48.1397 118.811 48.1398L121.715 48.13C121.885 48.1291 122.049 48.1919 122.175 48.3059C122.301 48.42 122.38 48.5771 122.397 48.7468L122.407 48.7957C122.416 48.8811 122.409 48.9672 122.388 49.0503C121.969 50.6069 121.14 51.8013 119.922 52.5943C118.733 53.358 117.252 53.7496 115.498 53.7594C115.498 53.7789 115.489 53.7789 115.479 53.7789ZM119.201 40.3762H119.172C117.71 40.3762 116.434 40.758 115.372 41.5118C114.309 42.2657 113.598 43.2936 113.208 44.6643L112.097 48.5314C111.727 49.8139 111.834 50.7538 112.409 51.3901C113.013 52.0559 114.046 52.3887 115.489 52.3887H115.508C116.989 52.3887 118.227 52.0657 119.191 51.4489C119.904 50.9851 120.461 50.3164 120.79 49.53H119.328C119.055 50.2643 118.704 50.8027 118.256 51.1552C117.71 51.5859 116.979 51.8013 116.083 51.8013H116.073C115.011 51.8013 114.261 51.4587 113.861 50.7831C113.481 50.1468 113.452 49.2754 113.783 48.13L114.894 44.2433C115.196 43.1762 115.664 42.3636 116.258 41.8153C116.892 41.2475 117.681 40.9538 118.607 40.9538H118.626C119.679 40.9538 120.38 41.2083 120.78 41.7174C121.062 42.0796 121.17 42.5692 121.101 43.1957H122.67C122.972 41.8349 122.485 41.365 122.31 41.1985C121.735 40.6601 120.692 40.3762 119.201 40.3762Z" fill="#222222"/>
<path d="M128.303 47.4057H127.484L125.915 52.8785L122.914 52.8883L126.646 39.8575L129.647 39.8477L128.118 45.1833H128.732L133.555 39.8379L137.287 39.8281L131.109 45.7903L133.886 52.8589L130.047 52.8687L128.303 47.4057Z" fill="#222222"/>
<path d="M122.914 53.5726C122.807 53.5727 122.701 53.548 122.605 53.5004C122.509 53.4529 122.425 53.3838 122.359 53.2985C122.295 53.2127 122.252 53.1135 122.232 53.0084C122.211 52.9033 122.215 52.795 122.242 52.6915L125.974 39.6608C126.016 39.5167 126.103 39.3901 126.223 39.3001C126.342 39.2101 126.488 39.1614 126.637 39.1615L129.638 39.1517C129.745 39.1517 129.851 39.1764 129.948 39.2239C130.044 39.2714 130.128 39.3405 130.194 39.4258C130.257 39.5117 130.301 39.6108 130.321 39.7159C130.341 39.821 130.338 39.9293 130.311 40.0328L129.317 43.4985L133.039 39.3671C133.102 39.2951 133.18 39.2378 133.268 39.1989C133.355 39.16 133.45 39.1406 133.546 39.1419L137.278 39.1321C137.415 39.1331 137.549 39.1744 137.663 39.251C137.778 39.3275 137.867 39.4359 137.921 39.5629C137.973 39.6922 137.985 39.8341 137.955 39.9703C137.925 40.1065 137.856 40.2306 137.755 40.3265L131.909 45.9657L134.51 52.6034C134.553 52.7085 134.568 52.8224 134.557 52.935C134.545 53.0477 134.505 53.1557 134.442 53.2496C134.381 53.3436 134.297 53.4207 134.198 53.4737C134.099 53.5267 133.989 53.554 133.877 53.5531L130.038 53.5628C129.892 53.5633 129.75 53.517 129.633 53.4307C129.515 53.3444 129.428 53.2226 129.385 53.0831L127.904 48.4426L126.578 53.0733C126.537 53.2174 126.449 53.344 126.33 53.434C126.21 53.524 126.065 53.5727 125.916 53.5726H122.914ZM127.173 40.5419L123.83 52.1824H125.399L126.822 47.2188C126.864 47.0747 126.951 46.9482 127.07 46.8581C127.19 46.7681 127.335 46.7195 127.485 46.7195H128.303C128.449 46.719 128.591 46.7653 128.708 46.8517C128.825 46.938 128.912 47.0598 128.956 47.1992L130.544 52.1726L132.864 52.1629L130.457 46.044C130.405 45.9163 130.393 45.7758 130.423 45.6411C130.452 45.5065 130.522 45.3841 130.622 45.2901L135.563 40.5223H133.857L129.239 45.6328C129.175 45.7047 129.097 45.7621 129.01 45.801C128.922 45.8398 128.828 45.8593 128.732 45.858H128.118C128.011 45.858 127.905 45.8333 127.809 45.7858C127.712 45.7382 127.628 45.6692 127.563 45.5838C127.499 45.498 127.455 45.3988 127.435 45.2938C127.415 45.1887 127.419 45.0804 127.446 44.9769L128.722 40.5321L127.173 40.5419Z" fill="#222222"/>
<path d="M144.907 47.0837L140.172 47.0934L139.09 50.8823L144.771 50.8725L144.206 52.8403L135.523 52.8599L139.256 39.8291L147.918 39.8095L147.353 41.7871L141.701 41.7969L140.746 45.1256L145.482 45.1158L144.907 47.0837Z" fill="#222222"/>
<path d="M135.514 53.5437C135.407 53.5437 135.301 53.519 135.205 53.4714C135.108 53.4239 135.024 53.3548 134.959 53.2695C134.895 53.1837 134.852 53.0845 134.831 52.9794C134.811 52.8744 134.815 52.766 134.842 52.6625L138.574 39.6318C138.616 39.4877 138.703 39.3611 138.822 39.2711C138.942 39.1811 139.087 39.1324 139.236 39.1325L147.899 39.1129C148.007 39.1129 148.112 39.1376 148.209 39.1851C148.305 39.2326 148.389 39.3017 148.455 39.387C148.518 39.4729 148.562 39.572 148.582 39.6771C148.602 39.7822 148.599 39.8905 148.572 39.994L148.007 41.9716C147.965 42.1157 147.878 42.2423 147.758 42.3323C147.639 42.4223 147.493 42.471 147.344 42.4709L142.209 42.4807L141.653 44.4192L145.473 44.4094C145.58 44.4094 145.686 44.4341 145.782 44.4816C145.879 44.5291 145.963 44.5982 146.028 44.6835C146.092 44.7694 146.136 44.8685 146.156 44.9736C146.176 45.0787 146.172 45.187 146.145 45.2905L145.58 47.2583C145.538 47.4024 145.451 47.529 145.332 47.619C145.212 47.7091 145.067 47.7577 144.918 47.7576L140.698 47.7674L140.006 50.166L144.762 50.1562C144.869 50.1562 144.975 50.1809 145.071 50.2285C145.167 50.276 145.252 50.3451 145.317 50.4304C145.381 50.5162 145.424 50.6154 145.444 50.7205C145.465 50.8255 145.461 50.9339 145.434 51.0374L144.869 53.0052C144.827 53.1493 144.74 53.2758 144.62 53.3659C144.501 53.4559 144.356 53.5045 144.206 53.5045L135.514 53.5437ZM139.772 40.5129L136.43 52.1534L143.67 52.1339L143.836 51.5562L139.081 51.566C138.973 51.566 138.867 51.5413 138.771 51.4938C138.675 51.4463 138.591 51.3772 138.525 51.2919C138.462 51.206 138.418 51.1069 138.398 51.0018C138.378 50.8967 138.381 50.7884 138.408 50.6849L139.49 46.8961C139.532 46.752 139.619 46.6255 139.738 46.5354C139.858 46.4454 140.003 46.3968 140.152 46.3968L144.372 46.387L144.538 45.8094L140.718 45.8192C140.61 45.8192 140.505 45.7945 140.408 45.747C140.312 45.6995 140.228 45.6304 140.162 45.5451C140.099 45.4592 140.055 45.36 140.035 45.255C140.015 45.1499 140.018 45.0416 140.045 44.9381L141 41.6094C141.042 41.4653 141.129 41.3388 141.249 41.2487C141.368 41.1587 141.514 41.11 141.663 41.1101L146.798 41.1003L146.964 40.5129H139.772Z" fill="#222222"/>
<path d="M153.502 45.4483H153.571L157.868 39.7798L161.152 39.77L154.223 48.17L152.888 52.8105L149.897 52.8203L151.271 48.0133L149.176 39.7994L152.46 39.7896L153.502 45.4483Z" fill="#222222"/>
<path d="M149.887 53.515C149.779 53.515 149.674 53.4903 149.577 53.4428C149.481 53.3952 149.397 53.3262 149.331 53.2408C149.268 53.155 149.224 53.0558 149.204 52.9508C149.184 52.8457 149.187 52.7374 149.214 52.6339L150.54 48.0129L148.503 39.9849C148.477 39.8823 148.474 39.775 148.496 39.6713C148.518 39.5677 148.564 39.4706 148.63 39.3877C148.695 39.3055 148.778 39.2391 148.873 39.1934C148.967 39.1477 149.07 39.1237 149.175 39.1234L152.459 39.1136C152.621 39.1142 152.777 39.1712 152.901 39.2748C153.026 39.3783 153.111 39.522 153.141 39.6814L153.911 43.8618L157.312 39.3681C157.375 39.2823 157.457 39.2126 157.552 39.165C157.647 39.1173 157.752 39.093 157.858 39.094L161.142 39.0842C161.272 39.0854 161.4 39.1237 161.511 39.1947C161.621 39.2657 161.709 39.3665 161.765 39.4856C161.822 39.6041 161.843 39.7369 161.826 39.8674C161.809 39.9979 161.754 40.1205 161.668 40.2199L154.827 48.5024L153.531 53.0059C153.489 53.15 153.402 53.2765 153.283 53.3666C153.163 53.4566 153.018 53.5052 152.868 53.5052L149.887 53.515ZM150.062 40.494L151.923 47.8464C151.954 47.9657 151.951 48.0913 151.914 48.2087L150.793 52.1248H152.352L153.541 47.9835C153.569 47.8902 153.615 47.8036 153.677 47.729L159.67 40.4744H158.208L154.116 45.8688C154.053 45.9547 153.971 46.0243 153.876 46.072C153.781 46.1196 153.676 46.1439 153.57 46.1429H153.502C153.34 46.1423 153.184 46.0853 153.06 45.9817C152.935 45.8782 152.85 45.7345 152.82 45.5751L151.884 40.4842L150.062 40.494Z" fill="#222222"/>
<path d="M68.8325 50.5658L74.4647 50.556L73.8996 52.5239L64.9834 52.5434L65.3439 51.2707L73.6462 41.4805L68.1114 41.4903L68.6765 39.5127L77.5148 39.4931L77.164 40.7169L68.8325 50.5658Z" fill="white"/>
<path d="M83.1367 47.9047L77.748 47.9145L78.3132 45.9369L83.7019 45.9271L83.1367 47.9047Z" fill="white"/>
<path d="M94.2163 52.4761L91.2248 52.4859L92.7839 47.0524L87.785 47.0621L86.2259 52.4957L83.2246 52.5055L86.9567 39.4747L89.958 39.4649L88.3404 45.0943L93.3393 45.0845L94.9569 39.4552L97.9484 39.4454L94.2163 52.4761Z" fill="white"/>
<path d="M109.398 47.7571C108.96 49.2941 108.102 50.4918 106.826 51.3501C105.549 52.2116 104.058 52.6424 102.343 52.6522C100.628 52.6619 99.3907 52.2312 98.6112 51.3696C97.8316 50.5081 97.6659 49.3137 98.1044 47.7864L99.1471 44.1543C99.5856 42.627 100.433 41.4326 101.71 40.5613C102.986 39.6899 104.468 39.2494 106.183 39.2494C107.898 39.2494 109.145 39.6801 109.924 40.5417C110.704 41.4032 110.879 42.6074 110.441 44.1347L109.398 47.7571ZM107.449 44.0955C107.722 43.1459 107.693 42.4312 107.381 41.9515C107.069 41.4717 106.465 41.227 105.598 41.227C104.731 41.227 104 41.4717 103.425 41.9515C102.85 42.4312 102.421 43.1557 102.148 44.1053L101.096 47.7669C100.823 48.7361 100.833 49.4606 101.135 49.9403C101.437 50.42 102.031 50.6647 102.899 50.6647C103.766 50.6647 104.507 50.42 105.091 49.9305C105.676 49.441 106.114 48.7165 106.387 47.7571L107.449 44.0955Z" fill="white"/>
<path d="M121.91 48.3646L121.92 48.4136C121.55 49.8136 120.819 50.8611 119.747 51.5562C118.675 52.2513 117.321 52.6038 115.693 52.6038C114.027 52.6038 112.819 52.2024 112.078 51.3702C111.337 50.538 111.182 49.373 111.62 47.8555L112.731 43.9884C113.169 42.4709 113.981 41.2928 115.167 40.4541C116.356 39.6122 117.759 39.1912 119.367 39.1912C121.062 39.1912 122.271 39.5338 122.982 40.2191C123.693 40.9045 123.83 41.952 123.401 43.3618L123.362 43.4108L120.439 43.4205C120.682 42.5884 120.673 42.001 120.419 41.6681C120.166 41.3352 119.62 41.1688 118.802 41.1688C118.108 41.1507 117.433 41.3953 116.911 41.8541C116.405 42.3143 116.015 43.0094 115.742 43.9492L114.631 47.8359C114.358 48.7856 114.358 49.4905 114.631 49.9408C114.904 50.3912 115.45 50.6261 116.268 50.6163C117.018 50.6163 117.593 50.4499 118.022 50.1171C118.451 49.7842 118.772 49.1968 119.016 48.345L121.91 48.3646Z" fill="white"/>
<path d="M128.488 46.9351H127.67L126.101 52.4078L123.1 52.4176L126.832 39.3869L129.833 39.3771L128.303 44.7127H128.917L133.741 39.3673L137.473 39.3575L131.295 45.3197L134.072 52.3883L130.233 52.3981L128.488 46.9351Z" fill="white"/>
<path d="M145.093 46.603L140.357 46.6127L139.275 50.4016L144.956 50.3918L144.391 52.3596L135.709 52.3792L139.441 39.3484L148.104 39.3288L147.539 41.3065L141.887 41.3163L140.932 44.6449L145.668 44.6351L145.093 46.603Z" fill="white"/>
<path d="M153.677 44.9776H153.745L158.043 39.309L161.327 39.2992L154.398 47.6992L153.063 52.3398L150.072 52.3496L151.446 47.5426L149.36 39.3286L152.644 39.3188L153.677 44.9776Z" fill="white"/>
</g>
<defs>
<filter id="filter0_d_649_1886" x="0" y="0" width="167" height="76" filterUnits="userSpaceOnUse" color-interpolation-filters="sRGB">
<feFlood flood-opacity="0" result="BackgroundImageFix"/>
<feColorMatrix in="SourceAlpha" type="matrix" values="0 0 0 0 0 0 0 0 0 0 0 0 0 0 0 0 0 0 127 0" result="hardAlpha"/>
<feOffset dx="-3" dy="2"/>
<feGaussianBlur stdDeviation="1.5"/>
<feColorMatrix type="matrix" values="0 0 0 0 0 0 0 0 0 0 0 0 0 0 0 0 0 0 0.25 0"/>
<feBlend mode="normal" in2="BackgroundImageFix" result="effect1_dropShadow_649_1886"/>
<feBlend mode="normal" in="SourceGraphic" in2="effect1_dropShadow_649_1886" result="shape"/>
</filter>
<clipPath id="clip0_649_1886">
<rect width="161" height="70" fill="white" transform="translate(6 1)"/>
</clipPath>
</defs>
</svg>
