<svg width="110" height="123" viewBox="0 0 110 123" fill="none" xmlns="http://www.w3.org/2000/svg">
<path fill-rule="evenodd" clip-rule="evenodd" d="M48.0166 1.87458C52.3327 -0.624859 57.6673 -0.624862 61.9834 1.87458L103.11 25.6903C107.376 28.161 110 32.6995 110 37.6079V85.3921C110 90.3005 107.376 94.839 103.11 97.3097L61.9834 121.125C57.6673 123.625 52.3327 123.625 48.0166 121.125L6.89047 97.3097C2.62409 94.839 0 90.3005 0 85.3921V37.6079C0 32.6995 2.62408 28.161 6.89047 25.6903L48.0166 1.87458ZM57.9929 8.68459C56.1431 7.6134 53.8569 7.6134 52.0071 8.68459L10.881 32.5004C9.05254 33.5592 7.92793 35.5043 7.92793 37.6079V85.3921C7.92793 87.4957 9.05254 89.4408 10.881 90.4996L52.0071 114.315C53.8569 115.387 56.1431 115.387 57.9929 114.315L99.119 90.4996C100.947 89.4408 102.072 87.4957 102.072 85.3921V37.6079C102.072 35.5043 100.947 33.5592 99.119 32.5004L57.9929 8.68459Z" fill="#E16428"/>
</svg>
