<svg width="58" height="58" viewBox="0 0 58 58" fill="none" xmlns="http://www.w3.org/2000/svg">
<g filter="url(#filter0_d_860_303)">
<path d="M29 50C42.8071 50 54 38.8071 54 25C54 11.1929 42.8071 0 29 0C15.1929 0 4 11.1929 4 25C4 38.8071 15.1929 50 29 50Z" fill="#3D3D3D"/>
<path d="M36.0911 37.8042C35.7732 37.9735 35.4078 38.0308 35.0508 37.9847C33.9848 37.8467 33.0375 37.5771 32.1047 37.2426C29.1295 36.1757 26.5722 34.4298 24.2291 32.3473C21.5815 29.9943 19.3687 27.2873 17.7311 24.1309C16.9379 22.6022 16.3451 21.0009 16.0484 19.2938C15.9461 18.7061 15.9927 18.1818 16.3178 17.6641C17.511 15.7638 18.8855 14.0204 20.6088 12.5708C20.719 12.4783 20.8422 12.4015 20.9594 12.3175C21.6491 11.8232 22.2125 11.9327 22.9067 12.4616C23.0269 12.5532 23.1329 12.672 23.2204 12.7961C24.3294 14.3676 25.3966 15.9664 26.2379 17.7026C26.4217 18.082 26.5616 18.4853 26.6945 18.8866C26.8583 19.3806 26.762 19.8555 26.4111 20.2258C25.9842 20.6764 25.5165 21.0895 25.0493 21.4995C24.4747 22.0032 24.4598 21.9974 24.7617 22.7132C25.9791 25.6012 28.0033 27.7146 30.841 29.0378C31.1662 29.1894 31.5162 29.287 31.8486 29.4244C31.9912 29.4832 32.0754 29.4544 32.1719 29.3395C32.5492 28.8901 32.9282 28.4415 33.3221 28.0067C33.4965 27.8141 33.6951 27.6385 33.904 27.4835C34.257 27.2215 34.6751 27.1129 35.082 27.2731C35.8501 27.5754 36.6373 27.8644 37.3436 28.282C38.6458 29.0523 39.8995 29.9054 41.1647 30.7373C41.5876 31.0153 41.8389 31.4263 41.9624 31.9218C42.03 32.1932 42.0103 32.4486 41.8722 32.6803C41.6927 32.9814 41.5141 33.2917 41.2846 33.5534C39.802 35.2426 38.0832 36.6488 36.1414 37.7773C36.1241 37.786 36.1074 37.7951 36.0911 37.8042Z" fill="white"/>
</g>
<defs>
<filter id="filter0_d_860_303" x="0" y="0" width="58" height="58" filterUnits="userSpaceOnUse" color-interpolation-filters="sRGB">
<feFlood flood-opacity="0" result="BackgroundImageFix"/>
<feColorMatrix in="SourceAlpha" type="matrix" values="0 0 0 0 0 0 0 0 0 0 0 0 0 0 0 0 0 0 127 0" result="hardAlpha"/>
<feOffset dy="4"/>
<feGaussianBlur stdDeviation="2"/>
<feComposite in2="hardAlpha" operator="out"/>
<feColorMatrix type="matrix" values="0 0 0 0 0 0 0 0 0 0 0 0 0 0 0 0 0 0 0.25 0"/>
<feBlend mode="normal" in2="BackgroundImageFix" result="effect1_dropShadow_860_303"/>
<feBlend mode="normal" in="SourceGraphic" in2="effect1_dropShadow_860_303" result="shape"/>
</filter>
</defs>
</svg>
