<svg width="26" height="26" viewBox="0 0 26 26" fill="none" xmlns="http://www.w3.org/2000/svg">
<path d="M20.0911 25.8042C19.7732 25.9735 19.4078 26.0308 19.0508 25.9847C17.9848 25.8467 17.0375 25.5771 16.1047 25.2426C13.1295 24.1757 10.5722 22.4298 8.22914 20.3473C5.58155 17.9943 3.36871 15.2873 1.7311 12.1309C0.937884 10.6022 0.345089 9.00092 0.0483882 7.29384C-0.0539431 6.70611 -0.00731873 6.18177 0.317841 5.66409C1.511 3.76383 2.88551 2.02036 4.60879 0.570753C4.719 0.478258 4.84222 0.401531 4.95938 0.317527C5.64906 -0.176795 6.21249 -0.0673166 6.90671 0.461578C7.0269 0.553164 7.13287 0.672044 7.22036 0.79608C8.32936 2.3676 9.39657 3.96641 10.2379 5.70261C10.4217 6.08199 10.5616 6.48534 10.6945 6.88656C10.8583 7.38057 10.762 7.85549 10.4111 8.22577C9.98422 8.67643 9.51646 9.08947 9.04931 9.49949C8.47468 10.0032 8.45984 9.99745 8.76169 10.7132C9.97907 13.6012 12.0033 15.7146 14.841 17.0378C15.1662 17.1894 15.5162 17.287 15.8486 17.4244C15.9912 17.4832 16.0754 17.4544 16.1719 17.3395C16.5492 16.8901 16.9282 16.4415 17.3221 16.0067C17.4965 15.8141 17.6951 15.6385 17.904 15.4835C18.257 15.2215 18.6751 15.1129 19.082 15.2731C19.8501 15.5754 20.6373 15.8644 21.3436 16.282C22.6458 17.0523 23.8995 17.9054 25.1647 18.7373C25.5876 19.0153 25.8389 19.4263 25.9624 19.9218C26.03 20.1932 26.0103 20.4486 25.8722 20.6803C25.6927 20.9814 25.5141 21.2917 25.2846 21.5534C23.802 23.2426 22.0832 24.6488 20.1414 25.7773C20.1241 25.786 20.1074 25.7951 20.0911 25.8042Z" fill="white"/>
</svg>
