<svg width="80" height="80" viewBox="0 0 80 80" fill="none" xmlns="http://www.w3.org/2000/svg">
<path d="M65 52.7852C64.8066 53.7014 64.6712 54.637 64.4004 55.5339C63.5364 58.3793 61.8666 60.6699 59.4875 62.4443C59.3714 62.5282 59.249 62.6056 59.0491 62.7346C59.0491 61.9926 59.0555 61.3151 59.0491 60.6441C59.0168 58.1987 58.0433 56.2049 56.1284 54.6886C55.1549 53.9144 54.0459 53.4434 52.808 53.2627C52.7113 53.2498 52.6146 53.224 52.5243 53.1982C52.4986 53.1917 52.4792 53.1595 52.447 53.1336C55.2967 52.5013 56.3025 50.1269 56.0962 48.3267C55.8383 46.0619 53.9686 44.3908 51.7313 44.3908C49.4941 44.3908 47.6179 46.0619 47.36 48.3202C47.1537 50.1398 48.1788 52.5142 51.0092 53.1336C45.8707 54.2628 44.0396 57.689 44.4458 62.7605C44.2201 62.6056 44.0718 62.5217 43.9365 62.4185C41.8797 60.8764 40.4226 58.8762 39.4813 56.4953C39.3846 56.2501 39.3072 56.0952 38.9849 56.0952C35.8966 56.1146 32.8083 56.1081 29.7136 56.1081C29.6491 56.1081 29.5846 56.1211 29.5137 56.1275C28.9528 57.4825 28.0179 58.4374 26.593 58.8568C24.4332 59.4891 22.1121 58.3406 21.2997 56.2372C20.468 54.095 21.4094 51.6948 23.4854 50.7205C23.84 50.5527 23.9367 50.3721 23.9367 49.9978C23.9238 45.7006 23.9174 41.4034 23.9303 37.1126C23.9367 34.5769 25.9483 32.6154 28.4434 32.6734C30.6807 32.7251 32.5891 34.5446 32.6858 36.7836C32.7374 38.0482 32.6987 39.3193 32.6987 40.642C30.8225 41.3131 28.9012 41.6486 26.8767 41.326C26.8767 44.4166 26.8767 47.4556 26.8767 50.514C28.134 51.0108 29.0172 51.8883 29.5072 53.153C32.5504 53.153 35.5678 53.153 38.6238 53.153C38.2757 48.9848 39.4749 45.3522 42.4342 42.4035C45.3807 39.4677 48.9718 38.216 53.1949 38.6289C53.1949 38.474 53.1949 38.3192 53.1949 38.1643C53.1949 35.4157 53.1884 32.667 53.2013 29.9119C53.2013 29.5957 53.1175 29.4344 52.8145 29.2989C51.828 28.8537 51.1317 28.1117 50.6611 27.1309C50.5966 26.9954 50.4032 26.8277 50.2678 26.8212C47.3729 26.8019 44.478 26.8083 41.5832 26.8083C41.5187 26.8083 41.4607 26.8277 41.3768 26.847C41.7379 29.8086 41.0932 32.5379 39.5845 35.0737C38.6367 36.6739 37.012 38.3708 35.6387 39.1709C35.6387 38.8354 35.658 38.5321 35.6322 38.2418C35.5484 37.1771 35.6129 36.0609 35.3163 35.0608C34.4524 32.1121 32.4215 30.37 29.3847 29.8215C29.2751 29.8022 29.1655 29.7699 28.9141 29.7118C30.2616 29.4279 31.2545 28.8279 31.9508 27.7891C32.6407 26.7502 32.8599 25.6146 32.602 24.3887C32.17 22.3304 30.2616 20.8722 28.1082 20.9496C25.9934 21.0271 24.2397 22.6659 23.9496 24.8404C23.653 27.0535 25.0328 28.8989 27.5795 29.6989C22.4409 30.77 20.6034 34.1768 21.029 39.2225C19.8555 38.4547 18.9142 37.6094 18.1212 36.6158C15.0136 32.7251 14.1367 28.3762 15.8969 23.7048C17.6763 18.9752 21.1708 16.0653 26.1611 15.1942C32.2861 14.1231 38.1596 17.5557 40.4871 23.4144C40.6225 23.7499 40.7643 23.8854 41.1383 23.879C44.117 23.8596 47.0892 23.8661 50.0679 23.8661C50.2162 23.8661 50.358 23.8661 50.4934 23.8661C51.6862 21.64 53.3238 20.6528 55.2645 20.9819C57.2825 21.3239 58.6751 22.7305 59.004 24.7565C59.3134 26.6728 58.3141 28.3117 56.1155 29.486C56.1155 30.5119 56.1155 31.5507 56.1155 32.596C56.1155 34.6478 56.1284 36.6997 56.1026 38.745C56.0962 39.1644 56.2122 39.3451 56.612 39.5193C60.9639 41.4034 63.7299 44.6102 64.7614 49.2558C64.8646 49.7139 64.9226 50.1785 65 50.6366C65 51.3528 65 52.069 65 52.7852Z" fill="#E16428"/>
<path d="M50.6606 64.993C49.7966 64.7995 48.9262 64.6124 48.0623 64.4123C47.8302 64.3607 47.6045 64.2639 47.4305 64.2059C47.4305 62.7089 47.2886 61.2313 47.4627 59.7925C47.727 57.5858 49.7902 56.0114 51.9823 56.1211C54.1293 56.2308 55.9926 58.0633 56.1022 60.2764C56.1666 61.5733 56.1151 62.8767 56.1151 64.2704C55.1544 64.4833 54.1873 64.6898 53.2266 64.9027C53.0848 64.935 52.9494 64.9672 52.8076 64.9995C52.0919 64.993 51.3762 64.993 50.6606 64.993Z" fill="#E16428"/>
<path d="M28.3012 26.815C27.5082 26.8086 26.8506 26.144 26.8506 25.3503C26.8506 24.5373 27.5405 23.8663 28.3464 23.8857C29.1394 23.905 29.7841 24.5825 29.7713 25.3761C29.7648 26.1698 29.0943 26.8215 28.3012 26.815Z" fill="#E16428"/>
<path d="M53.1951 48.7651C53.2015 49.5588 52.5568 50.2298 51.7638 50.2492C50.9579 50.2685 50.268 49.591 50.2745 48.778C50.2745 47.9844 50.9385 47.3263 51.7316 47.3198C52.5181 47.3198 53.1822 47.978 53.1951 48.7651Z" fill="#E16428"/>
</svg>
