<svg width="80" height="80" viewBox="0 0 80 80" fill="none" xmlns="http://www.w3.org/2000/svg">
<path d="M22.1953 14C34.1225 14 46.0498 14 57.9826 14C57.9883 14.1356 57.9996 14.2769 57.9996 14.4126C57.9996 29.0557 57.9996 43.6931 57.9996 58.3362C57.9996 58.5001 57.9826 58.6697 57.9714 58.8901C55.2011 58.8901 52.4704 58.8901 49.6945 58.8901C49.6945 61.6311 49.6945 64.3212 49.6945 67C42.0101 67 34.3708 67 26.6525 67C26.8387 66.8531 26.9572 66.757 27.0757 66.6609C28.7062 65.4289 30.0377 63.9256 31.0702 62.1623C31.262 61.8345 31.4595 61.7215 31.8375 61.7215C35.3525 61.7384 38.8675 61.7328 42.3881 61.7328C42.5856 61.7328 42.783 61.7328 42.9862 61.7328C42.9862 60.6533 42.9862 59.6643 42.9862 58.6188C39.5332 58.6188 36.1142 58.6188 32.712 58.6188C32.9264 57.302 33.1352 56.036 33.3552 54.7136C40.2046 54.7136 47.071 54.7136 53.9599 54.7136C53.9599 53.6681 53.9599 52.6734 53.9599 51.6222C47.0653 51.6222 40.1934 51.6222 33.3157 51.6222C33.3157 50.2997 33.3157 49.0395 33.3157 47.734C40.2159 47.734 47.071 47.734 53.9486 47.734C53.9486 46.6884 53.9486 45.6881 53.9486 44.6426C53.706 44.6426 53.5029 44.6426 53.2998 44.6426C45.9369 44.6426 38.5797 44.6369 31.2169 44.6539C30.7825 44.6539 30.4834 44.5239 30.1844 44.2187C29.1406 43.1393 28.0799 42.0824 27.0023 41.0369C26.8387 40.8787 26.5622 40.7656 26.3366 40.76C25.1461 40.7317 23.9556 40.7487 22.7708 40.7487C22.5903 40.7487 22.4097 40.7487 22.2292 40.7487C22.2179 40.5961 22.2066 40.5283 22.2066 40.4661C22.1953 31.6441 22.1953 22.822 22.1953 14ZM36.385 27.9649C35.849 28.1853 35.3356 28.3718 34.8391 28.6035C33.1183 29.3891 32.0294 30.7116 31.9109 32.6048C31.7924 34.5659 31.8714 36.5383 31.8714 38.505C31.8714 38.5333 31.9109 38.5615 31.9334 38.5954C37.3836 38.5954 42.8395 38.5954 48.2897 38.5954C48.3122 38.5163 48.3348 38.4654 48.3348 38.4202C48.3348 36.5722 48.4025 34.7241 48.3122 32.8817C48.2107 30.8641 47.1669 29.4174 45.3107 28.5922C44.8255 28.3775 44.329 28.1797 43.7873 27.9536C44.7577 26.7951 44.9383 25.45 44.8706 24.0371C44.8537 23.7093 44.8706 23.3815 44.8537 23.0537C44.7465 20.7423 42.9241 18.7755 40.6899 18.5495C38.213 18.3065 35.928 19.7702 35.4823 22.1269C35.1099 24.1106 34.9858 26.1621 36.385 27.9649Z" fill="#E16428"/>
<path d="M20.7796 43.8573C22.1901 43.8573 23.6062 43.846 25.0168 43.8686C25.2594 43.8743 25.5584 43.993 25.7277 44.1568C27.1325 45.5302 28.5204 46.9204 29.8971 48.3277C30.0438 48.4803 30.1454 48.7402 30.151 48.955C30.1679 50.8878 30.2243 52.8206 30.1454 54.7535C29.9535 59.269 27.9055 62.7447 24.0802 65.141C23.0477 65.7852 21.9419 66.3165 20.8586 66.8873C20.7401 66.9495 20.5426 67.0003 20.4411 66.9438C18.5566 65.9209 16.5537 65.0731 14.974 63.5585C12.514 61.1962 11.1543 58.3139 11.0358 54.8948C10.9738 53.0354 11.0076 51.1704 11.0245 49.3054C11.0245 49.1076 11.1317 48.8702 11.2672 48.7289C12.7905 47.1804 14.3251 45.6432 15.871 44.1173C16.0234 43.9703 16.2829 43.8686 16.4973 43.863C17.9191 43.8517 19.3522 43.8573 20.7796 43.8573ZM19.008 48.2938C19.008 49.4297 19.008 50.5035 19.008 51.6338C17.874 51.6338 16.7963 51.6338 15.7018 51.6338C15.7018 52.6907 15.7018 53.6966 15.7018 54.7535C16.8189 54.7535 17.8965 54.7535 19.0362 54.7535C19.0362 55.9007 19.0362 56.9971 19.0362 58.0992C20.0913 58.0992 21.0786 58.0992 22.1337 58.0992C22.1337 56.9745 22.1337 55.8781 22.1337 54.7252C23.2903 54.7252 24.3792 54.7252 25.4738 54.7252C25.4738 53.6684 25.4738 52.6794 25.4738 51.6225C24.3566 51.6225 23.2677 51.6225 22.1168 51.6225C22.1168 50.4809 22.1168 49.4071 22.1168 48.2994C21.0786 48.2938 20.0856 48.2938 19.008 48.2938Z" fill="#E16428"/>
<path d="M52.8262 66.8134C52.8262 65.2932 52.8262 63.6825 52.8262 62.0322C54.4511 62.0322 56.0703 62.0322 57.605 62.0322C56.0308 63.609 54.4172 65.2197 52.8262 66.8134Z" fill="#E16428"/>
<path d="M34.9805 35.4697C34.9805 34.5768 34.941 33.7178 34.9917 32.8644C35.0369 32.1692 35.4713 31.6945 36.1089 31.4345C37.3501 30.9259 38.597 30.4286 39.8439 29.9482C39.9962 29.886 40.2163 29.8917 40.3742 29.9538C41.6098 30.4286 42.8341 30.9259 44.0641 31.4232C44.7863 31.7171 45.1925 32.2766 45.232 33.0452C45.2715 33.8365 45.2377 34.6277 45.2377 35.4697C41.8186 35.4697 38.4277 35.4697 34.9805 35.4697Z" fill="#E16428"/>
<path d="M38.422 24.0823C38.422 23.8053 38.4107 23.5284 38.422 23.2515C38.4559 22.3246 39.1724 21.6239 40.0808 21.6182C41.0004 21.6125 41.7226 22.2851 41.7621 23.2289C41.7846 23.8166 41.7846 24.4044 41.7621 24.9865C41.7226 25.9134 40.9835 26.6141 40.0808 26.6085C39.1837 26.6028 38.4559 25.8851 38.422 24.9639C38.4107 24.67 38.422 24.3761 38.422 24.0823Z" fill="#E16428"/>
</svg>
