<svg width="80" height="80" viewBox="0 0 80 80" fill="none" xmlns="http://www.w3.org/2000/svg">
<path d="M12 40.0018C12.2238 39.7296 12.4123 39.416 12.6774 39.1911C20.6355 32.5219 28.5995 25.8586 36.5634 19.1954C38.472 17.5976 40.5336 17.6035 42.4481 19.2013C44.9397 21.2843 47.4196 23.3791 49.9054 25.4622C50.0409 25.5746 50.1823 25.6811 50.3944 25.8527C50.4061 25.6042 50.4238 25.4385 50.4238 25.2669C50.4238 23.3614 50.4238 21.4559 50.4238 19.5445C50.4238 18.4557 50.7831 18.1006 51.8788 18.1006C53.8285 18.1006 55.7842 18.0947 57.7339 18.1006C58.7765 18.1006 59.1535 18.4853 59.1535 19.5386C59.1535 23.9117 59.1594 28.279 59.1418 32.6521C59.1418 33.0545 59.2655 33.309 59.5718 33.5575C61.8102 35.4097 64.0368 37.2738 66.2693 39.1378C67.1764 39.8953 67.2294 40.4161 66.4813 41.3096C65.9276 41.9724 65.3798 42.6352 64.8261 43.292C64.2076 44.0199 63.6185 44.0732 62.8881 43.4577C55.3247 37.1258 47.7672 30.788 40.2038 24.4562C39.9858 24.2727 39.762 24.0893 39.5028 23.8762C38.6487 24.5923 37.7945 25.3024 36.9463 26.0125C30.0191 31.8236 23.0918 37.6288 16.1587 43.4281C15.3694 44.0909 14.7921 44.0436 14.1383 43.2565C13.4196 42.3926 12.7128 41.5167 12 40.6468C12 40.4338 12 40.2208 12 40.0018Z" fill="#E16428"/>
<path d="M35.1493 61.9979C34.8606 61.9979 34.6721 61.9979 34.4777 61.9979C30.4663 61.9979 26.4608 61.9979 22.4493 61.9979C20.7057 61.9979 19.8516 61.1339 19.8516 59.3764C19.8516 54.1629 19.8516 48.9435 19.8457 43.7301C19.8457 43.3987 19.881 43.1324 20.1756 42.8839C26.5079 37.6526 32.8284 32.4155 39.1548 27.1784C39.2491 27.1015 39.3492 27.0245 39.4965 26.9121C39.6437 27.0245 39.7969 27.137 39.9441 27.2553C46.2293 32.457 52.5145 37.6586 58.782 42.8779C58.9823 43.0436 59.1413 43.3809 59.1413 43.6354C59.1649 48.9613 59.159 54.2813 59.1531 59.6071C59.1531 61.0037 58.2754 61.9801 56.9206 61.986C52.6618 62.0097 48.397 61.9979 44.1382 61.992C44.0734 61.992 44.0027 61.9683 43.879 61.9446C43.879 57.5951 43.879 53.2516 43.879 48.8725C40.9455 48.8725 38.0768 48.8725 35.1434 48.8725C35.1493 53.222 35.1493 57.5655 35.1493 61.9979Z" fill="#E16428"/>
</svg>
