<svg width="80" height="80" viewBox="0 0 80 80" fill="none" xmlns="http://www.w3.org/2000/svg">
<path d="M31.4408 14C32.2141 14.1642 33.0064 14.2842 33.7671 14.5053C38.9267 15.996 42.4953 20.6955 42.5524 26.0519C42.5714 27.7763 42.5524 29.5008 42.5524 31.2504C40.5113 31.2504 38.5147 31.2504 36.4356 31.2504C36.4356 31.0862 36.4356 30.9093 36.4356 30.7325C36.4356 29.2418 36.442 27.7511 36.4356 26.2604C36.4229 23.0326 34.103 20.4681 30.8767 20.1144C27.9039 19.7859 25.0642 21.8388 24.3606 24.8518C24.2529 25.3066 24.2148 25.7866 24.2085 26.2604C24.1895 27.7511 24.2022 29.2418 24.2022 30.7325C24.2022 30.8967 24.2022 31.0609 24.2022 31.2504C22.1548 31.2504 20.1581 31.2504 18.1551 31.2504C18.1361 31.2315 18.0981 31.2062 18.0981 31.181C18.1234 29.0523 18.0094 26.9047 18.1995 24.7886C18.6622 19.5333 22.9344 15.0612 28.1574 14.1958C28.5061 14.139 28.8547 14.0632 29.197 14C29.9449 14 30.6929 14 31.4408 14Z" fill="#E16428"/>
<path d="M44.3334 34.5667C45.0243 34.8256 45.3222 35.6341 44.9673 36.2784C44.9165 36.3732 44.8595 36.4679 44.8088 36.5627C44.4412 37.2006 43.877 37.5291 43.1481 37.5733C40.207 37.7502 38.4639 39.6072 38.4829 42.5634C38.5019 45.1089 38.5336 47.6545 38.4829 50.2001C38.4322 52.6445 38.7871 55.0132 39.6238 57.3061C39.6619 57.4135 39.6872 57.5272 39.7316 57.6978C39.5097 57.6978 39.3259 57.6978 39.1484 57.6978C32.0619 57.6978 24.9753 57.6978 17.8825 57.6978C15.3851 57.6978 13.8828 56.0997 14.0096 53.5352C14.2631 48.4883 14.168 43.4287 14.0032 38.3818C13.9208 35.8805 15.4167 34.3266 17.8761 34.3266C26.205 34.3266 34.5339 34.3266 42.8628 34.3203C43.3889 34.3203 43.877 34.3961 44.3334 34.5667ZM31.8464 48.8167C32.0492 48.722 32.2203 48.6462 32.3852 48.5641C34.2424 47.6292 35.2122 45.6079 34.8002 43.5488C34.4135 41.5969 32.6641 40.0683 30.6611 39.9294C28.601 39.7841 26.7121 41.0095 26.0085 42.9361C25.3049 44.8752 25.9071 47.1239 27.6819 48.1661C28.6771 48.7473 28.9306 49.4042 28.7848 50.4022C28.7785 50.4338 28.7848 50.4717 28.7848 50.5032C28.8038 51.4381 29.4504 52.1203 30.3251 52.114C31.1998 52.1076 31.8337 51.4255 31.84 50.478C31.8527 49.9348 31.8464 49.3979 31.8464 48.8167Z" fill="#E16428"/>
<path d="M64.8957 47.016C64.8957 48.8604 65.0034 50.7112 64.8766 52.5493C64.4583 58.5626 59.6346 64.3359 53.7714 65.934C53.4482 66.0224 53.0552 66.0224 52.7319 65.9277C46.6976 64.1654 42.1908 58.67 41.6267 52.423C41.5696 51.7976 41.5443 51.1723 41.538 50.547C41.5316 47.8056 41.5316 45.0579 41.538 42.3165C41.538 41.2806 42.1338 40.6679 43.1543 40.6237C45.1763 40.5353 46.6976 39.6067 47.5976 37.8065C48.054 36.8906 48.6752 36.5306 49.6894 36.5495C52.1361 36.5938 54.5828 36.5811 57.0295 36.5559C57.8979 36.5495 58.4747 36.878 58.855 37.6549C59.7868 39.5625 61.3334 40.5479 63.4631 40.63C64.3822 40.6679 64.9907 41.3059 64.9971 42.247C65.0034 43.8388 64.9971 45.4306 64.9971 47.0223C64.959 47.016 64.9274 47.016 64.8957 47.016ZM51.9142 52.1387C51.2106 51.425 50.6592 50.8565 50.0951 50.3006C49.4105 49.6247 48.4977 49.5995 47.8702 50.2185C47.2554 50.8249 47.268 51.7787 47.9273 52.4419C48.8337 53.3578 49.7464 54.2674 50.6655 55.1707C51.3818 55.8718 52.2628 55.8907 52.9664 55.1896C54.849 53.3325 56.7252 51.4629 58.5824 49.5805C58.8169 49.3405 59.0008 48.9931 59.0705 48.6646C59.2163 48.0077 58.8803 47.3887 58.3099 47.0918C57.6887 46.7634 56.9978 46.8707 56.4463 47.414C55.0328 48.8099 53.632 50.2122 52.2312 51.6208C52.1044 51.7471 52.0347 51.9366 51.9142 52.1387Z" fill="#E16428"/>
<path d="M31.8464 44.4901C31.8464 45.3112 31.1555 46.006 30.3315 46.0123C29.4884 46.0187 28.7785 45.3049 28.7912 44.4648C28.8039 43.6437 29.5074 42.9615 30.3315 42.9678C31.1555 42.9741 31.8464 43.6689 31.8464 44.4901Z" fill="#E16428"/>
</svg>
