<svg width="80" height="80" viewBox="0 0 80 80" fill="none" xmlns="http://www.w3.org/2000/svg">
<path d="M23.5217 15.9995C34.1737 15.9995 44.8258 15.9995 55.4779 15.9995C55.5186 16.0228 55.5536 16.0635 55.6001 16.0694C57.8993 16.3604 59.989 18.5839 59.9192 21.3487C59.8493 24.1718 59.9134 26.9948 59.8959 29.8178C59.8959 30.2311 59.9948 30.4115 60.4139 30.5454C62.2533 31.1508 63.464 32.4138 63.8482 34.3056C64.0519 35.2893 63.9937 36.337 63.9879 37.3498C63.9763 39.1833 62.6782 40.458 60.8389 40.493C60.542 40.4988 60.2451 40.493 59.9075 40.493C59.9075 40.7258 59.9075 40.9004 59.9075 41.0692C59.9075 42.472 59.9075 43.8748 59.9075 45.2776C59.9017 48.8631 59.9192 52.4545 59.8842 56.04C59.8726 57.5068 59.244 58.7466 58.0973 59.643C57.4337 60.1611 56.6479 60.5161 55.8388 60.9876C55.8388 61.1564 55.8446 61.4591 55.8388 61.7618C55.7922 63.7175 54.5175 64.9748 52.5617 64.9806C51.3044 64.9864 50.0413 64.9922 48.784 64.9806C46.9504 64.9573 45.664 63.6709 45.6291 61.8432C45.6233 61.5464 45.6291 61.2437 45.6291 60.9294C41.5196 60.9294 37.4683 60.9294 33.3763 60.9294C33.3763 61.2961 33.3879 61.6337 33.3763 61.9655C33.3006 63.6535 32.0724 64.9224 30.3902 64.969C28.9874 65.0097 27.5846 65.0097 26.1818 64.969C24.9943 64.934 24.0921 64.3636 23.5217 63.3042C23.1608 62.629 23.1782 61.8956 23.155 61.1622C23.1491 61.0167 23.0269 60.7839 22.9105 60.7548C20.5996 60.1378 19.0222 57.9259 19.0687 55.3008C19.1619 50.5686 19.092 45.8305 19.092 41.0925C19.092 40.9062 19.092 40.72 19.092 40.493C18.8243 40.493 18.6147 40.5221 18.4168 40.4871C17.8406 40.3882 17.2352 40.3533 16.7055 40.1379C15.7276 39.7421 15.2794 38.8748 15 37.9086C15 36.855 15 35.8015 15 34.7538C15.0291 34.6665 15.0698 34.5791 15.0873 34.486C15.5064 32.507 16.6764 31.1857 18.5798 30.5454C18.9931 30.4057 19.0978 30.2311 19.0978 29.8178C19.0862 26.8202 19.0746 23.8225 19.1095 20.8249C19.127 19.393 19.7847 18.2347 20.8383 17.2801C21.6124 16.5758 22.5379 16.2382 23.5217 15.9995ZM39.5522 28.2462C35.2157 28.2462 30.8792 28.2462 26.5427 28.2462C24.4413 28.2462 23.1666 29.5093 23.1666 31.599C23.1608 34.8003 23.1608 38.0075 23.1666 41.2089C23.1724 43.2985 24.4472 44.5733 26.5368 44.5733C35.1749 44.5791 43.8188 44.5791 52.4569 44.5674C52.8178 44.5674 53.1961 44.5383 53.5454 44.4452C54.9948 44.061 55.833 42.8678 55.8388 41.2089C55.8446 38.0075 55.8446 34.8003 55.833 31.599C55.833 31.2381 55.798 30.8597 55.7049 30.5105C55.3266 29.0844 54.1508 28.2346 52.5617 28.2346C48.2252 28.2462 43.8887 28.2462 39.5522 28.2462ZM39.5172 20.0915C35.9316 20.0915 32.3402 20.0915 28.7546 20.0915C28.5159 20.0915 28.2773 20.0973 28.0386 20.1089C25.8733 20.2544 24.5461 22.6293 25.5706 24.5443C26.2225 25.7608 27.2935 26.2148 28.6207 26.209C35.6348 26.2032 42.6547 26.209 49.6687 26.209C49.9889 26.209 50.309 26.2206 50.6233 26.209C52.9109 26.1217 54.337 24.1019 53.5687 22.0414C53.1088 20.8016 51.9912 20.0915 50.472 20.0915C46.8224 20.0856 43.1669 20.0915 39.5172 20.0915ZM28.2482 54.7711C29.9362 54.7827 31.3274 53.4091 31.3332 51.7211C31.339 50.068 29.9711 48.6943 28.2947 48.6594C26.63 48.6303 25.2213 50.0331 25.2213 51.7211C25.2213 53.3974 26.5718 54.7595 28.2482 54.7711ZM53.7724 51.7211C53.7724 50.0505 52.422 48.6885 50.7456 48.6594C49.0866 48.6361 47.6606 50.0505 47.6606 51.7211C47.6606 53.3974 49.0575 54.7827 50.7456 54.7711C52.4278 54.7595 53.7724 53.3974 53.7724 51.7211Z" fill="#E16428"/>
</svg>
