<svg width="110" height="110" viewBox="0 0 110 110" fill="none" xmlns="http://www.w3.org/2000/svg">
<path d="M96.0979 12.0121C96.0373 14.5324 96.001 17.0648 95.9162 19.5851C95.904 19.9729 95.8434 20.397 95.6617 20.7362C89.991 31.3385 84.2961 41.9286 78.6133 52.5187C78.5648 52.6156 78.4921 52.7126 78.371 52.8943C75.8264 51.3676 73.2819 49.8409 70.6768 48.2778C77.2683 36.1489 83.8357 24.0805 90.403 12C92.2932 12.0121 94.1956 12.0121 96.0979 12.0121Z" fill="#E16428"/>
<path d="M50.3924 59.6554C50.3924 59.1223 50.3924 58.8073 50.3924 58.5043C50.3924 50.5678 50.3924 42.6434 50.3924 34.7069C50.3924 33.1195 49.9925 32.7197 48.4173 32.7197C37.7788 32.7197 27.1523 32.7197 16.5137 32.7197C16.1744 32.7197 15.823 32.7197 15.2051 32.7197C16.2108 30.9385 16.9984 29.2058 18.0647 27.667C24.2685 18.7853 32.8593 14.3627 43.6675 14.8595C52.319 15.2593 59.5164 18.9671 64.9932 25.801C65.4052 26.322 65.599 26.843 65.5869 27.5216C65.5506 30.8537 65.5869 34.1858 65.5627 37.518C65.5627 37.8936 65.4779 38.3298 65.2598 38.6327C60.4373 45.503 55.6026 52.349 50.768 59.195C50.6953 59.2919 50.6105 59.3767 50.3924 59.6554ZM49.8471 27.1823C49.8471 27.1823 49.8471 27.1944 49.8471 27.1823C50.0531 27.1823 50.247 27.1944 50.453 27.1823C51.3375 27.1459 51.9191 26.6007 51.9312 25.8252C51.9433 25.0376 51.3617 24.4681 50.4893 24.4318C50.0652 24.4075 49.629 24.4075 49.1928 24.4318C48.3931 24.4924 47.8236 25.0861 47.8357 25.8252C47.8479 26.528 48.3931 27.0975 49.1565 27.1702C49.3867 27.2065 49.6169 27.1823 49.8471 27.1823ZM55.1664 27.1823V27.1944C55.3967 27.1944 55.6269 27.2065 55.8571 27.1944C56.7174 27.1459 57.299 26.5643 57.2869 25.7889C57.2626 25.0376 56.7053 24.4924 55.8813 24.456C55.3967 24.4318 54.8999 24.4075 54.4152 24.4681C53.6639 24.5651 53.2156 25.0618 53.2156 25.8131C53.2156 26.5643 53.6639 27.0369 54.4031 27.1823C54.6454 27.2186 54.912 27.1823 55.1664 27.1823Z" fill="#E16428"/>
<path d="M59.1044 69.5908C61.7338 71.166 64.3026 72.7049 66.9319 74.2679C65.4537 77.0184 64.0239 79.6963 62.5941 82.3741C60.7039 85.888 58.8258 89.4019 56.9355 92.9157C55.2755 96.0055 52.6825 97.5565 49.1686 97.5565C45.3155 97.5565 41.4744 97.5565 37.6213 97.5565C37.3426 97.5565 37.0639 97.5565 36.6641 97.5565C38.5179 91.0619 40.3476 84.6763 42.1772 78.2422C44.4915 78.2422 46.7574 78.2301 49.0232 78.2422C52.6462 78.2665 55.2876 76.6913 56.984 73.4924C57.6625 72.1959 58.3774 70.9237 59.1044 69.5908Z" fill="#E16428"/>
<path d="M32.5203 78.2427C31.4783 81.8899 30.4847 85.3917 29.4911 88.8934C28.7399 91.5107 27.9765 94.1279 27.2616 96.7573C27.092 97.3994 26.8012 97.6054 26.1348 97.5812C24.4142 97.5327 22.7057 97.6297 21.0457 96.939C17.2652 95.3638 15.1448 91.2441 16.1505 87.2819C16.4292 86.1671 16.7563 85.0645 17.1077 83.974C18.2104 80.557 21.3123 78.2791 24.8989 78.2427C27.3949 78.2185 29.9031 78.2427 32.5203 78.2427Z" fill="#E16428"/>
<path d="M69.3553 50.7134C71.9968 52.3007 74.5292 53.8274 77.0859 55.3662C74.1293 60.8673 71.2092 66.2956 68.2406 71.833C65.6476 70.2942 63.103 68.7675 60.4131 67.168C63.3938 61.6912 66.3503 56.2508 69.3553 50.7134Z" fill="#E16428"/>
<path d="M86.8157 89.2934C83.8834 89.2449 81.6176 88.9299 79.5214 87.8757C78.8428 87.5364 78.1764 87.0881 77.619 86.5671C76.2377 85.2585 76.2498 83.6712 77.5827 82.3262C78.8428 81.0539 80.4544 80.4602 82.1507 80.0846C85.6888 79.297 89.1664 79.4181 92.547 80.7995C93.1044 81.0297 93.6375 81.3205 94.1222 81.6719C96.4728 83.3198 96.5334 85.6341 94.1343 87.1608C92.8741 87.9605 91.3959 88.4573 89.954 88.8693C88.7665 89.2086 87.4821 89.2207 86.8157 89.2934Z" fill="#E16428"/>
<path d="M13.17 46.4483C13.0246 42.7042 13.2184 39.0571 14.3574 35.5068C17.9076 35.5068 21.4094 35.5068 24.996 35.5068C23.9176 39.1055 22.1001 42.4983 22.924 46.4483C19.5798 46.4483 16.4173 46.4483 13.17 46.4483Z" fill="#E16428"/>
<path d="M37.4152 35.4702C36.3489 39.0931 34.5072 42.4858 35.3432 46.4359C32.0111 46.4359 28.8365 46.4359 25.4316 46.4359C25.577 44.8729 25.5407 43.2613 25.8921 41.7346C26.3404 39.8201 27.0795 37.9663 27.7338 36.1003C27.8187 35.8458 28.1458 35.4944 28.3639 35.4944C31.3568 35.4581 34.3375 35.4702 37.4152 35.4702Z" fill="#E16428"/>
<path d="M95.9039 89.5117C95.9039 90.6871 95.9524 91.8018 95.8918 92.9165C95.8191 94.0676 95.08 94.8431 94.1954 95.4853C92.7414 96.5274 91.0693 97.0363 89.3245 97.315C85.9681 97.8481 82.6723 97.6421 79.5583 96.1881C78.8676 95.8609 78.2375 95.3884 77.6559 94.8916C76.9289 94.2736 76.5775 93.4255 76.6139 92.444C76.6381 91.4868 76.6139 90.5174 76.6139 89.5117C83.06 92.9771 89.4214 92.9892 95.9039 89.5117Z" fill="#E16428"/>
<path d="M47.6296 56.7354C47.6296 59.1224 47.6418 61.3882 47.6175 63.6541C47.6175 63.8964 47.5206 64.163 47.3873 64.369C46.6482 65.6291 45.9091 66.8893 45.1215 68.1252C44.9882 68.3433 44.6489 68.5614 44.4066 68.5614C43.207 68.6099 42.0074 68.5856 40.8321 68.5856C39.9476 66.3804 39.0873 64.2357 38.2391 62.0789C38.1301 61.7881 38.0331 61.4852 37.9847 61.1822C37.8271 60.3098 38.0816 59.8373 39.0509 59.5465C41.6803 58.771 44.2733 57.838 46.8784 56.9656C47.0844 56.8929 47.3025 56.8323 47.6296 56.7354Z" fill="#E16428"/>
<path d="M22.7287 57.511C19.5178 57.511 16.3795 57.511 13.1807 57.511C13.1807 54.7847 13.1807 52.0948 13.1807 49.3442C16.331 49.3442 19.4935 49.3442 22.7287 49.3442C22.7287 52.0221 22.7287 54.7241 22.7287 57.511Z" fill="#E16428"/>
<path d="M35.1496 57.511C31.9387 57.511 28.7883 57.511 25.6016 57.511C25.6016 54.7847 25.6016 52.0948 25.6016 49.3442C28.7519 49.3442 31.9266 49.3442 35.1496 49.3442C35.1496 52.0221 35.1496 54.7362 35.1496 57.511Z" fill="#E16428"/>
<path d="M25.4561 60.334C28.8245 60.334 31.9628 60.334 35.1495 60.334C35.1495 62.9755 36.6641 65.108 37.4396 67.4708C37.5487 67.7979 37.6819 68.113 37.8273 68.5007C34.6285 68.5007 31.5024 68.5007 28.3883 68.5007C27.528 66.356 26.6556 64.2114 25.8196 62.0425C25.6257 61.5457 25.5893 60.9762 25.4561 60.334Z" fill="#E16428"/>
<path d="M47.6295 45.6724C47.6295 48.3138 47.6416 50.8584 47.6173 53.4029C47.6173 53.5726 47.4356 53.8391 47.2781 53.8876C44.2246 54.9296 41.1591 55.9475 37.9845 57.0016C37.9845 54.348 37.9724 51.8035 37.9966 49.2589C37.9966 49.0893 38.1783 48.8227 38.3359 48.7743C41.3893 47.7443 44.4549 46.7265 47.6295 45.6724Z" fill="#E16428"/>
<path d="M38.0083 45.9633C37.9113 44.0367 37.9113 42.2919 38.6141 40.5834C39.2321 39.1052 39.6319 37.5421 40.1772 36.0275C40.262 35.7851 40.6134 35.4943 40.8557 35.4822C43.061 35.4459 45.2784 35.458 47.6169 35.458C47.6169 36.1365 47.6169 36.7787 47.6169 37.4209C47.6169 38.9961 47.6291 40.5834 47.5927 42.1586C47.5927 42.4009 47.3867 42.7887 47.1929 42.8614C44.1758 43.9156 41.1344 44.9213 38.0083 45.9633Z" fill="#E16428"/>
<path d="M13 60.334C16.3927 60.334 19.5431 60.334 22.7298 60.334C22.7177 62.9876 24.2323 65.108 25.0078 67.4829C25.1168 67.8101 25.2501 68.1251 25.4198 68.5734C25.0078 68.5734 24.6806 68.5734 24.3535 68.5734C22.1967 68.5734 20.0399 68.5976 17.8952 68.5492C17.5802 68.5371 17.1318 68.2947 16.9622 68.0282C15.7384 66.0774 14.551 64.1265 13.4241 62.1273C13.1696 61.6547 13.1575 61.0125 13 60.334Z" fill="#E16428"/>
</svg>
