<svg viewBox="0 0 110 110" fill="none" xmlns="http://www.w3.org/2000/svg">
<path d="M77.8623 93.9763C77.8623 79.6465 77.8623 65.3057 77.8623 50.9759C77.8623 48.9367 78.678 48.132 80.7283 48.132C81.6432 48.132 82.547 48.132 83.5501 48.132C83.5501 45.0786 83.5501 42.0694 83.5501 39.0381C85.1044 39.0381 86.5704 39.0381 88.1246 39.0381C88.1246 42.0473 88.1246 45.0456 88.1246 48.132C89.1277 48.132 90.0316 48.1871 90.9355 48.121C92.3575 48.0107 93.3936 48.4847 93.9999 49.8075C93.9999 63.9719 93.9999 78.1364 93.9999 92.3008C93.6361 93.0504 93.0739 93.6125 92.3244 93.9763C87.5074 93.9763 82.6793 93.9763 77.8623 93.9763Z" fill="#E16428"/>
<path d="M57.293 93.976C57.293 84.1877 57.293 74.3993 57.293 64.611C57.293 62.682 58.1307 61.8442 60.0818 61.8442C63.6091 61.8442 67.1364 61.8442 70.6527 61.8442C72.3833 61.8442 73.2872 62.7371 73.2872 64.4567C73.2872 74.3001 73.2872 84.1326 73.2872 93.976C67.9631 93.976 62.6281 93.976 57.293 93.976Z" fill="#E16428"/>
<path d="M36.7354 93.9762C36.7354 87.2082 36.7354 80.4401 36.7354 73.672C36.7354 71.8422 37.6062 70.9824 39.447 70.9824C42.9964 70.9824 46.5457 70.9824 50.0951 70.9824C51.8257 70.9824 52.7296 71.8753 52.7296 73.5949C52.7296 80.385 52.7296 87.1861 52.7296 93.9762C47.3945 93.9762 42.0704 93.9762 36.7354 93.9762Z" fill="#E16428"/>
<path d="M17.6994 93.9759C16.3766 93.3697 15.9688 92.3225 16.0018 90.9116C16.079 88.1779 16.0239 85.4332 16.0239 82.6885C16.0239 81.024 16.9388 80.1201 18.6253 80.1201C22.2739 80.1201 25.9335 80.1201 29.5821 80.1201C31.2576 80.1201 32.1614 81.035 32.1614 82.7105C32.1614 86.4693 32.1614 90.2171 32.1614 93.9759C27.3444 93.9759 22.5164 93.9759 17.6994 93.9759Z" fill="#E16428"/>
<path d="M69.9258 16C71.8107 16 73.6295 16 75.4593 16C78.8323 16 82.2053 16 85.5783 16C87.1877 16 88.1356 16.8708 88.1356 18.4581C88.1577 23.6058 88.1467 28.7535 88.1467 33.9122C88.1467 34.0555 88.1246 34.2099 88.1026 34.3972C82.051 34.3972 76.0215 34.3972 69.9258 34.3972C69.9258 28.2906 69.9258 22.1949 69.9258 16Z" fill="#E16428"/>
<path d="M65.2529 20.7181C65.2529 26.8358 65.2529 32.8874 65.2529 38.9941C64.0183 38.9941 62.8278 38.9941 61.6373 38.9941C59.8406 38.9941 58.0328 39.0162 56.2361 38.9831C54.3071 38.95 53.2599 37.0431 54.2961 35.4117C55.3653 33.7252 56.4896 32.0607 57.625 30.4073C57.9226 29.9774 57.9116 29.6908 57.625 29.2719C56.5447 27.7067 55.5086 26.1083 54.4394 24.5321C53.8662 23.6833 53.6678 22.8125 54.1748 21.8866C54.6598 20.9937 55.4755 20.6851 56.4676 20.6961C59.1572 20.7181 61.8468 20.7071 64.5364 20.7071C64.7568 20.7181 64.9883 20.7181 65.2529 20.7181Z" fill="#E16428"/>
</svg>
