<svg width="110" height="110" viewBox="0 0 110 110" fill="none" xmlns="http://www.w3.org/2000/svg">
<path d="M100.855 91.4303C100.169 92.9275 98.9938 93.4265 97.3719 93.4057C91.8719 93.3433 86.3719 93.3849 80.872 93.3849C80.5497 93.3849 80.2378 93.3849 79.8115 93.3849C79.9674 88.384 78.8966 83.7574 76.1934 79.2659C76.7132 79.2971 77.0979 79.1931 77.3266 79.3387C82.7954 82.7593 88.2226 82.7177 93.629 79.1931C93.7018 79.1515 93.785 79.1203 93.9097 79.0684C97.559 81.5324 99.8152 84.9218 100.668 89.2573C100.709 89.4549 100.792 89.642 100.844 89.8292C100.855 90.3698 100.855 90.9001 100.855 91.4303Z" fill="#E16428"/>
<path d="M74.4048 93.3639C61.7205 93.3639 49.0986 93.3639 36.248 93.3639C36.3728 91.794 36.3624 90.2241 36.6431 88.7165C37.6204 83.4037 40.3964 79.2241 44.8567 76.157C45.3558 75.8139 45.6781 75.8451 46.1667 76.1882C51.7291 80.191 59.0693 80.1911 64.6525 76.1986C65.1203 75.8555 65.453 75.7932 65.9625 76.1466C71.8055 80.2638 74.6127 85.9094 74.4879 93.0312C74.4879 93.1144 74.4464 93.1976 74.4048 93.3639Z" fill="#E16428"/>
<path d="M55.4303 73.8595C49.5664 73.8595 44.7631 69.0561 44.7735 63.1922C44.7735 57.3388 49.5872 52.5458 55.4615 52.5562C61.2838 52.5666 66.0663 57.3491 66.0767 63.1714C66.0767 69.0353 61.2838 73.8491 55.4303 73.8595Z" fill="#E16428"/>
<path d="M55.0973 29.4854C51.2816 29.4126 47.2372 29.0175 43.432 27.3332C42.3923 26.8758 41.3838 26.2415 40.5416 25.4826C38.9925 24.0894 39.0653 22.3739 40.5936 20.9391C41.8516 19.7643 43.38 19.0469 45.0019 18.5686C52.1966 16.4476 59.4016 16.4165 66.5235 18.8493C67.8855 19.3172 69.1955 20.149 70.2976 21.0743C71.826 22.3739 71.7636 24.0686 70.3184 25.4722C68.6549 27.0941 66.5131 27.8115 64.3402 28.3937C61.4082 29.1943 58.4139 29.4646 55.0973 29.4854Z" fill="#E16428"/>
<path d="M39.4401 31.5337C50.1385 35.9524 60.733 35.9628 71.369 31.5441C71.369 33.5819 71.4418 35.6821 71.3378 37.7615C71.2859 38.9259 70.4333 39.7161 69.5184 40.3711C67.6261 41.7123 65.4636 42.4297 63.2178 42.8767C56.8445 44.1452 50.5128 44.0932 44.337 41.889C42.975 41.4004 41.7378 40.527 40.5421 39.6953C39.7208 39.113 39.4089 38.1669 39.4297 37.1064C39.4609 35.2454 39.4401 33.3843 39.4401 31.5337Z" fill="#E16428"/>
<path d="M30.7586 93.3847C30.6234 93.3847 30.3323 93.3847 30.0516 93.3847C24.4061 93.3847 18.7605 93.3847 13.1046 93.3847C10.7965 93.3847 9.70481 92.0747 10.0687 89.7978C10.8069 85.2335 13.1046 81.6778 16.9515 79.0474C18.6566 80.2326 20.476 81.106 22.5034 81.5218C26.3711 82.312 29.958 81.605 33.2642 79.4736C33.6801 79.2033 34.0544 78.8706 34.2935 79.2657C33.3994 81.6778 32.3597 83.8819 31.7775 86.2109C31.2056 88.4982 31.0913 90.9103 30.7586 93.3847Z" fill="#E16428"/>
<path d="M76.5362 67.642C76.5362 62.7659 80.5078 58.7839 85.3839 58.7735C90.2913 58.7631 94.3045 62.7971 94.2733 67.694C94.2421 72.5598 90.2393 76.5314 85.3631 76.521C80.4974 76.5002 76.5258 72.5182 76.5362 67.642Z" fill="#E16428"/>
<path d="M34.3043 67.6629C34.2939 72.539 30.3223 76.5211 25.4461 76.5211C20.5803 76.5211 16.5775 72.539 16.5567 67.6733C16.5359 62.7763 20.5699 58.7527 25.4773 58.7735C30.3534 58.7839 34.3043 62.7763 34.3043 67.6629Z" fill="#E16428"/>
</svg>
