<svg viewBox="0 0 110 110" fill="none" xmlns="http://www.w3.org/2000/svg">
<path d="M49.4867 16C50.4503 16.5656 50.7331 17.3093 50.2722 18.032C49.9266 18.5766 49.3819 18.6395 48.8059 18.6395C44.2077 18.6395 39.6096 18.629 35.001 18.6395C34.2678 18.6395 33.5975 18.5243 33.3356 17.7387C33.0528 16.9008 33.5451 16.398 34.184 16C39.2954 16 44.3858 16 49.4867 16Z" fill="#E16428"/>
<path d="M60.0755 35.8698C59.4052 34.9481 58.871 34.2044 58.2007 33.2932C59.5204 33.2932 60.6202 33.2617 61.7199 33.3036C63.6158 33.3665 65.0926 32.7066 66.0248 30.9784C66.1191 30.8003 66.4647 30.6746 66.7056 30.6642C67.8054 30.6327 68.8947 30.6642 69.9945 30.6432C71.3352 30.6118 72.6759 30.549 74.0794 30.4966C73.8071 33.1675 72.5606 35.3356 70.204 36.7915C67.8578 38.2369 65.3335 38.3836 62.7045 37.5457C63.8567 38.2788 65.0088 39.033 66.1714 39.7557C68.6643 41.2744 69.8583 43.5054 69.9735 46.4068C70.1411 50.2717 70.2982 54.1471 70.602 58.0016C70.801 60.5992 71.817 62.9768 73.1053 65.2287C74.027 66.8417 74.9697 68.4443 75.9543 70.1411C74.7078 71.0104 73.4614 71.8798 72.1626 72.791C71.9846 72.6234 71.796 72.4663 71.618 72.2883C68.7062 69.3555 65.7944 66.4333 62.9035 63.49C62.6207 63.2072 62.3903 62.7778 62.3274 62.3902C62.0865 60.8087 61.9085 59.2166 61.7304 57.6245C61.6571 56.9751 61.6466 56.3153 61.4686 55.603C60.6725 56.8913 59.887 58.1797 59.0176 59.5937C58.2844 58.8605 57.656 58.1063 56.9019 57.4884C55.8545 56.64 55.5298 55.823 55.9592 54.3985C56.6086 52.2618 56.0744 50.2508 54.3776 48.5958C52.5761 46.8362 50.8583 44.9823 49.0463 43.1179C49.3081 42.4685 49.5909 41.7772 49.9261 40.9602C48.0093 41.2221 46.1869 41.4734 44.2282 41.7458C45.9564 43.6102 47.5904 45.3803 49.151 47.0666C47.1086 49.1091 45.0766 51.1411 43.0027 53.2045C42.3743 52.5236 41.6201 51.7381 40.887 50.942C39.2111 49.1195 37.4514 47.3704 35.9013 45.4536C33.576 42.5628 34.1416 38.0065 37.0534 35.7127C37.7657 35.1576 38.7083 34.7805 39.5986 34.592C43.3379 33.8064 47.0876 33.1151 50.8478 32.4238C52.8903 32.0467 54.7861 32.4762 56.5248 33.6074C57.656 34.3511 58.7872 35.0528 60.0755 35.8698Z" fill="#E16428"/>
<path d="M58.6627 87.643C56.0232 86.3233 53.4571 85.035 50.8176 83.7153C52.6296 80.6359 54.4207 77.5984 56.2851 74.4352C55.8975 74.4352 55.6357 74.4352 55.3738 74.4352C51.9802 74.4352 48.5971 74.4771 45.2035 74.4143C43.6009 74.3828 42.5221 74.9799 41.6632 76.3205C38.0287 81.9661 33.4096 86.6585 27.7955 90.3558C27.586 90.492 27.3661 90.6282 27.0937 90.8062C25.4388 88.4391 23.7944 86.0929 22.1709 83.7676C23.7211 82.6574 25.2608 81.6204 26.7167 80.4683C28.9476 78.6982 30.8435 76.6033 32.4041 74.2152C35.5044 69.46 38.6048 64.7048 41.6527 59.9076C42.4383 58.6717 43.0039 57.2996 43.7057 55.917C44.5645 56.8806 45.392 57.8023 46.2195 58.7241C51.9383 65.1761 57.6572 71.6177 63.397 78.0383C63.8579 78.5515 63.9416 78.8972 63.5541 79.5256C61.8992 82.1756 60.3176 84.8779 58.6627 87.643Z" fill="#E16428"/>
<path d="M48.9854 57.8649C50.0851 57.446 51.1325 57.048 52.1695 56.6395C52.2009 56.5452 52.2323 56.4405 52.2742 56.3462C52.4523 56.5976 52.5884 56.8804 52.8084 57.0899C60.1717 64.5055 67.5455 71.9107 74.8878 79.3473C76.2599 80.7299 77.7577 81.1908 79.664 80.7928C82.6491 80.1643 85.6657 79.6406 88.6613 79.0855C90.4733 78.7503 91.8454 79.3264 92.5891 80.6985C93.3851 82.1544 92.9871 84.4168 91.7302 85.7365C91.0179 86.4802 90.1591 86.9306 89.1431 87.1191C85.917 87.7266 82.691 88.3446 79.465 88.9416C77.7682 89.2558 76.3856 88.6902 75.2335 87.4019C69.368 80.7823 63.4815 74.1836 57.6055 67.5744C54.9451 64.5893 52.2847 61.5937 49.6243 58.6086C49.3938 58.3258 49.1634 58.0639 48.9854 57.8649Z" fill="#E16428"/>
<path d="M60.2446 30.6428C59.9932 30.6428 59.7313 30.6009 59.4799 30.6533C58.2754 30.8942 57.5422 30.3286 56.9557 29.3231C55.3636 26.6417 54.8504 23.9185 56.5786 21.1114C57.4899 19.6241 58.9039 18.6919 60.5274 18.1368C63.3239 17.1836 66.1834 17.0056 69.0219 17.8749C72.1536 18.8385 74.0389 21.0905 74.9816 24.1384C75.5472 25.9504 73.9971 27.93 72.0803 27.9615C69.9122 27.9929 67.744 27.9615 65.5759 27.9719C64.2666 27.9719 64.0257 28.171 63.7429 29.3964C63.5544 30.2134 63.1354 30.58 62.2346 30.6324C61.5643 30.6638 60.9044 30.6324 60.2446 30.6428C60.2446 30.6324 60.2446 30.6324 60.2446 30.6428Z" fill="#E16428"/>
<path d="M19.8563 85.0977C21.5426 87.5067 23.1661 89.8424 24.9257 92.3562C23.6898 92.9951 22.5586 93.7597 21.3122 94.1682C19.4163 94.7862 17.3948 93.7388 16.4626 91.9163C15.5723 90.1671 15.9913 87.9571 17.5101 86.7107C18.2328 86.1241 19.0497 85.6528 19.8563 85.0977Z" fill="#E16428"/>
<path d="M49.4246 85.9985C52.0745 87.3287 54.6407 88.6066 57.3325 89.9473C56.6308 90.9947 56.0652 92.084 55.2691 92.9743C53.8656 94.5559 51.4565 94.7549 49.7702 93.5923C48.0734 92.4192 47.3926 90.0625 48.2515 88.1667C48.5866 87.4544 49.0056 86.7841 49.4246 85.9985Z" fill="#E16428"/>
<path d="M31.2635 55.8222C29.7866 55.8222 28.3098 55.8326 26.8329 55.8222C25.8588 55.8117 25.3037 55.2984 25.3037 54.4919C25.3142 53.7064 25.9007 53.1931 26.8644 53.1827C29.7866 53.1722 32.7194 53.1722 35.6417 53.1827C36.8462 53.1931 37.5375 54.1253 37.0766 55.068C36.7938 55.6336 36.291 55.8222 35.6835 55.8117C34.2067 55.8117 32.7403 55.8222 31.2635 55.8222Z" fill="#E16428"/>
<path d="M45.8212 23.9601C44.8052 23.9601 43.7787 23.9706 42.7628 23.9601C41.8096 23.9496 41.2231 23.4154 41.2335 22.6194C41.244 21.8443 41.8096 21.3416 42.7313 21.3311C44.8262 21.3206 46.9105 21.3206 49.0053 21.3311C49.9166 21.3416 50.4927 21.8548 50.5031 22.6194C50.5136 23.405 49.9166 23.9391 48.9634 23.9496C47.9056 23.9706 46.8686 23.9601 45.8212 23.9601Z" fill="#E16428"/>
<path d="M45.6738 54.7963C47.5487 52.9215 49.3817 51.0885 51.2461 49.2241C52.4715 50.4496 54.0636 51.5703 53.3828 53.8851C52.9533 53.4661 52.5553 53.0891 52.0107 52.5654C51.466 53.1833 50.9947 53.8222 50.3977 54.3355C50.0206 54.6602 49.4655 54.9325 48.9837 54.9535C47.8943 55.0058 46.7946 54.8697 45.6738 54.7963Z" fill="#E16428"/>
<path d="M33.9129 61.143C33.274 61.143 32.6351 61.164 32.0066 61.143C31.1582 61.1116 30.624 60.5774 30.624 59.8233C30.624 59.0692 31.1582 58.5454 32.0171 58.5245C33.2844 58.5036 34.5623 58.5036 35.8297 58.5245C36.6571 58.5454 37.2332 59.1111 37.2332 59.8338C37.2332 60.5565 36.6571 61.1116 35.8192 61.143C35.1803 61.164 34.5413 61.143 33.9129 61.143Z" fill="#E16428"/>
<path d="M77.2546 72.4668C78.7 74.4778 78.7629 76.6355 77.4851 78.0076C76.3853 76.8973 75.2855 75.7871 74.1543 74.6349C75.1389 73.9436 76.1758 73.2209 77.2546 72.4668Z" fill="#E16428"/>
</svg>
