<svg viewBox="0 0 110 110" fill="none" xmlns="http://www.w3.org/2000/svg">
<path d="M22.7125 93.2867C22.5821 93.2172 22.4605 93.1389 22.3301 93.0694C20.905 92.3482 20.5401 90.5929 21.6523 89.4633C24.9196 86.1526 28.2216 82.8853 31.4541 79.6528C32.7575 80.487 34.0436 81.3038 35.2775 82.0859C31.793 85.6051 28.239 89.1939 24.6763 92.774C24.4417 93.0086 24.0767 93.1216 23.7726 93.2867C23.4163 93.2867 23.0687 93.2867 22.7125 93.2867Z" fill="#E16428"/>
<path d="M86.2424 93.2868C85.7037 92.8957 85.1041 92.5568 84.6262 92.0963C81.4632 88.9681 78.3263 85.8138 75.1806 82.6682C74.9895 82.477 74.807 82.2772 74.668 82.1294C75.954 81.3126 77.214 80.5132 78.5435 79.6616C78.6478 79.7572 78.8476 79.931 79.0301 80.1222C81.9845 83.0679 84.9303 86.0223 87.876 88.9681C89.5531 90.6538 89.3533 92.1311 87.2852 93.2781C86.9463 93.2868 86.5987 93.2868 86.2424 93.2868Z" fill="#E16428"/>
<path d="M77.8733 20.3817C80.9234 22.1196 83.6432 23.9097 84.3383 27.5419C84.4252 27.985 84.4252 28.4456 84.4252 28.8887C84.4339 39.4465 84.4165 50.0129 84.4339 60.5707C84.4426 65.4194 82.7134 69.4861 79.1246 72.7534C77.8038 73.9525 76.5004 75.1691 75.1883 76.3856C73.8675 77.6021 72.3121 78.193 70.522 78.193C60.1641 78.193 49.8062 78.193 39.4397 78.193C37.6844 78.193 36.1376 77.6021 34.8429 76.4117C33.3744 75.0735 31.9059 73.7353 30.4721 72.3624C27.257 69.2863 25.5973 65.5063 25.5886 61.066C25.5625 50.2302 25.5799 39.3944 25.5799 28.5499C25.5799 27.0118 26.0926 25.6389 27.0137 24.4223C28.3953 22.5889 30.2375 21.3636 32.3925 20.2861C32.5228 21.1377 32.6532 21.9111 32.7661 22.6844C34 31.0872 35.2252 39.4899 36.4592 47.884C36.6677 49.2743 36.798 50.682 37.1369 52.0463C38.1623 56.2086 40.7605 59.0066 44.8619 60.2405C51.4486 62.2217 58.1134 62.5519 64.7783 60.6315C69.5401 59.2586 72.3294 56.0261 73.1028 51.1339C74.4671 42.4791 75.7966 33.807 77.1347 25.1436C77.378 23.6316 77.6127 22.0936 77.8733 20.3817ZM35.9899 62.8039C34.7734 62.8126 33.748 63.8293 33.7393 65.0545C33.7307 66.271 34.756 67.3138 35.9725 67.3224C37.2151 67.3398 38.2753 66.2797 38.2579 65.0284C38.2405 63.8119 37.2151 62.8039 35.9899 62.8039ZM73.9978 67.3224C75.2144 67.3311 76.2571 66.3145 76.2745 65.0979C76.3005 63.8814 75.2926 62.83 74.0673 62.8039C72.8161 62.7691 71.7472 63.8119 71.7472 65.0632C71.7559 66.2797 72.7813 67.3138 73.9978 67.3224ZM46.2522 70.3377C46.2522 69.1125 45.2182 68.0871 43.9843 68.0871C42.759 68.0871 41.725 69.1299 41.7337 70.3551C41.7424 71.5803 42.7764 72.6144 44.0016 72.6057C45.2269 72.597 46.2609 71.5629 46.2522 70.3377ZM65.9861 68.0871C64.7609 68.1045 63.7442 69.1559 63.7616 70.3811C63.779 71.6064 64.8391 72.6317 66.0556 72.6057C67.2808 72.5883 68.2975 71.5282 68.2801 70.3116C68.2628 69.0777 67.22 68.0697 65.9861 68.0871Z" fill="#E16428"/>
<path d="M38.9877 33.9461C38.2404 28.828 37.4931 23.7359 36.7197 18.4788C49.0241 15.1594 61.2589 15.1594 73.5719 18.5657C72.7638 23.7707 71.9818 28.8454 71.191 33.9461C60.4595 33.9461 49.7801 33.9461 38.9877 33.9461ZM55.1241 27.3682C56.3667 27.3682 57.3921 26.3515 57.3921 25.1176C57.3921 23.9097 56.3319 22.8496 55.1241 22.8496C53.8989 22.8496 52.8735 23.875 52.8735 25.1176C52.8735 26.3689 53.8728 27.3682 55.1241 27.3682Z" fill="#E16428"/>
<path d="M70.4786 38.5601C70.0702 41.2104 69.6705 43.7911 69.2708 46.3719C69.0449 47.8144 68.8276 49.2482 68.593 50.6906C68.1325 53.48 66.577 55.3656 63.8659 56.1998C59.0519 57.677 54.1684 57.7031 49.2588 56.7038C48.3725 56.5213 47.4949 56.304 46.6259 56.0694C43.6107 55.27 41.8554 53.3409 41.4035 50.2475C40.8735 46.6152 40.326 42.9917 39.796 39.3595C39.7612 39.1162 39.7438 38.8642 39.7178 38.5601C49.9453 38.5601 60.1642 38.5601 70.4786 38.5601Z" fill="#E16428"/>
</svg>
