<svg width="110" height="110" viewBox="0 0 110 110" fill="none" xmlns="http://www.w3.org/2000/svg">
<path d="M92.9072 50.9631C92.4495 51.9879 91.6237 52.4853 90.5491 52.7241C89.5044 52.953 88.4696 53.2614 87.3652 53.55C87.3652 47.3314 87.3652 41.2124 87.3652 35.0337C88.6189 35.0337 89.8427 34.974 91.0566 35.0536C92.0117 35.1133 92.4992 35.8695 92.9072 36.6455C92.9072 41.4114 92.9072 46.1872 92.9072 50.9631Z" fill="#E16428"/>
<path d="M61.2272 35.0337C61.2272 36.5858 61.2272 38.0783 61.2272 39.5807C61.2272 41.5507 62.0332 42.3566 64.0032 42.3566C67.008 42.3566 70.0028 42.3566 73.0076 42.3566C74.8483 42.3566 75.6642 41.5407 75.6642 39.7001C75.6642 38.1778 75.6642 36.6555 75.6642 35.0038C76.8979 35.0038 78.0819 35.0038 79.2759 35.0038C80.4499 35.0038 81.624 35.0038 82.8478 35.0038C82.8478 41.6203 82.8478 48.1672 82.8478 54.7737C80.3405 55.4503 77.8232 56.1169 75.3159 56.7935C71.356 57.8581 67.396 58.9227 63.4361 59.9774C62.3515 60.2659 61.7446 60.9027 61.466 62.0071C59.0881 71.3896 53.178 77.25 43.7059 79.2299C31.6669 81.7472 19.4189 73.0413 17.6379 60.8928C15.9465 49.3611 22.7719 38.8444 34.0349 35.8097C35.9154 35.3023 37.9153 35.0735 39.8554 35.0536C46.7903 34.964 53.7252 35.0138 60.6601 35.0138C60.8094 35.0038 60.9586 35.0138 61.2272 35.0337ZM50.7105 57.3209C50.7105 51.2317 45.7755 46.2668 39.7161 46.2469C33.6071 46.227 28.6124 51.2018 28.6024 57.291C28.5825 63.3802 33.5872 68.3749 39.6763 68.3649C45.7456 68.355 50.7005 63.3901 50.7105 57.3209Z" fill="#E16428"/>
<path d="M46.2834 57.301C46.2834 60.9425 43.3184 63.9274 39.6868 63.9274C36.0353 63.9374 33.0006 60.9027 33.0305 57.2612C33.0603 53.6295 36.0552 50.6646 39.6868 50.6646C43.3085 50.6845 46.2834 53.6594 46.2834 57.301Z" fill="#E16428"/>
</svg>
